<svg width="229" height="229" viewBox="0 0 229 229" fill="none" xmlns="http://www.w3.org/2000/svg">
<path d="M14.3125 42.9375C14.3125 35.3457 17.3283 28.0648 22.6966 22.6966C28.0648 17.3283 35.3457 14.3125 42.9375 14.3125H186.062C193.654 14.3125 200.935 17.3283 206.303 22.6966C211.672 28.0648 214.688 35.3457 214.688 42.9375V186.062C214.688 193.654 211.672 200.935 206.303 206.303C200.935 211.672 193.654 214.688 186.062 214.688H42.9375C35.3457 214.688 28.0648 211.672 22.6966 206.303C17.3283 200.935 14.3125 193.654 14.3125 186.062V42.9375Z" fill="#2C1E59"/>
<path d="M123.41 70C120.897 70 118.487 70.9905 116.709 72.7535C114.932 74.5166 113.934 76.9078 113.934 79.4012C113.934 81.8945 114.932 84.2858 116.709 86.0488C118.487 87.8119 120.897 88.8024 123.41 88.8024H148.554V148.594C148.554 151.087 149.552 153.478 151.329 155.242C153.107 157.005 155.517 157.995 158.03 157.995C160.543 157.995 162.954 157.005 164.731 155.242C166.508 153.478 167.506 151.087 167.506 148.594V88.8024H192.524C195.037 88.8024 197.447 87.8119 199.224 86.0488C201.002 84.2858 202 81.8945 202 79.4012C202 76.9078 201.002 74.5166 199.224 72.7535C197.447 70.9905 195.037 70 192.524 70H123.41ZM70.7853 70.7145C74.0957 70.7145 80.0468 72.0557 82.8265 77.8845L82.877 77.9847L113.706 144.67C114.226 145.793 114.517 147.006 114.564 148.241C114.611 149.475 114.412 150.706 113.979 151.865C113.546 153.023 112.887 154.085 112.041 154.991C111.194 155.896 110.176 156.627 109.044 157.143C107.913 157.658 106.69 157.947 105.446 157.993C104.201 158.04 102.96 157.843 101.793 157.413C100.625 156.984 99.5545 156.33 98.6417 155.49C97.7288 154.65 96.9917 153.64 96.4723 152.517L91.3551 141.449H50.2155L45.0983 152.517C44.579 153.64 43.8418 154.65 42.929 155.49C42.0161 156.33 40.9454 156.984 39.778 157.413C38.6106 157.843 37.3694 158.04 36.1252 157.993C34.8809 157.947 33.6581 157.658 32.5265 157.143C30.2411 156.102 28.466 154.204 27.5916 151.865C26.7173 149.526 26.8153 146.938 27.8642 144.67L58.7442 77.8845C61.5239 72.0557 67.4623 70.7145 70.7853 70.7145ZM70.7853 96.9375L58.9084 122.647H82.6623L70.7853 96.9375Z" fill="white"/>
</svg>
