<svg width="97" height="93" viewBox="0 0 97 93" fill="none" xmlns="http://www.w3.org/2000/svg">
<path d="M48.5002 7.75C43.1926 7.75 37.937 8.7523 33.0334 10.6997C28.1298 12.647 23.6743 15.5013 19.9213 19.0996C12.3417 26.3666 8.0835 36.2229 8.0835 46.5C8.0835 63.6275 19.6831 78.1587 35.7285 83.3125C37.7493 83.6225 38.396 82.4213 38.396 81.375V74.8262C27.2006 77.1512 24.816 69.6337 24.816 69.6337C22.9568 65.1387 20.3297 63.9375 20.3297 63.9375C16.6518 61.535 20.6127 61.6125 20.6127 61.6125C24.6543 61.8837 26.7964 65.6038 26.7964 65.6038C30.3127 71.4938 36.2539 69.75 38.5577 68.82C38.9214 66.3013 39.9722 64.5963 41.1039 63.6275C32.1314 62.6588 22.7143 59.3262 22.7143 44.5625C22.7143 40.2612 24.2502 36.8125 26.8772 34.0612C26.4731 33.0925 25.0585 29.0625 27.2814 23.8313C27.2814 23.8313 30.6764 22.785 38.396 27.7838C41.5889 26.9313 45.0647 26.505 48.5002 26.505C51.9356 26.505 55.4114 26.9313 58.6043 27.7838C66.3239 22.785 69.7189 23.8313 69.7189 23.8313C71.9418 29.0625 70.5273 33.0925 70.1231 34.0612C72.7502 36.8125 74.286 40.2612 74.286 44.5625C74.286 59.365 64.8285 62.62 55.8156 63.5887C57.2706 64.79 58.6043 67.1538 58.6043 70.7575V81.375C58.6043 82.4213 59.251 83.6613 61.3123 83.3125C77.3577 78.12 88.9168 63.6275 88.9168 46.5C88.9168 41.4113 87.8714 36.3724 85.8403 31.671C83.8092 26.9696 80.8321 22.6979 77.0791 19.0996C73.326 15.5013 68.8705 12.647 63.967 10.6997C59.0634 8.7523 53.8078 7.75 48.5002 7.75Z" fill="black"/>
</svg>
