<svg width="90" height="71" viewBox="0 0 90 71" fill="none" xmlns="http://www.w3.org/2000/svg">
<g clip-path="url(#clip0_34_63)">
<path d="M20.4546 70.6505V34.2639L9.67043 23.9402L0 18.2113V64.2293C0 67.7822 2.75098 70.6505 6.13652 70.6505H20.4546Z" fill="#4285F4"/>
<path d="M69.5454 70.6505H83.8635C87.2592 70.6505 90 67.7715 90 64.2293V18.2117L79.0467 24.7735L69.5454 34.2639V70.6505Z" fill="#34A853"/>
<path d="M20.4547 34.2639L18.9873 20.0467L20.4547 6.4393L45.0001 25.7027L69.5455 6.4393L71.187 19.312L69.5455 34.2639L45.0001 53.5274L20.4547 34.2639Z" fill="#EA4335"/>
<path d="M69.5454 6.43929V34.2639L90 18.2113V9.64974C90 1.70914 81.3375 -2.81757 75.2731 1.94458L69.5454 6.43929Z" fill="#FBBC04"/>
<path d="M0 18.2114L9.40746 25.5946L20.4546 34.264V6.43935L14.727 1.94465C8.65195 -2.81787 0 1.7092 0 9.64943V18.211V18.2114Z" fill="#C5221F"/>
</g>
<defs>
<clipPath id="clip0_34_63">
<rect width="90" height="71" fill="white"/>
</clipPath>
</defs>
</svg>
