<svg width="414" height="640" viewBox="0 0 414 640" fill="none" xmlns="http://www.w3.org/2000/svg">
<rect width="414" height="640" fill="url(#paint0_radial_75_2)"/>
<path d="M154.203 578.442H166.26L169.274 572.961H173.111L176.399 588.581H187.634V604.2H154.203V578.442Z" fill="#FFC700" fill-opacity="0.87"/>
<g filter="url(#filter0_d_75_2)">
<path d="M154.203 578.442H166.26L169.274 572.961H173.111L176.399 588.581H187.634V604.2H154.203V578.442Z" fill="#FFC700" fill-opacity="0.87" shape-rendering="crispEdges"/>
</g>
<path d="M184.3 593.376H180.555V589.631H184.3M184.3 600.866H180.555V597.121H184.3M173.065 578.396H169.32V574.651H173.065M173.065 585.886H169.32V582.141H173.065M173.065 593.376H169.32V589.631H173.065M173.065 600.866H169.32V597.121H173.065M161.83 585.886H158.085V582.141H161.83M161.83 593.376H158.085V589.631H161.83M161.83 600.866H158.085V597.121H161.83M176.81 585.886V574.651L171.192 569.034L165.575 574.651V578.396H154.34V604.611H188.045V585.886H176.81Z" fill="black"/>
<path d="M102.593 565.794H111.354L113.544 561.811H116.331L118.721 573.161H126.884V584.51H102.593V565.794Z" fill="#FFC700" fill-opacity="0.87"/>
<g filter="url(#filter1_d_75_2)">
<path d="M102.593 565.794H111.354L113.544 561.811H116.331L118.721 573.161H126.884V584.51H102.593V565.794Z" fill="#FFC700" fill-opacity="0.87" shape-rendering="crispEdges"/>
</g>
<path d="M124.462 576.645H121.741V573.924H124.462M124.462 582.088H121.741V579.366H124.462M116.298 565.76H113.577V563.039H116.298M116.298 571.203H113.577V568.482H116.298M116.298 576.645H113.577V573.924H116.298M116.298 582.088H113.577V579.366H116.298M108.135 571.203H105.414V568.482H108.135M108.135 576.645H105.414V573.924H108.135M108.135 582.088H105.414V579.366H108.135M119.02 571.203V563.039L114.938 558.958L110.856 563.039V565.76H102.692V584.809H127.183V571.203H119.02Z" fill="black"/>
<path d="M127.187 569.989H137.422L139.981 565.336H143.238L146.029 578.596H155.567V591.856H127.187V569.989Z" fill="#FFC700" fill-opacity="0.87"/>
<g filter="url(#filter2_d_75_2)">
<path d="M127.187 569.989H137.422L139.981 565.336H143.238L146.029 578.596H155.567V591.856H127.187V569.989Z" fill="#FFC700" fill-opacity="0.87" shape-rendering="crispEdges"/>
</g>
<path d="M152.735 582.667H149.556V579.488H152.735M152.735 589.025H149.556V585.846H152.735M143.198 569.95H140.019V566.771H143.198M143.198 576.309H140.019V573.129H143.198M143.198 582.667H140.019V579.488H143.198M143.198 589.025H140.019V585.846H143.198M133.66 576.309H130.481V573.129H133.66M133.66 582.667H130.481V579.488H133.66M133.66 589.025H130.481V585.846H133.66M146.377 576.309V566.771L141.608 562.002L136.839 566.771V569.95H127.302V592.205H155.915V576.309H146.377Z" fill="black"/>
<path d="M81.75 570.477H89.47L91.4 566.968H93.8564L95.9618 576.969H103.155V586.97H81.75V570.477Z" fill="#FFC700" fill-opacity="0.87"/>
<g filter="url(#filter3_d_75_2)">
<path d="M81.75 570.477H89.47L91.4 566.968H93.8564L95.9618 576.969H103.155V586.97H81.75V570.477Z" fill="#FFC700" fill-opacity="0.87" shape-rendering="crispEdges"/>
</g>
<path d="M101.022 580.04H98.624V577.642H101.022M101.022 584.835H98.624V582.437H101.022M93.8283 570.448H91.4304V568.05H93.8283M93.8283 575.244H91.4304V572.846H93.8283M93.8283 580.04H91.4304V577.642H93.8283M93.8283 584.835H91.4304V582.437H93.8283M86.6346 575.244H84.2367V572.846H86.6346M86.6346 580.04H84.2367V577.642H86.6346M86.6346 584.835H84.2367V582.437H86.6346M96.2261 575.244V568.05L92.6293 564.453L89.0325 568.05V570.448H81.8389V587.233H103.42V575.244H96.2261Z" fill="black"/>
<g clip-path="url(#clip0_75_2)">
<path d="M30.6409 578.554L24.8988 571.441H27.1003C27.7479 571.441 28.3208 571.048 28.5939 570.414C28.867 569.782 28.7772 569.057 28.3582 568.523L22.7426 561.378H24.819C25.4731 561.378 26.0625 560.958 26.3183 560.308C26.5713 559.669 26.452 558.926 26.0136 558.415L18.0879 549.18C17.6545 548.673 16.8459 548.673 16.4118 549.18L8.48544 558.415C8.047 558.926 7.92841 559.669 8.18069 560.308C8.43656 560.958 9.02666 561.378 9.68072 561.378H11.7572L6.14088 568.525C5.72328 569.058 5.63344 569.782 5.90584 570.415C6.17897 571.048 6.75109 571.441 7.39941 571.441H9.60094L3.85884 578.554C3.42759 579.088 3.32984 579.819 3.60297 580.462C3.8725 581.094 4.46547 581.503 5.11306 581.503H14.9499V583.425L12.7728 587.23C12.3904 588.067 12.9467 589.051 13.8013 589.051H20.6984C21.553 589.051 22.1093 588.067 21.727 587.23L19.5499 583.425V581.503H29.3867C30.0343 581.503 30.6273 581.094 30.8968 580.462C31.1699 579.819 31.0722 579.088 30.6409 578.554Z" fill="black"/>
<g clip-path="url(#clip1_75_2)">
<path d="M35.2998 579.582L32.4596 576.025H33.5485C33.8688 576.025 34.1522 575.829 34.2873 575.512C34.4224 575.196 34.3779 574.834 34.1707 574.567L31.393 570.994H32.4201C32.7436 570.994 33.0352 570.784 33.1617 570.459C33.2869 570.14 33.2278 569.768 33.011 569.513L29.0908 564.895C28.8764 564.641 28.4764 564.641 28.2617 564.895L24.3411 569.513C24.1243 569.768 24.0656 570.14 24.1904 570.459C24.317 570.784 24.6088 570.994 24.9324 570.994H25.9594L23.1815 574.568C22.9749 574.834 22.9305 575.196 23.0652 575.512C23.2003 575.829 23.4833 576.025 23.804 576.025H24.8929L22.0527 579.582C21.8394 579.849 21.7911 580.215 21.9262 580.536C22.0595 580.852 22.3528 581.057 22.6731 581.057H27.5386V582.018L26.4618 583.92C26.2726 584.338 26.5478 584.831 26.9705 584.831H30.382C30.8047 584.831 31.0798 584.338 30.8907 583.92L29.8139 582.018V581.057H34.6794C34.9997 581.057 35.293 580.852 35.4263 580.536C35.5614 580.215 35.5131 579.849 35.2998 579.582Z" fill="black"/>
</g>
</g>
<g clip-path="url(#clip2_75_2)">
<path d="M43.4444 577.553L39.8556 572.878H41.2315C41.6363 572.878 41.9943 572.62 42.165 572.203C42.3357 571.788 42.2796 571.312 42.0177 570.961L38.5079 566.266H39.8057C40.2145 566.266 40.5829 565.989 40.7428 565.562C40.9009 565.142 40.8263 564.654 40.5523 564.318L35.5988 558.249C35.3279 557.916 34.8225 557.916 34.5512 558.249L29.5972 564.318C29.3232 564.654 29.2491 565.142 29.4068 565.562C29.5667 565.989 29.9355 566.266 30.3443 566.266H31.6421L28.1319 570.962C27.8709 571.312 27.8147 571.788 27.985 572.204C28.1557 572.62 28.5133 572.878 28.9185 572.878H30.2944L26.7056 577.553C26.4361 577.904 26.375 578.384 26.5457 578.806C26.7141 579.222 27.0847 579.491 27.4895 579.491H33.6375V580.754L32.2768 583.254C32.0378 583.804 32.3855 584.45 32.9196 584.45H37.2303C37.7645 584.45 38.1122 583.804 37.8732 583.254L36.5125 580.754V579.491H42.6605C43.0652 579.491 43.4359 579.222 43.6043 578.806C43.775 578.384 43.7139 577.904 43.4444 577.553Z" fill="black"/>
</g>
<g clip-path="url(#clip3_75_2)">
<path d="M64.0793 568.85L63.7177 568.962C63.9288 569.789 64.2185 570.224 64.5487 570.451C64.8834 570.684 65.2697 570.703 65.692 570.661C66.2535 570.605 66.8869 570.424 67.5338 570.689C67.709 570.775 67.8931 570.885 68.0886 571.031C68.1919 570.996 68.2817 570.952 68.3716 570.92C68.3716 570.92 68.4434 570.666 68.3266 570.343C68.2256 570.059 67.974 569.7 67.3384 569.448L67.2126 569.834C67.6034 569.992 67.8145 570.187 67.9223 570.372C67.9381 570.399 67.9493 570.424 67.9605 570.449C67.8752 570.399 67.7876 570.355 67.7022 570.32C67.0711 569.999 66.5657 569.979 66.1614 569.93C65.9458 569.905 65.7638 569.876 65.6134 569.757C65.4629 569.636 65.3506 569.426 65.254 569.06L64.8946 569.176C65.0226 569.661 65.1933 569.928 65.3932 570.088C65.4831 570.16 65.5797 570.212 65.683 570.249C65.3281 570.27 64.9934 570.265 64.7464 570.103C64.4723 569.913 64.2545 569.537 64.0793 568.85ZM66.0895 568.939C66.0693 569.216 66.1142 569.441 66.1884 569.624C66.3613 569.647 66.5118 569.651 66.669 569.68C66.5477 569.532 66.4399 569.305 66.4624 568.969L66.0895 568.939ZM68.7916 569.273L68.5468 569.582C68.7309 569.76 68.7826 569.972 68.7826 570.152C68.6838 570.056 68.5939 569.991 68.4884 569.933C68.6501 570.141 68.6725 570.51 68.6838 570.708L69.0319 570.75C69.0319 570.75 69.4272 569.881 68.7916 569.273ZM66.979 570.986C66.5859 571.036 66.377 570.922 66.2512 571.327C66.2512 571.327 66.6735 572.017 67.7988 571.999C67.7359 572.281 67.7651 572.488 67.7651 572.738C67.7651 573.568 67.1587 574.292 65.8222 574.292C65.1439 574.292 64.3196 574.425 63.6907 574.799C63.2437 575.063 62.894 575.446 62.7393 575.977L62.9147 576.246L63.2505 576.251V577.776L62.8408 578.475L62.9585 580.501H63.3471L63.3807 578.87C63.5739 578.747 64.0164 578.426 64.3937 577.931C64.9058 577.267 65.2989 576.301 64.8362 575.105L65.1821 574.944C65.5617 575.925 65.4292 576.775 65.0968 577.46C65.7324 577.437 66.2782 577.393 66.7409 577.309L66.6353 575.918L67.0082 575.883L67.3631 580.501H67.7494L67.8145 577.494C68.1222 577.351 68.823 576.825 69.151 574.996C69.1914 574.774 69.2138 574.586 69.2251 574.425C69.2767 574.018 69.3059 573.558 69.3149 573.034L68.7646 572.844H70.4559L70.6199 572.437C70.4604 572.444 70.2695 572.353 70.2695 572.353L70.3077 572.155H70.6626L68.7422 571.06C68.5288 571.149 68.3042 571.265 68.147 571.406C68.0212 571.307 67.5854 570.999 66.979 570.986ZM69.124 576.585C68.9061 577.032 68.6725 577.366 68.4704 577.603L69.5283 578.117L69.0589 579.29L69.3958 579.463L70.146 577.862L69.151 576.938C69.142 576.881 69.1307 576.77 69.124 576.585ZM65.6695 577.84C65.4157 577.857 65.1462 577.87 64.8587 577.875C64.6633 578.159 64.4387 578.433 64.2051 578.645L64.4005 580.498H64.7846V578.893C64.9485 578.744 65.3438 578.366 65.6695 577.84Z" fill="black"/>
</g>
<g clip-path="url(#clip4_75_2)">
<path d="M71.2914 544.746L70.8936 544.867C71.1259 545.77 71.4446 546.244 71.8078 546.492C72.1759 546.746 72.6009 546.767 73.0654 546.722C73.683 546.66 74.3798 546.463 75.0913 546.751C75.2841 546.845 75.4867 546.965 75.7016 547.124C75.8153 547.087 75.9141 547.038 76.0129 547.003C76.0129 547.003 76.092 546.727 75.9635 546.374C75.8523 546.064 75.5756 545.673 74.8764 545.398L74.738 545.819C75.1679 545.991 75.4002 546.204 75.5188 546.406C75.5361 546.436 75.5484 546.463 75.5608 546.49C75.4669 546.436 75.3705 546.387 75.2766 546.35C74.5824 545.999 74.0265 545.978 73.5817 545.924C73.3446 545.897 73.1444 545.864 72.9789 545.735C72.8134 545.603 72.6898 545.374 72.5836 544.975L72.1883 545.102C72.3291 545.63 72.5169 545.921 72.7368 546.096C72.8356 546.174 72.9418 546.231 73.0555 546.271C72.6651 546.294 72.297 546.289 72.0252 546.112C71.7238 545.905 71.4841 545.495 71.2914 544.746ZM73.5027 544.843C73.4804 545.145 73.5299 545.39 73.6114 545.589C73.8016 545.615 73.9672 545.619 74.1401 545.651C74.0067 545.49 73.8881 545.242 73.9128 544.875L73.5027 544.843ZM76.4749 545.207L76.2056 545.544C76.4082 545.738 76.4651 545.97 76.4651 546.166C76.3563 546.061 76.2575 545.99 76.1414 545.926C76.3193 546.153 76.344 546.556 76.3563 546.773L76.7393 546.819C76.7393 546.819 77.1741 545.87 76.4749 545.207ZM74.4811 547.076C74.0487 547.13 73.8189 547.006 73.6806 547.448C73.6806 547.448 74.1451 548.2 75.3829 548.181C75.3137 548.488 75.3458 548.715 75.3458 548.987C75.3458 549.893 74.6787 550.682 73.2087 550.682C72.4625 550.682 71.5558 550.828 70.864 551.235C70.3723 551.523 69.9876 551.941 69.8174 552.52L70.0103 552.814L70.3797 552.82V554.483L69.9291 555.245L70.0585 557.456H70.486L70.523 555.677C70.7355 555.542 71.2222 555.192 71.6373 554.652C72.2006 553.927 72.633 552.874 72.124 551.569L72.5045 551.394C72.9221 552.464 72.7763 553.391 72.4106 554.138C73.1098 554.113 73.7102 554.065 74.2192 553.973L74.1031 552.456L74.5132 552.418L74.9036 557.456H75.3285L75.4002 554.175C75.7387 554.019 76.5095 553.445 76.8703 551.45C76.9147 551.208 76.9394 551.003 76.9518 550.828C77.0086 550.383 77.0407 549.882 77.0506 549.31L76.4453 549.103H78.3057L78.4861 548.658C78.3107 548.666 78.1007 548.566 78.1007 548.566L78.1427 548.351H78.533L76.4206 547.157C76.1859 547.254 75.9388 547.381 75.7658 547.534C75.6275 547.426 75.1482 547.089 74.4811 547.076ZM76.8406 553.184C76.6009 553.671 76.344 554.035 76.1216 554.294L77.2853 554.855L76.769 556.135L77.1396 556.324L77.9648 554.577L76.8703 553.569C76.8604 553.507 76.848 553.386 76.8406 553.184ZM73.0407 554.553C72.7615 554.572 72.465 554.585 72.1487 554.59C71.9338 554.9 71.6867 555.2 71.4298 555.431L71.6447 557.453H72.0672V555.701C72.2476 555.539 72.6824 555.127 73.0407 554.553Z" fill="black"/>
</g>
<g clip-path="url(#clip5_75_2)">
<path d="M298.155 599.991L297.721 600.123C297.974 601.101 298.322 601.615 298.718 601.883C299.12 602.158 299.583 602.181 300.09 602.132C300.764 602.064 301.524 601.851 302.3 602.164C302.511 602.266 302.732 602.396 302.966 602.568C303.09 602.527 303.198 602.475 303.306 602.437C303.306 602.437 303.392 602.137 303.252 601.755C303.13 601.419 302.829 600.996 302.066 600.698L301.915 601.153C302.384 601.34 302.637 601.571 302.767 601.79C302.785 601.822 302.799 601.851 302.812 601.88C302.71 601.822 302.605 601.769 302.502 601.729C301.745 601.349 301.139 601.326 300.653 601.267C300.395 601.238 300.176 601.203 299.996 601.063C299.815 600.92 299.68 600.672 299.565 600.239L299.133 600.377C299.287 600.949 299.492 601.264 299.732 601.454C299.839 601.539 299.955 601.6 300.079 601.644C299.653 601.669 299.252 601.663 298.955 601.472C298.627 601.247 298.365 600.803 298.155 599.991ZM300.567 600.096C300.543 600.423 300.597 600.689 300.686 600.905C300.893 600.933 301.074 600.937 301.263 600.972C301.117 600.797 300.988 600.528 301.015 600.131L300.567 600.096ZM303.81 600.491L303.516 600.856C303.737 601.066 303.799 601.317 303.799 601.53C303.68 601.416 303.572 601.339 303.446 601.27C303.64 601.516 303.667 601.952 303.68 602.187L304.098 602.237C304.098 602.237 304.572 601.209 303.81 600.491ZM301.635 602.515C301.163 602.574 300.912 602.44 300.761 602.918C300.761 602.918 301.268 603.733 302.618 603.713C302.543 604.046 302.578 604.291 302.578 604.586C302.578 605.567 301.85 606.422 300.246 606.422C299.432 606.422 298.443 606.58 297.689 607.021C297.152 607.333 296.733 607.786 296.547 608.414L296.757 608.732L297.16 608.738V610.539L296.669 611.366L296.81 613.76H297.276L297.317 611.833C297.548 611.687 298.079 611.307 298.532 610.723C299.147 609.938 299.618 608.796 299.063 607.383L299.478 607.193C299.934 608.352 299.775 609.357 299.376 610.166C300.139 610.139 300.794 610.087 301.349 609.988L301.222 608.344L301.67 608.303L302.095 613.76H302.559L302.637 610.207C303.006 610.037 303.847 609.415 304.241 607.255C304.289 606.992 304.316 606.77 304.33 606.58C304.392 606.098 304.427 605.555 304.438 604.936L303.777 604.711H305.807L306.004 604.229C305.812 604.238 305.583 604.13 305.583 604.13L305.629 603.897H306.055L303.75 602.603C303.494 602.708 303.225 602.845 303.036 603.012C302.885 602.895 302.362 602.53 301.635 602.515ZM304.209 609.132C303.947 609.661 303.667 610.055 303.424 610.335L304.694 610.942L304.13 612.329L304.535 612.534L305.435 610.642L304.241 609.55C304.23 609.482 304.217 609.351 304.209 609.132ZM300.063 610.615C299.759 610.636 299.435 610.65 299.09 610.656C298.856 610.992 298.586 611.316 298.306 611.567L298.54 613.757H299.001V611.859C299.198 611.684 299.672 611.237 300.063 610.615Z" fill="black"/>
</g>
<path d="M306.102 604.364L305.813 604.445C305.982 605.047 306.214 605.363 306.478 605.528C306.746 605.697 307.055 605.711 307.392 605.681C307.842 605.64 308.348 605.508 308.866 605.701C309.006 605.764 309.153 605.843 309.31 605.95C309.392 605.924 309.464 605.892 309.536 605.869C309.536 605.869 309.594 605.684 309.5 605.449C309.419 605.242 309.218 604.982 308.71 604.799L308.609 605.079C308.922 605.194 309.09 605.336 309.177 605.471C309.189 605.49 309.198 605.508 309.207 605.526C309.139 605.49 309.069 605.458 309.001 605.433C308.496 605.199 308.091 605.185 307.768 605.149C307.595 605.131 307.45 605.109 307.33 605.023C307.209 604.935 307.119 604.782 307.042 604.517L306.755 604.601C306.857 604.953 306.994 605.147 307.153 605.264C307.225 605.316 307.303 605.354 307.385 605.381C307.101 605.396 306.834 605.393 306.636 605.275C306.417 605.136 306.242 604.863 306.102 604.364ZM307.71 604.428C307.694 604.63 307.73 604.793 307.79 604.926C307.928 604.943 308.048 604.946 308.174 604.968C308.077 604.86 307.991 604.694 308.009 604.45L307.71 604.428ZM309.872 604.671L309.676 604.896C309.824 605.025 309.865 605.18 309.865 605.311C309.786 605.24 309.714 605.193 309.63 605.151C309.759 605.302 309.777 605.571 309.786 605.715L310.064 605.746C310.064 605.746 310.381 605.113 309.872 604.671ZM308.422 605.917C308.108 605.953 307.94 605.87 307.84 606.165C307.84 606.165 308.178 606.666 309.078 606.654C309.028 606.859 309.051 607.01 309.051 607.191C309.051 607.795 308.566 608.321 307.497 608.321C306.954 608.321 306.295 608.418 305.791 608.69C305.434 608.882 305.154 609.161 305.03 609.547L305.171 609.743L305.439 609.746V610.855L305.111 611.363L305.206 612.837H305.517L305.543 611.651C305.698 611.561 306.052 611.328 306.354 610.968C306.764 610.485 307.078 609.782 306.708 608.913L306.985 608.796C307.288 609.509 307.182 610.127 306.916 610.625C307.425 610.609 307.861 610.576 308.232 610.515L308.147 609.504L308.445 609.479L308.729 612.837H309.038L309.09 610.65C309.337 610.546 309.897 610.163 310.16 608.833C310.192 608.672 310.21 608.535 310.219 608.418C310.26 608.122 310.284 607.788 310.291 607.407L309.851 607.268H311.204L311.335 606.972C311.207 606.977 311.054 606.911 311.054 606.911L311.085 606.767H311.369L309.833 605.971C309.662 606.036 309.482 606.12 309.356 606.223C309.256 606.151 308.907 605.926 308.422 605.917ZM310.138 609.989C309.964 610.314 309.777 610.557 309.615 610.729L310.462 611.103L310.086 611.956L310.355 612.082L310.956 610.918L310.16 610.246C310.152 610.205 310.143 610.124 310.138 609.989ZM307.374 610.902C307.171 610.914 306.956 610.923 306.726 610.927C306.569 611.133 306.39 611.333 306.203 611.487L306.359 612.835H306.667V611.667C306.798 611.559 307.114 611.284 307.374 610.902Z" fill="black"/>
<g clip-path="url(#clip6_75_2)">
<path d="M291.99 606.573L291.737 606.634C291.884 607.085 292.087 607.322 292.318 607.446C292.553 607.573 292.823 607.584 293.119 607.561C293.512 607.53 293.955 607.431 294.408 607.576C294.531 607.623 294.659 607.683 294.796 607.762C294.869 607.743 294.931 607.719 294.994 607.702C294.994 607.702 295.045 607.564 294.963 607.387C294.892 607.232 294.716 607.037 294.271 606.899L294.183 607.109C294.457 607.196 294.604 607.302 294.68 607.403C294.691 607.418 294.699 607.431 294.707 607.445C294.647 607.418 294.586 607.394 294.526 607.375C294.084 607.2 293.73 607.189 293.447 607.162C293.296 607.148 293.169 607.132 293.064 607.068C292.958 607.002 292.88 606.887 292.812 606.688L292.561 606.751C292.65 607.015 292.77 607.161 292.91 607.248C292.972 607.287 293.04 607.316 293.112 607.336C292.864 607.347 292.63 607.345 292.457 607.256C292.265 607.152 292.112 606.948 291.99 606.573ZM293.397 606.622C293.383 606.772 293.414 606.895 293.466 606.995C293.587 607.008 293.693 607.01 293.803 607.026C293.718 606.945 293.642 606.821 293.658 606.638L293.397 606.622ZM295.288 606.803L295.117 606.972C295.246 607.069 295.282 607.185 295.282 607.283C295.213 607.23 295.15 607.195 295.076 607.163C295.189 607.277 295.205 607.478 295.213 607.586L295.457 607.609C295.457 607.609 295.733 607.135 295.288 606.803ZM294.02 607.738C293.744 607.765 293.598 607.703 293.51 607.924C293.51 607.924 293.806 608.3 294.593 608.291C294.549 608.444 294.57 608.557 294.57 608.694C294.57 609.146 294.145 609.541 293.21 609.541C292.735 609.541 292.158 609.614 291.718 609.817C291.405 609.962 291.16 610.171 291.052 610.46L291.175 610.607L291.41 610.61V611.441L291.123 611.823L291.205 612.928H291.477L291.501 612.038C291.636 611.971 291.946 611.796 292.21 611.526C292.568 611.164 292.844 610.637 292.52 609.985L292.762 609.897C293.027 610.432 292.935 610.896 292.702 611.269C293.147 611.257 293.529 611.233 293.853 611.187L293.779 610.428L294.04 610.409L294.288 612.928H294.559L294.604 611.288C294.82 611.21 295.31 610.923 295.54 609.925C295.568 609.804 295.584 609.702 295.592 609.614C295.628 609.392 295.648 609.141 295.655 608.855L295.27 608.751H296.453L296.568 608.529C296.457 608.533 296.323 608.483 296.323 608.483L296.35 608.375H296.598L295.254 607.778C295.104 607.827 294.947 607.89 294.837 607.967C294.749 607.913 294.444 607.745 294.02 607.738ZM295.521 610.792C295.369 611.036 295.205 611.218 295.064 611.347L295.804 611.627L295.475 612.268L295.711 612.362L296.236 611.489L295.54 610.985C295.534 610.954 295.526 610.893 295.521 610.792ZM293.103 611.476C292.925 611.486 292.737 611.493 292.535 611.495C292.399 611.65 292.241 611.8 292.078 611.916L292.215 612.927H292.483V612.051C292.598 611.97 292.875 611.763 293.103 611.476Z" fill="black"/>
</g>
<g clip-path="url(#clip7_75_2)">
<path d="M57.1928 576.353L52.8863 570.865H54.5374C55.0231 570.865 55.4527 570.562 55.6576 570.073C55.8624 569.586 55.795 569.027 55.4808 568.615L51.2691 563.103H52.8264C53.317 563.103 53.759 562.779 53.9509 562.278C54.1407 561.785 54.0512 561.211 53.7224 560.817L47.7781 553.693C47.4531 553.302 46.8466 553.302 46.521 553.693L40.5762 560.817C40.2474 561.211 40.1585 561.785 40.3477 562.278C40.5396 562.779 40.9822 563.103 41.4727 563.103H43.03L38.8178 568.616C38.5046 569.027 38.4372 569.586 38.6415 570.074C38.8464 570.562 39.2755 570.865 39.7617 570.865H41.4129L37.1063 576.353C36.7829 576.765 36.7095 577.329 36.9144 577.824C37.1165 578.313 37.5613 578.628 38.047 578.628H45.4246V580.111L43.7917 583.046C43.505 583.691 43.9222 584.45 44.5631 584.45H49.736C50.3769 584.45 50.7942 583.691 50.5074 583.046L48.8746 580.111V578.628H56.2522C56.7379 578.628 57.1826 578.313 57.3847 577.824C57.5896 577.329 57.5163 576.765 57.1928 576.353Z" fill="black"/>
</g>
<g clip-path="url(#clip8_75_2)">
<path d="M413.591 584.604L407.849 577.694H410.051C410.698 577.694 411.271 577.312 411.544 576.696C411.817 576.082 411.727 575.378 411.308 574.86L405.693 567.919H407.769C408.423 567.919 409.013 567.51 409.269 566.879C409.522 566.259 409.402 565.536 408.964 565.041L401.038 556.069C400.605 555.576 399.796 555.576 399.362 556.069L391.436 565.041C390.997 565.536 390.879 566.259 391.131 566.879C391.387 567.51 391.977 567.919 392.631 567.919H394.707L389.091 574.861C388.673 575.379 388.584 576.082 388.856 576.697C389.129 577.312 389.701 577.694 390.35 577.694H392.551L386.809 584.604C386.378 585.123 386.28 585.833 386.553 586.457C386.823 587.072 387.416 587.469 388.063 587.469H397.9V589.336L395.723 593.032C395.341 593.845 395.897 594.801 396.752 594.801H403.649C404.503 594.801 405.06 593.845 404.677 593.032L402.5 589.336V587.469H412.337C412.984 587.469 413.577 587.072 413.847 586.457C414.12 585.833 414.022 585.123 413.591 584.604Z" fill="black"/>
</g>
<g clip-path="url(#clip9_75_2)">
<path d="M394.28 593.452L391.887 590.2H392.804C393.074 590.2 393.313 590.02 393.427 589.731C393.541 589.442 393.503 589.11 393.329 588.866L390.989 585.6H391.854C392.126 585.6 392.372 585.408 392.479 585.111C392.584 584.819 392.534 584.479 392.352 584.245L389.049 580.023C388.869 579.792 388.532 579.792 388.351 580.023L385.048 584.245C384.866 584.479 384.816 584.819 384.921 585.111C385.028 585.408 385.274 585.6 385.546 585.6H386.411L384.071 588.867C383.897 589.111 383.86 589.442 383.973 589.731C384.087 590.02 384.326 590.2 384.596 590.2H385.513L383.12 593.452C382.941 593.696 382.9 594.03 383.014 594.324C383.126 594.613 383.373 594.8 383.643 594.8H387.742V595.679L386.835 597.418C386.675 597.8 386.907 598.25 387.263 598.25H390.137C390.493 598.25 390.725 597.8 390.566 597.418L389.658 595.679V594.8H393.757C394.027 594.8 394.274 594.613 394.386 594.324C394.5 594.03 394.459 593.696 394.28 593.452Z" fill="black"/>
</g>
<g clip-path="url(#clip10_75_2)">
<path d="M384.96 596.803L380.893 591.925H382.452C382.911 591.925 383.317 591.655 383.51 591.221C383.704 590.787 383.64 590.29 383.343 589.924L379.366 585.025H380.836C381.3 585.025 381.717 584.736 381.898 584.291C382.078 583.853 381.993 583.343 381.683 582.993L376.069 576.66C375.762 576.312 375.189 576.312 374.881 576.66L369.267 582.993C368.956 583.343 368.872 583.853 369.051 584.291C369.232 584.736 369.65 585.025 370.113 585.025H371.584L367.606 589.925C367.31 590.291 367.247 590.787 367.44 591.221C367.633 591.655 368.038 591.925 368.498 591.925H370.057L365.99 596.803C365.684 597.169 365.615 597.67 365.808 598.111C365.999 598.545 366.419 598.825 366.878 598.825H373.846V600.143L372.304 602.752C372.033 603.325 372.427 604 373.032 604H377.918C378.523 604 378.917 603.325 378.646 602.752L377.104 600.143V598.825H384.072C384.531 598.825 384.951 598.545 385.142 598.111C385.335 597.67 385.266 597.169 384.96 596.803Z" fill="black"/>
</g>
<path d="M0 587.081C164.881 551.797 250.125 661.057 414 587.081V639.65H0L0 587.081Z" fill="#231C3B"/>
<path d="M57.3902 549.164L57.137 549.245C57.2848 549.847 57.4876 550.163 57.7188 550.328C57.953 550.497 58.2235 550.511 58.519 550.481C58.9121 550.44 59.3555 550.308 59.8083 550.501C59.9309 550.564 60.0599 550.644 60.1967 550.75C60.269 550.724 60.3319 550.692 60.3948 550.669C60.3948 550.669 60.4451 550.485 60.3633 550.249C60.2926 550.042 60.1165 549.782 59.6715 549.599L59.5835 549.879C59.857 549.994 60.0048 550.136 60.0803 550.271C60.0913 550.29 60.0992 550.308 60.107 550.326C60.0473 550.29 59.986 550.258 59.9262 550.233C59.4844 549.999 59.1307 549.985 58.8477 549.949C58.6967 549.931 58.5694 549.91 58.464 549.823C58.3587 549.735 58.2801 549.582 58.2125 549.317L57.9609 549.401C58.0505 549.753 58.17 549.947 58.3099 550.064C58.3728 550.116 58.4404 550.154 58.5128 550.181C58.2643 550.196 58.0301 550.193 57.8571 550.075C57.6653 549.936 57.5128 549.663 57.3902 549.164ZM58.7973 549.229C58.7832 549.43 58.8146 549.593 58.8665 549.726C58.9876 549.743 59.0929 549.746 59.203 549.768C59.1181 549.66 59.0426 549.494 59.0583 549.25L58.7973 549.229ZM60.6888 549.471L60.5174 549.696C60.6463 549.825 60.6825 549.98 60.6825 550.111C60.6133 550.04 60.5504 549.993 60.4765 549.951C60.5897 550.102 60.6054 550.371 60.6133 550.515L60.857 550.546C60.857 550.546 61.1337 549.913 60.6888 549.471ZM59.42 550.717C59.1448 550.753 58.9986 550.67 58.9105 550.965C58.9105 550.965 59.2061 551.467 59.9938 551.454C59.9498 551.659 59.9702 551.81 59.9702 551.991C59.9702 552.595 59.5457 553.121 58.6102 553.121C58.1354 553.121 57.5584 553.218 57.1182 553.49C56.8053 553.682 56.5605 553.961 56.4521 554.347L56.5749 554.543L56.81 554.546V555.655L56.5232 556.164L56.6056 557.637H56.8776L56.9012 556.451C57.0364 556.361 57.3461 556.128 57.6103 555.768C57.9688 555.285 58.2439 554.582 57.92 553.713L58.1621 553.596C58.4279 554.309 58.3351 554.927 58.1024 555.425C58.5473 555.409 58.9294 555.377 59.2533 555.315L59.1794 554.304L59.4404 554.279L59.6888 557.637H59.9592L60.0048 555.45C60.2202 555.346 60.7108 554.963 60.9403 553.634C60.9686 553.472 60.9844 553.335 60.9922 553.218C61.0284 552.922 61.0488 552.588 61.0551 552.207L60.6699 552.068H61.8538L61.9686 551.772C61.857 551.777 61.7233 551.711 61.7233 551.711L61.7501 551.567H61.9985L60.6542 550.771C60.5048 550.836 60.3476 550.92 60.2375 551.023C60.1495 550.951 59.8445 550.726 59.42 550.717ZM60.9215 554.789C60.769 555.114 60.6054 555.357 60.4639 555.529L61.2045 555.903L60.8759 556.757L61.1117 556.882L61.6369 555.718L60.9403 555.046C60.934 555.005 60.9262 554.924 60.9215 554.789ZM58.5033 555.702C58.3257 555.714 58.137 555.723 57.9357 555.727C57.799 555.934 57.6417 556.133 57.4782 556.288L57.615 557.635H57.8839V556.467C57.9986 556.359 58.2753 556.084 58.5033 555.702Z" fill="black"/>
<path d="M72.7604 476.194L76.3335 472.914L71.8283 472.762L70.3313 467.69L68.8343 472.762L64.3291 472.914L67.9022 476.194L66.617 481.367L70.3313 478.307L74.0456 481.367L72.7604 476.194Z" fill="#FFC700"/>
<path d="M78.9602 486.708L81.2763 484.595L78.367 484.511L77.3926 481.214L76.4181 484.511L73.5088 484.595L75.8249 486.708L74.9917 490.056L77.3926 488.078L79.7934 490.056L78.9602 486.708Z" fill="#FFC700"/>
<path d="M61.1511 476.143C61.1511 486.421 68.0995 494.738 76.6862 494.738C77.4347 494.738 78.1691 494.671 78.8893 494.552C76.6155 498.728 72.6894 501.5 68.2125 501.5C61.1934 501.5 55.502 494.688 55.502 486.286C55.502 480.927 57.8181 476.227 61.3064 473.506C61.2076 474.368 61.1511 475.247 61.1511 476.143Z" fill="#FFC700" stroke="#FFC700" stroke-width="2" stroke-linecap="round" stroke-linejoin="round"/>
<g clip-path="url(#clip11_75_2)">
<path d="M89.0267 498.462C88.8671 496.728 88.2236 495.11 87.2016 493.875C86.1797 492.639 84.84 491.859 83.4021 491.662C81.9643 491.465 80.5136 491.863 79.288 492.791C78.0624 493.719 77.1346 495.121 76.6566 496.768C75.5614 496.876 74.5433 497.491 73.8154 498.484C73.0876 499.477 72.7064 500.771 72.7517 502.095C72.7969 503.419 73.2652 504.67 74.0583 505.587C74.8515 506.504 75.9081 507.016 77.007 507.015H89.065C90.0056 507.009 90.9056 506.552 91.5671 505.746C92.2286 504.94 92.5974 503.85 92.5923 502.715C92.5872 501.581 92.2087 500.496 91.54 499.698C90.8714 498.9 89.9673 498.456 89.0267 498.462Z" fill="black" fill-opacity="0.77"/>
<path d="M93.3832 499.782C93.0475 499.07 92.5942 498.448 92.0513 497.955C91.5084 497.462 90.8875 497.108 90.2269 496.915C89.7231 494.616 88.516 492.631 86.8482 491.361C85.1805 490.091 83.1758 489.63 81.2373 490.069C81.7813 488.861 82.6143 487.879 83.6279 487.25C84.6414 486.62 85.7886 486.374 86.92 486.542C88.0514 486.71 89.1147 487.285 89.9714 488.191C90.8282 489.098 91.4387 490.295 91.7235 491.626C92.547 491.575 93.3595 491.872 94.0211 492.466C94.6827 493.059 95.1522 493.912 95.3486 494.878C95.5451 495.844 95.4564 496.862 95.0977 497.757C94.739 498.653 94.1327 499.368 93.3832 499.782Z" fill="black" fill-opacity="0.77"/>
</g>
<g clip-path="url(#clip12_75_2)">
<path d="M59.9749 503.292C59.8153 501.557 59.1718 499.94 58.1499 498.704C57.1279 497.469 55.7882 496.689 54.3504 496.492C52.9125 496.295 51.4619 496.693 50.2363 497.621C49.0107 498.549 48.0828 499.951 47.6049 501.598C46.5096 501.706 45.4915 502.321 44.7637 503.314C44.0358 504.307 43.6546 505.6 43.6999 506.924C43.7452 508.248 44.2134 509.5 45.0066 510.417C45.7997 511.334 46.8564 511.846 47.9553 511.845H60.0132C60.9538 511.839 61.8539 511.382 62.5154 510.576C63.1769 509.77 63.5456 508.679 63.5406 507.545C63.5355 506.411 63.157 505.326 62.4883 504.528C61.8196 503.73 60.9155 503.286 59.9749 503.292Z" fill="black" fill-opacity="0.74"/>
<path d="M64.3315 504.612C63.9957 503.9 63.5424 503.278 62.9996 502.784C62.4567 502.291 61.8358 501.938 61.1751 501.745C60.6714 499.445 59.4643 497.461 57.7965 496.191C56.1287 494.921 54.124 494.459 52.1855 494.899C52.7296 493.691 53.5626 492.709 54.5761 492.08C55.5897 491.45 56.7368 491.204 57.8682 491.372C58.9997 491.54 60.0629 492.114 60.9197 493.021C61.7764 493.928 62.3869 495.125 62.6717 496.456C63.4953 496.405 64.3077 496.702 64.9694 497.296C65.631 497.889 66.1004 498.742 66.2969 499.708C66.4934 500.674 66.4046 501.692 66.0459 502.587C65.6872 503.483 65.081 504.198 64.3315 504.612Z" fill="black" fill-opacity="0.74"/>
</g>
<g clip-path="url(#clip13_75_2)">
<path d="M74.1129 510.376C73.9512 508.641 73.299 507.024 72.2635 505.788C71.2279 504.553 69.8703 503.773 68.4133 503.576C66.9563 503.379 65.4863 503.777 64.2444 504.705C63.0024 505.633 62.0622 507.035 61.5779 508.682C60.468 508.79 59.4364 509.405 58.6988 510.398C57.9612 511.391 57.575 512.684 57.6209 514.008C57.6667 515.332 58.1412 516.584 58.9449 517.501C59.7487 518.418 60.8194 518.93 61.9329 518.929H74.1517C75.1048 518.923 76.0169 518.466 76.6872 517.66C77.3575 516.854 77.7312 515.763 77.726 514.629C77.7209 513.495 77.3373 512.41 76.6597 511.612C75.9821 510.814 75.066 510.37 74.1129 510.376Z" fill="black" fill-opacity="0.77"/>
<path d="M78.5276 511.696C78.1874 510.984 77.728 510.362 77.1779 509.868C76.6278 509.375 75.9986 509.022 75.3292 508.829C74.8187 506.529 73.5955 504.545 71.9055 503.275C70.2155 502.005 68.1841 501.543 66.2197 501.983C66.771 500.775 67.6151 499.793 68.6422 499.163C69.6692 498.534 70.8317 498.288 71.9782 498.456C73.1247 498.624 74.2022 499.198 75.0703 500.105C75.9385 501.012 76.5571 502.209 76.8457 503.54C77.6803 503.489 78.5035 503.786 79.174 504.38C79.8444 504.973 80.3201 505.826 80.5192 506.792C80.7183 507.758 80.6284 508.776 80.2649 509.671C79.9014 510.567 79.2871 511.282 78.5276 511.696Z" fill="black" fill-opacity="0.77"/>
</g>
<defs>
<filter id="filter0_d_75_2" x="150.203" y="572.961" width="41.4307" height="39.2388" filterUnits="userSpaceOnUse" color-interpolation-filters="sRGB">
<feFlood flood-opacity="0" result="BackgroundImageFix"/>
<feColorMatrix in="SourceAlpha" type="matrix" values="0 0 0 0 0 0 0 0 0 0 0 0 0 0 0 0 0 0 127 0" result="hardAlpha"/>
<feOffset dy="4"/>
<feGaussianBlur stdDeviation="2"/>
<feComposite in2="hardAlpha" operator="out"/>
<feColorMatrix type="matrix" values="0 0 0 0 0 0 0 0 0 0 0 0 0 0 0 0 0 0 0.25 0"/>
<feBlend mode="normal" in2="BackgroundImageFix" result="effect1_dropShadow_75_2"/>
<feBlend mode="normal" in="SourceGraphic" in2="effect1_dropShadow_75_2" result="shape"/>
</filter>
<filter id="filter1_d_75_2" x="98.5928" y="561.811" width="32.292" height="30.6987" filterUnits="userSpaceOnUse" color-interpolation-filters="sRGB">
<feFlood flood-opacity="0" result="BackgroundImageFix"/>
<feColorMatrix in="SourceAlpha" type="matrix" values="0 0 0 0 0 0 0 0 0 0 0 0 0 0 0 0 0 0 127 0" result="hardAlpha"/>
<feOffset dy="4"/>
<feGaussianBlur stdDeviation="2"/>
<feComposite in2="hardAlpha" operator="out"/>
<feColorMatrix type="matrix" values="0 0 0 0 0 0 0 0 0 0 0 0 0 0 0 0 0 0 0.25 0"/>
<feBlend mode="normal" in2="BackgroundImageFix" result="effect1_dropShadow_75_2"/>
<feBlend mode="normal" in="SourceGraphic" in2="effect1_dropShadow_75_2" result="shape"/>
</filter>
<filter id="filter2_d_75_2" x="123.187" y="565.336" width="36.3799" height="34.5193" filterUnits="userSpaceOnUse" color-interpolation-filters="sRGB">
<feFlood flood-opacity="0" result="BackgroundImageFix"/>
<feColorMatrix in="SourceAlpha" type="matrix" values="0 0 0 0 0 0 0 0 0 0 0 0 0 0 0 0 0 0 127 0" result="hardAlpha"/>
<feOffset dy="4"/>
<feGaussianBlur stdDeviation="2"/>
<feComposite in2="hardAlpha" operator="out"/>
<feColorMatrix type="matrix" values="0 0 0 0 0 0 0 0 0 0 0 0 0 0 0 0 0 0 0.25 0"/>
<feBlend mode="normal" in2="BackgroundImageFix" result="effect1_dropShadow_75_2"/>
<feBlend mode="normal" in="SourceGraphic" in2="effect1_dropShadow_75_2" result="shape"/>
</filter>
<filter id="filter3_d_75_2" x="77.75" y="566.968" width="29.4053" height="28.0017" filterUnits="userSpaceOnUse" color-interpolation-filters="sRGB">
<feFlood flood-opacity="0" result="BackgroundImageFix"/>
<feColorMatrix in="SourceAlpha" type="matrix" values="0 0 0 0 0 0 0 0 0 0 0 0 0 0 0 0 0 0 127 0" result="hardAlpha"/>
<feOffset dy="4"/>
<feGaussianBlur stdDeviation="2"/>
<feComposite in2="hardAlpha" operator="out"/>
<feColorMatrix type="matrix" values="0 0 0 0 0 0 0 0 0 0 0 0 0 0 0 0 0 0 0.25 0"/>
<feBlend mode="normal" in2="BackgroundImageFix" result="effect1_dropShadow_75_2"/>
<feBlend mode="normal" in="SourceGraphic" in2="effect1_dropShadow_75_2" result="shape"/>
</filter>
<radialGradient id="paint0_radial_75_2" cx="0" cy="0" r="1" gradientUnits="userSpaceOnUse" gradientTransform="translate(28.8937 -77.5001) rotate(63.0839) scale(804.67 917.953)">
<stop offset="0.347346" stop-color="#3919BB"/>
<stop offset="0.453188" stop-color="#510FDD"/>
<stop offset="0.602644" stop-color="#8C4FEC"/>
<stop offset="0.742014" stop-color="#1CA511"/>
<stop offset="0.820874" stop-color="#70B96F"/>
<stop offset="0.884743" stop-color="#E29967"/>
<stop offset="1" stop-color="#590CE8"/>
</radialGradient>
<clipPath id="clip0_75_2">
<rect width="27.6" height="40.25" fill="white" transform="translate(3.4502 548.8)"/>
</clipPath>
<clipPath id="clip1_75_2">
<rect width="13.6516" height="20.125" fill="white" transform="translate(21.8506 564.705)"/>
</clipPath>
<clipPath id="clip2_75_2">
<rect width="17.25" height="26.45" fill="white" transform="translate(26.4502 558)"/>
</clipPath>
<clipPath id="clip3_75_2">
<rect width="11.5" height="12.65" fill="white" transform="translate(60.9502 568.35)"/>
</clipPath>
<clipPath id="clip4_75_2">
<rect width="12.65" height="13.8" fill="white" transform="translate(67.8496 544.2)"/>
</clipPath>
<clipPath id="clip5_75_2">
<rect width="13.8" height="14.95" fill="white" transform="translate(294.4 599.4)"/>
</clipPath>
<clipPath id="clip6_75_2">
<rect width="8.05" height="6.9" fill="white" transform="translate(289.8 606.3)"/>
</clipPath>
<clipPath id="clip7_75_2">
<rect width="20.7" height="31.05" fill="white" transform="translate(36.7998 553.4)"/>
</clipPath>
<clipPath id="clip8_75_2">
<rect width="27.6" height="39.1" fill="white" transform="translate(386.4 555.7)"/>
</clipPath>
<clipPath id="clip9_75_2">
<rect width="11.5" height="18.4" fill="white" transform="translate(382.95 579.85)"/>
</clipPath>
<clipPath id="clip10_75_2">
<rect width="19.55" height="27.6" fill="white" transform="translate(365.7 576.4)"/>
</clipPath>
<clipPath id="clip11_75_2">
<rect width="22.6974" height="27.37" fill="white" transform="translate(72.752 483.066)"/>
</clipPath>
<clipPath id="clip12_75_2">
<rect width="22.6974" height="27.37" fill="white" transform="translate(43.7002 487.896)"/>
</clipPath>
<clipPath id="clip13_75_2">
<rect width="23" height="27.37" fill="white" transform="translate(57.6211 494.98)"/>
</clipPath>
</defs>
</svg>
