<svg width="1440" height="1024" viewBox="0 0 1440 1024" fill="none" xmlns="http://www.w3.org/2000/svg">
<rect width="1440" height="1024" fill="url(#paint0_radial_48_2)"/>
<g clip-path="url(#clip0_48_2)">
<path d="M105.622 834.665L86.2735 812.75H93.6917C95.8738 812.75 97.804 811.539 98.7243 809.587C99.6447 807.64 99.3419 805.407 97.93 803.762L79.0079 781.75H86.0047C88.2086 781.75 90.1945 780.454 91.0567 778.454C91.9092 776.485 91.5072 774.194 90.0298 772.622L63.3238 744.17C61.8634 742.608 59.1388 742.608 57.676 744.17L30.9676 772.622C29.4902 774.194 29.0906 776.485 29.9407 778.454C30.8029 780.454 32.7912 781.75 34.9951 781.75H41.9919L23.0674 803.767C21.6603 805.409 21.3576 807.64 22.2754 809.589C23.1958 811.539 25.1236 812.75 27.3081 812.75H34.7263L15.3779 834.665C13.9248 836.31 13.5954 838.562 14.5158 840.541C15.424 842.49 17.422 843.75 19.6041 843.75H52.7499V849.671L45.414 861.393C44.1256 863.97 46.0001 867.002 48.8797 867.002H72.1201C74.9997 867.002 76.8742 863.97 75.5858 861.393L68.2499 849.671V843.75H101.396C103.578 843.75 105.576 842.49 106.484 840.541C107.404 838.562 107.075 836.31 105.622 834.665Z" fill="black"/>
<g clip-path="url(#clip1_48_2)">
<path d="M121.319 837.832L111.749 826.875H115.418C116.497 826.875 117.452 826.269 117.907 825.293C118.362 824.319 118.213 823.203 117.514 822.381L108.155 811.375H111.616C112.706 811.375 113.688 810.727 114.115 809.726C114.536 808.742 114.337 807.596 113.607 806.811L100.397 792.584C99.6749 791.803 98.3272 791.803 97.6037 792.584L84.393 806.811C83.6623 807.596 83.4647 808.742 83.8851 809.726C84.3116 810.727 85.2951 811.375 86.3852 811.375H89.846L80.4854 822.383C79.7895 823.204 79.6397 824.319 80.0937 825.294C80.5489 826.269 81.5025 826.875 82.583 826.875H86.2522L76.6821 837.832C75.9633 838.655 75.8004 839.781 76.2556 840.77C76.7048 841.745 77.6931 842.375 78.7724 842.375H95.1671V845.335L91.5386 851.196C90.9013 852.485 91.8285 854.001 93.2528 854.001H104.748C106.172 854.001 107.1 852.485 106.462 851.196L102.834 845.335V842.375H119.228C120.308 842.375 121.296 841.745 121.745 840.77C122.2 839.781 122.038 838.655 121.319 837.832Z" fill="black"/>
</g>
</g>
<g clip-path="url(#clip2_48_2)">
<path d="M783.784 898.755L772.052 879.551L777.675 880.545C779.329 880.837 780.955 880.177 781.914 878.821C782.872 877.468 782.942 875.735 782.092 874.299L770.695 855.079L775.999 856.016C777.67 856.311 779.349 855.595 780.27 854.194C781.18 852.815 781.182 851.025 780.273 849.635L763.838 824.491C762.94 823.111 760.875 822.747 759.557 823.735L735.5 841.727C734.17 842.72 733.56 844.404 733.941 846.01C734.327 847.642 735.66 848.89 737.331 849.186L742.635 850.122L725.341 864.279C724.055 865.335 723.526 866.985 723.961 868.586C724.398 870.187 725.697 871.363 727.353 871.656L732.976 872.649L715.375 886.672C714.053 887.724 713.502 889.387 713.935 891.01C714.362 892.609 715.708 893.832 717.362 894.124L742.488 898.562L741.695 903.051L734.565 910.954C733.243 912.735 734.258 915.285 736.441 915.671L754.058 918.782C756.241 919.168 758.068 917.12 757.437 914.995L753.445 905.126L754.238 900.638L779.364 905.076C781.018 905.368 782.702 904.681 783.651 903.325C784.614 901.948 784.666 900.197 783.784 898.755Z" fill="black"/>
</g>
<g clip-path="url(#clip3_48_2)">
<path d="M746.088 892.482L736.681 878.678L740.876 879.196C742.111 879.348 743.287 878.794 743.945 877.749C744.602 876.707 744.587 875.417 743.903 874.384L734.744 860.555L738.701 861.043C739.948 861.197 741.162 860.599 741.789 859.522C742.41 858.463 742.343 857.133 741.617 856.136L728.506 838.105C727.79 837.115 726.249 836.925 725.312 837.711L708.211 852.017C707.266 852.807 706.879 854.081 707.222 855.259C707.569 856.456 708.603 857.331 709.85 857.485L713.807 857.973L701.56 869.165C700.649 870 700.322 871.246 700.704 872.418C701.088 873.59 702.094 874.413 703.329 874.565L707.525 875.083L695.046 886.187C694.109 887.02 693.764 888.277 694.146 889.466C694.523 890.637 695.565 891.492 696.799 891.644L715.547 893.956L715.132 897.321L710.161 903.471C709.252 904.845 710.1 906.699 711.728 906.9L724.873 908.521C726.502 908.722 727.775 907.13 727.227 905.576L723.899 898.403L724.314 895.038L743.061 897.349C744.296 897.502 745.514 896.925 746.164 895.881C746.823 894.821 746.795 893.518 746.088 892.482Z" fill="black"/>
</g>
<g clip-path="url(#clip4_48_2)">
<path d="M723.824 875.662L708.057 851.528L715.408 852.719C717.571 853.069 719.672 852.217 720.887 850.492C722.102 848.772 722.149 846.581 721.006 844.776L705.676 820.618L712.61 821.741C714.794 822.095 716.964 821.171 718.129 819.39C719.28 817.638 719.238 815.375 718.018 813.63L695.976 782.042C694.771 780.309 692.071 779.872 690.379 781.136L659.488 804.146C657.779 805.416 657.027 807.551 657.563 809.576C658.107 811.634 659.876 813.197 662.06 813.55L668.994 814.674L646.817 832.76C645.167 834.109 644.52 836.201 645.127 838.219C645.735 840.237 647.458 841.709 649.623 842.059L656.974 843.251L634.393 861.171C632.697 862.515 632.02 864.623 632.625 866.67C633.222 868.686 635.006 870.215 637.168 870.566L670.016 875.888L669.095 881.57L660.003 891.638C658.326 893.904 659.712 897.114 662.565 897.577L685.597 901.308C688.45 901.771 690.779 899.162 689.903 896.483L684.456 884.058L685.376 878.377L718.223 883.699C720.386 884.05 722.562 883.162 723.765 881.438C724.985 879.687 725.008 877.473 723.824 875.662Z" fill="black"/>
</g>
<g clip-path="url(#clip5_48_2)">
<path d="M151.111 830.139L138.628 816H143.414C144.822 816 146.067 815.218 146.661 813.959C147.255 812.703 147.06 811.262 146.149 810.201L133.941 796H138.455C139.877 796 141.158 795.164 141.714 793.873C142.264 792.603 142.005 791.125 141.052 790.111L123.822 771.754C122.88 770.747 121.122 770.747 120.178 771.754L102.947 790.111C101.994 791.125 101.736 792.603 102.285 793.873C102.841 795.164 104.124 796 105.546 796H110.06L97.8503 810.204C96.9425 811.264 96.7472 812.703 97.3393 813.961C97.9331 815.218 99.1768 816 100.586 816H105.372L92.8893 830.139C91.9518 831.2 91.7393 832.653 92.3331 833.929C92.919 835.187 94.2081 836 95.6159 836H117V839.82L112.267 847.383C111.436 849.045 112.646 851.001 114.503 851.001H129.497C131.355 851.001 132.564 849.045 131.733 847.383L127 839.82V836H148.385C149.792 836 151.082 835.187 151.667 833.929C152.261 832.653 152.049 831.2 151.111 830.139Z" fill="black"/>
</g>
<path d="M224.611 805.542L223.384 805.885C224.1 808.437 225.083 809.778 226.203 810.478C227.338 811.194 228.648 811.255 230.08 811.126C231.984 810.951 234.132 810.395 236.326 811.21C236.92 811.476 237.545 811.815 238.207 812.265C238.558 812.158 238.863 812.021 239.167 811.922C239.167 811.922 239.411 811.141 239.015 810.143C238.672 809.267 237.819 808.163 235.663 807.386L235.237 808.574C236.562 809.062 237.278 809.663 237.644 810.235C237.697 810.318 237.735 810.395 237.773 810.471C237.484 810.318 237.187 810.181 236.897 810.075C234.757 809.084 233.043 809.024 231.672 808.871C230.941 808.795 230.324 808.704 229.813 808.338C229.303 807.965 228.922 807.317 228.595 806.19L227.376 806.548C227.81 808.041 228.389 808.864 229.067 809.359C229.372 809.58 229.699 809.74 230.049 809.854C228.846 809.919 227.711 809.905 226.873 809.404C225.944 808.818 225.205 807.66 224.611 805.542ZM231.428 805.817C231.36 806.67 231.512 807.363 231.763 807.927C232.35 808 232.86 808.01 233.393 808.102C232.982 807.645 232.616 806.944 232.693 805.908L231.428 805.817ZM240.592 806.845L239.761 807.797C240.386 808.346 240.561 809.001 240.561 809.557C240.226 809.258 239.921 809.059 239.563 808.879C240.112 809.52 240.188 810.658 240.226 811.271L241.407 811.4C241.407 811.4 242.747 808.719 240.592 806.845ZM234.445 812.128C233.112 812.28 232.403 811.929 231.977 813.179C231.977 813.179 233.409 815.304 237.225 815.251C237.012 816.119 237.111 816.759 237.111 817.528C237.111 820.088 235.054 822.319 230.522 822.319C228.221 822.319 225.426 822.731 223.293 823.881C221.777 824.696 220.591 825.877 220.066 827.514L220.661 828.345L221.8 828.36V833.06L220.411 835.215L220.81 841.461H222.128L222.242 836.434C222.897 836.053 224.398 835.063 225.677 833.539C227.414 831.49 228.747 828.512 227.178 824.825L228.351 824.33C229.638 827.354 229.189 829.975 228.061 832.085C230.217 832.016 232.068 831.879 233.637 831.62L233.279 827.331L234.544 827.225L235.747 841.461H237.057L237.278 832.191C238.322 831.749 240.698 830.127 241.81 824.49C241.948 823.805 242.024 823.226 242.062 822.731C242.237 821.474 242.336 820.057 242.366 818.442L240.5 817.856H246.236L246.792 816.599C246.251 816.622 245.604 816.34 245.604 816.34L245.733 815.73H246.937L240.424 812.356C239.7 812.63 238.939 812.988 238.406 813.422C237.979 813.118 236.501 812.166 234.445 812.128ZM241.719 829.388C240.98 830.767 240.188 831.795 239.502 832.526L243.09 834.111L241.498 837.729L242.641 838.262L245.185 833.326L241.81 830.477C241.78 830.302 241.742 829.959 241.719 829.388ZM230.004 833.258C229.143 833.311 228.229 833.349 227.254 833.364C226.591 834.24 225.83 835.086 225.037 835.741L225.7 841.454H227.003V836.503C227.559 836.046 228.899 834.88 230.004 833.258Z" fill="black"/>
<path d="M248.243 798.74L246.828 799.127C247.654 802.006 248.788 803.518 250.08 804.309C251.39 805.117 252.901 805.186 254.554 805.039C256.751 804.842 259.229 804.214 261.761 805.134C262.446 805.435 263.167 805.817 263.932 806.324C264.336 806.204 264.687 806.049 265.039 805.938C265.039 805.938 265.32 805.057 264.863 803.931C264.468 802.943 263.483 801.696 260.996 800.82L260.504 802.161C262.033 802.711 262.859 803.389 263.281 804.034C263.343 804.129 263.387 804.214 263.431 804.3C263.097 804.129 262.754 803.974 262.42 803.854C259.95 802.736 257.973 802.668 256.391 802.496C255.547 802.41 254.835 802.307 254.246 801.894C253.657 801.473 253.218 800.743 252.84 799.471L251.433 799.875C251.934 801.559 252.602 802.487 253.385 803.046C253.736 803.295 254.114 803.475 254.518 803.604C253.13 803.677 251.82 803.662 250.853 803.097C249.781 802.436 248.929 801.129 248.243 798.74ZM256.109 799.05C256.03 800.012 256.206 800.794 256.496 801.43C257.173 801.513 257.762 801.525 258.377 801.628C257.902 801.112 257.48 800.321 257.568 799.153L256.109 799.05ZM266.683 800.21L265.725 801.284C266.445 801.903 266.647 802.642 266.647 803.269C266.261 802.932 265.909 802.708 265.496 802.504C266.129 803.228 266.217 804.512 266.261 805.203L267.623 805.349C267.623 805.349 269.17 802.324 266.683 800.21ZM259.59 806.17C258.052 806.341 257.234 805.946 256.742 807.355C256.742 807.355 258.394 809.753 262.798 809.693C262.552 810.673 262.666 811.395 262.666 812.263C262.666 815.15 260.293 817.668 255.063 817.668C252.409 817.668 249.183 818.132 246.723 819.43C244.974 820.349 243.605 821.681 243 823.529L243.686 824.466L245 824.483V829.785L243.397 832.217L243.857 839.264H245.378L245.51 833.592C246.266 833.162 247.997 832.045 249.474 830.327C251.477 828.015 253.016 824.655 251.205 820.495L252.558 819.937C254.044 823.348 253.525 826.305 252.225 828.685C254.712 828.608 256.848 828.453 258.658 828.161L258.245 823.323L259.704 823.202L261.093 839.264H262.604L262.859 828.805C264.063 828.307 266.806 826.477 268.089 820.117C268.247 819.344 268.335 818.691 268.379 818.132C268.581 816.714 268.695 815.116 268.73 813.294L266.577 812.632H273.195L273.837 811.214C273.213 811.24 272.466 810.922 272.466 810.922L272.615 810.234H274.004L266.489 806.427C265.654 806.737 264.775 807.141 264.16 807.63C263.668 807.287 261.963 806.212 259.59 806.17ZM267.983 825.643C267.131 827.198 266.217 828.359 265.426 829.184L269.565 830.971L267.728 835.053L269.047 835.655L271.982 830.086L268.089 826.872C268.054 826.674 268.01 826.287 267.983 825.643ZM254.466 830.009C253.473 830.069 252.418 830.112 251.293 830.129C250.528 831.117 249.649 832.071 248.735 832.81L249.5 839.255H251.003V833.67C251.644 833.154 253.191 831.839 254.466 830.009Z" fill="black"/>
<path d="M1036.6 898.938L1035.03 899.369C1035.95 902.575 1037.21 904.259 1038.64 905.14C1040.1 906.039 1041.78 906.116 1043.62 905.953C1046.06 905.733 1048.81 905.034 1051.62 906.058C1052.38 906.393 1053.19 906.819 1054.04 907.384C1054.48 907.25 1054.87 907.078 1055.27 906.953C1055.27 906.953 1055.58 905.972 1055.07 904.718C1054.63 903.618 1053.54 902.23 1050.77 901.254L1050.23 902.747C1051.93 903.359 1052.84 904.116 1053.31 904.833C1053.38 904.939 1053.43 905.034 1053.48 905.13C1053.11 904.939 1052.73 904.766 1052.36 904.632C1049.61 903.388 1047.41 903.312 1045.66 903.12C1044.72 903.025 1043.93 902.91 1043.27 902.45C1042.62 901.981 1042.13 901.168 1041.71 899.751L1040.15 900.201C1040.71 902.077 1041.45 903.111 1042.32 903.733C1042.71 904.01 1043.13 904.211 1043.58 904.355C1042.03 904.436 1040.58 904.419 1039.5 903.79C1038.31 903.053 1037.37 901.599 1036.6 898.938ZM1045.34 899.283C1045.26 900.354 1045.45 901.225 1045.77 901.933C1046.53 902.025 1047.18 902.039 1047.86 902.154C1047.34 901.579 1046.87 900.699 1046.96 899.397L1045.34 899.283ZM1057.09 900.575L1056.03 901.771C1056.83 902.46 1057.05 903.283 1057.05 903.982C1056.62 903.606 1056.23 903.357 1055.77 903.13C1056.48 903.936 1056.57 905.365 1056.62 906.135L1058.14 906.298C1058.14 906.298 1059.86 902.929 1057.09 900.575ZM1049.21 907.212C1047.5 907.403 1046.59 906.963 1046.05 908.532C1046.05 908.532 1047.88 911.202 1052.78 911.135C1052.5 912.226 1052.63 913.03 1052.63 913.997C1052.63 917.213 1049.99 920.017 1044.18 920.017C1041.23 920.017 1037.65 920.533 1034.91 921.979C1032.97 923.003 1031.45 924.486 1030.78 926.544L1031.54 927.587L1033 927.606V933.511L1031.22 936.219L1031.73 944.067H1033.42L1033.57 937.75C1034.41 937.272 1036.33 936.028 1037.97 934.114C1040.2 931.539 1041.91 927.797 1039.89 923.165L1041.4 922.543C1043.05 926.343 1042.47 929.635 1041.03 932.286C1043.79 932.2 1046.16 932.027 1048.18 931.702L1047.72 926.314L1049.34 926.18L1050.88 944.067H1052.56L1052.84 932.42C1054.18 931.865 1057.23 929.826 1058.65 922.744C1058.83 921.883 1058.93 921.155 1058.98 920.533C1059.2 918.954 1059.33 917.174 1059.37 915.145L1056.97 914.408H1064.33L1065.04 912.829C1064.35 912.858 1063.52 912.504 1063.52 912.504L1063.68 911.738H1065.23L1056.88 907.499C1055.95 907.843 1054.97 908.293 1054.29 908.838C1053.74 908.456 1051.85 907.259 1049.21 907.212ZM1058.54 928.898C1057.59 930.63 1056.57 931.922 1055.7 932.841L1060.29 934.831L1058.25 939.377L1059.72 940.047L1062.98 933.846L1058.65 930.266C1058.62 930.046 1058.57 929.616 1058.54 928.898ZM1043.52 933.76C1042.41 933.827 1041.24 933.874 1039.99 933.894C1039.14 934.994 1038.17 936.056 1037.15 936.879L1038 944.057H1039.67V937.837C1040.38 937.262 1042.1 935.798 1043.52 933.76Z" fill="black"/>
<path d="M1065.25 912.305L1064.18 912.595C1064.81 914.754 1065.66 915.889 1066.64 916.482C1067.63 917.088 1068.77 917.139 1070.02 917.03C1071.68 916.881 1073.55 916.411 1075.46 917.1C1075.98 917.326 1076.53 917.613 1077.1 917.993C1077.41 917.903 1077.67 917.787 1077.94 917.703C1077.94 917.703 1078.15 917.042 1077.81 916.198C1077.51 915.457 1076.77 914.522 1074.89 913.865L1074.51 914.87C1075.67 915.283 1076.29 915.792 1076.61 916.275C1076.66 916.346 1076.69 916.411 1076.73 916.475C1076.47 916.346 1076.21 916.23 1075.96 916.14C1074.1 915.302 1072.6 915.251 1071.41 915.122C1070.77 915.057 1070.23 914.98 1069.79 914.671C1069.34 914.355 1069.01 913.807 1068.72 912.853L1067.66 913.156C1068.04 914.419 1068.54 915.115 1069.14 915.534C1069.4 915.721 1069.69 915.857 1069.99 915.953C1068.94 916.008 1067.95 915.996 1067.22 915.573C1066.41 915.077 1065.77 914.097 1065.25 912.305ZM1071.19 912.537C1071.13 913.259 1071.27 913.846 1071.49 914.323C1072 914.384 1072.44 914.393 1072.91 914.471C1072.55 914.084 1072.23 913.491 1072.3 912.615L1071.19 912.537ZM1079.18 913.407L1078.46 914.213C1079 914.677 1079.16 915.231 1079.16 915.702C1078.86 915.449 1078.6 915.281 1078.29 915.128C1078.76 915.671 1078.83 916.634 1078.86 917.152L1079.89 917.262C1079.89 917.262 1081.06 914.993 1079.18 913.407ZM1073.82 917.877C1072.66 918.006 1072.04 917.71 1071.67 918.767C1071.67 918.767 1072.92 920.565 1076.25 920.52C1076.06 921.254 1076.15 921.796 1076.15 922.447C1076.15 924.613 1074.35 926.501 1070.4 926.501C1068.4 926.501 1065.96 926.849 1064.1 927.822C1062.78 928.512 1061.75 929.511 1061.29 930.897L1061.81 931.599L1062.8 931.612V935.589L1061.59 937.413L1061.94 942.698H1063.09L1063.19 938.444C1063.76 938.122 1065.06 937.284 1066.18 935.995C1067.69 934.261 1068.86 931.741 1067.49 928.621L1068.51 928.203C1069.63 930.761 1069.24 932.979 1068.26 934.764C1070.14 934.706 1071.75 934.59 1073.12 934.371L1072.81 930.742L1073.91 930.652L1074.96 942.698H1076.1L1076.29 934.854C1077.2 934.48 1079.28 933.107 1080.24 928.338C1080.36 927.758 1080.43 927.268 1080.46 926.849C1080.62 925.786 1080.7 924.587 1080.73 923.22L1079.1 922.724H1084.1L1084.59 921.661C1084.12 921.68 1083.55 921.441 1083.55 921.441L1083.66 920.926H1084.71L1079.04 918.071C1078.41 918.303 1077.74 918.605 1077.28 918.973C1076.9 918.715 1075.62 917.909 1073.82 917.877ZM1080.17 932.482C1079.52 933.649 1078.83 934.519 1078.23 935.138L1081.36 936.478L1079.97 939.54L1080.97 939.991L1083.19 935.814L1080.24 933.404C1080.22 933.256 1080.19 932.966 1080.17 932.482ZM1069.95 935.756C1069.2 935.802 1068.4 935.834 1067.55 935.847C1066.98 936.588 1066.31 937.303 1065.62 937.858L1066.2 942.692H1067.34V938.502C1067.82 938.115 1068.99 937.129 1069.95 935.756Z" fill="black"/>
<path d="M1017.26 922.87L1016.53 923.063C1016.96 924.503 1017.54 925.259 1018.2 925.654C1018.87 926.058 1019.64 926.093 1020.48 926.02C1021.61 925.921 1022.87 925.607 1024.17 926.067C1024.52 926.217 1024.89 926.409 1025.28 926.662C1025.48 926.602 1025.66 926.525 1025.84 926.469C1025.84 926.469 1025.99 926.028 1025.75 925.465C1025.55 924.971 1025.05 924.348 1023.78 923.91L1023.52 924.58C1024.31 924.855 1024.73 925.195 1024.94 925.517C1024.98 925.564 1025 925.607 1025.02 925.65C1024.85 925.564 1024.67 925.487 1024.5 925.427C1023.24 924.868 1022.23 924.834 1021.42 924.748C1020.99 924.705 1020.63 924.653 1020.33 924.447C1020.02 924.237 1019.8 923.871 1019.61 923.235L1018.89 923.437C1019.14 924.279 1019.49 924.744 1019.89 925.023C1020.07 925.147 1020.26 925.238 1020.47 925.302C1019.76 925.339 1019.09 925.331 1018.59 925.049C1018.04 924.718 1017.61 924.065 1017.26 922.87ZM1021.28 923.025C1021.24 923.506 1021.33 923.897 1021.48 924.215C1021.82 924.256 1022.12 924.262 1022.44 924.314C1022.19 924.056 1021.98 923.661 1022.02 923.076L1021.28 923.025ZM1026.68 923.605L1026.19 924.142C1026.56 924.451 1026.66 924.821 1026.66 925.135C1026.47 924.966 1026.29 924.854 1026.08 924.752C1026.4 925.114 1026.44 925.756 1026.47 926.101L1027.16 926.174C1027.16 926.174 1027.95 924.662 1026.68 923.605ZM1023.06 926.585C1022.27 926.671 1021.85 926.473 1021.6 927.178C1021.6 927.178 1022.45 928.377 1024.7 928.346C1024.57 928.836 1024.63 929.197 1024.63 929.631C1024.63 931.075 1023.42 932.334 1020.74 932.334C1019.39 932.334 1017.74 932.566 1016.48 933.215C1015.59 933.675 1014.89 934.341 1014.58 935.264L1014.93 935.733L1015.6 935.741V938.393L1014.78 939.609L1015.02 943.132H1015.79L1015.86 940.296C1016.25 940.081 1017.13 939.523 1017.89 938.663C1018.91 937.507 1019.7 935.827 1018.77 933.748L1019.46 933.468C1020.22 935.174 1019.96 936.652 1019.29 937.843C1020.56 937.804 1021.66 937.727 1022.58 937.58L1022.37 935.161L1023.12 935.101L1023.83 943.132H1024.6L1024.73 937.903C1025.34 937.654 1026.75 936.738 1027.4 933.559C1027.48 933.172 1027.53 932.845 1027.55 932.566C1027.65 931.857 1027.71 931.058 1027.73 930.147L1026.63 929.816H1030.01L1030.34 929.107C1030.02 929.12 1029.64 928.961 1029.64 928.961L1029.71 928.617H1030.42L1026.58 926.714C1026.16 926.868 1025.71 927.07 1025.39 927.315C1025.14 927.143 1024.27 926.606 1023.06 926.585ZM1027.35 936.321C1026.91 937.099 1026.44 937.679 1026.04 938.092L1028.16 938.986L1027.22 941.027L1027.89 941.327L1029.39 938.543L1027.4 936.936C1027.38 936.837 1027.36 936.644 1027.35 936.321ZM1020.44 938.504C1019.93 938.534 1019.39 938.556 1018.82 938.564C1018.43 939.059 1017.98 939.536 1017.51 939.905L1017.9 943.128H1018.67V940.335C1019 940.077 1019.79 939.42 1020.44 938.504Z" fill="black"/>
<g clip-path="url(#clip6_48_2)">
<path d="M198.948 826.227L184.177 809.437H189.84C191.506 809.437 192.98 808.509 193.682 807.014C194.385 805.522 194.154 803.811 193.076 802.551L178.63 785.687H183.972C185.654 785.687 187.17 784.694 187.828 783.162C188.479 781.653 188.172 779.898 187.044 778.694L166.656 756.896C165.541 755.699 163.461 755.699 162.344 756.896L141.954 778.694C140.826 779.898 140.521 781.653 141.17 783.162C141.828 784.694 143.346 785.687 145.029 785.687H150.37L135.923 802.555C134.848 803.813 134.617 805.522 135.318 807.016C136.021 808.509 137.492 809.437 139.16 809.437H144.824L130.052 826.227C128.943 827.487 128.691 829.213 129.394 830.729C130.087 832.222 131.613 833.187 133.279 833.187H158.583V837.724L152.983 846.704C151.999 848.678 153.43 851.001 155.629 851.001H173.371C175.57 851.001 177.001 848.678 176.017 846.704L170.417 837.724V833.187H195.722C197.388 833.187 198.913 832.222 199.606 830.729C200.309 829.213 200.057 827.487 198.948 826.227Z" fill="black"/>
</g>
<g clip-path="url(#clip7_48_2)">
<path d="M1438.62 853.665L1419.27 831.75H1426.69C1428.87 831.75 1430.8 830.539 1431.72 828.587C1432.64 826.64 1432.34 824.407 1430.93 822.762L1412.01 800.75H1419C1421.21 800.75 1423.19 799.454 1424.06 797.454C1424.91 795.485 1424.51 793.194 1423.03 791.622L1396.32 763.17C1394.86 761.608 1392.14 761.608 1390.68 763.17L1363.97 791.622C1362.49 793.194 1362.09 795.485 1362.94 797.454C1363.8 799.454 1365.79 800.75 1368 800.75H1374.99L1356.07 822.767C1354.66 824.409 1354.36 826.64 1355.28 828.589C1356.2 830.539 1358.12 831.75 1360.31 831.75H1367.73L1348.38 853.665C1346.92 855.31 1346.6 857.562 1347.52 859.541C1348.42 861.49 1350.42 862.75 1352.6 862.75H1385.75V868.671L1378.41 880.393C1377.13 882.97 1379 886.002 1381.88 886.002H1405.12C1408 886.002 1409.87 882.97 1408.59 880.393L1401.25 868.671V862.75H1434.4C1436.58 862.75 1438.58 861.49 1439.48 859.541C1440.4 857.562 1440.07 855.31 1438.62 853.665Z" fill="black"/>
</g>
<g clip-path="url(#clip8_48_2)">
<path d="M1371.39 880.919L1362.86 871.375H1366.13C1367.09 871.375 1367.95 870.847 1368.35 869.997C1368.76 869.149 1368.62 868.177 1368 867.461L1359.66 857.875H1362.74C1363.72 857.875 1364.59 857.311 1364.97 856.439C1365.35 855.582 1365.17 854.584 1364.52 853.9L1352.74 841.509C1352.1 840.829 1350.9 840.829 1350.26 841.509L1338.48 853.9C1337.83 854.584 1337.65 855.582 1338.03 856.439C1338.41 857.311 1339.28 857.875 1340.26 857.875H1343.34L1335 867.463C1334.38 868.178 1334.24 869.149 1334.65 869.998C1335.05 870.847 1335.9 871.375 1336.87 871.375H1340.14L1331.61 880.919C1330.97 881.635 1330.82 882.616 1331.23 883.477C1331.63 884.326 1332.51 884.875 1333.47 884.875H1348.08V887.454L1344.85 892.558C1344.28 893.68 1345.11 895.001 1346.38 895.001H1356.62C1357.89 895.001 1358.72 893.68 1358.15 892.558L1354.92 887.454V884.875H1369.53C1370.49 884.875 1371.37 884.326 1371.77 883.477C1372.18 882.616 1372.03 881.635 1371.39 880.919Z" fill="black"/>
</g>
<g clip-path="url(#clip9_48_2)">
<path d="M1337.08 891.357L1324.18 876.687H1329.13C1330.58 876.687 1331.87 875.877 1332.48 874.57C1333.1 873.267 1332.89 871.772 1331.95 870.671L1319.34 855.937H1324C1325.47 855.937 1326.8 855.07 1327.37 853.731C1327.94 852.413 1327.67 850.88 1326.69 849.827L1308.88 830.783C1307.91 829.737 1306.09 829.737 1305.12 830.783L1287.31 849.827C1286.33 850.88 1286.06 852.413 1286.63 853.731C1287.2 855.07 1288.53 855.937 1290 855.937H1294.66L1282.05 870.675C1281.11 871.774 1280.91 873.267 1281.52 874.572C1282.13 875.877 1283.42 876.687 1284.87 876.687H1289.82L1276.92 891.357C1275.95 892.457 1275.73 893.965 1276.34 895.289C1276.95 896.594 1278.28 897.437 1279.74 897.437H1301.83V901.401L1296.94 909.247C1296.08 910.972 1297.33 913.001 1299.25 913.001H1314.75C1316.67 913.001 1317.92 910.972 1317.06 909.247L1312.17 901.401V897.437H1334.26C1335.72 897.437 1337.05 896.594 1337.66 895.289C1338.27 893.965 1338.05 892.457 1337.08 891.357Z" fill="black"/>
</g>
<path d="M0 860.492C573.5 750.746 870 1090.58 1440 860.492V1024H0L0 860.492Z" fill="#2C1E59"/>
<path d="M200.346 814.068L199.497 814.305C199.993 816.072 200.673 817 201.448 817.485C202.234 817.981 203.141 818.023 204.132 817.933C205.451 817.812 206.938 817.427 208.456 817.991C208.868 818.176 209.3 818.411 209.759 818.722C210.002 818.648 210.212 818.553 210.423 818.484C210.423 818.484 210.592 817.944 210.318 817.253C210.081 816.647 209.49 815.882 207.998 815.344L207.702 816.167C208.62 816.504 209.116 816.921 209.369 817.316C209.406 817.374 209.432 817.427 209.458 817.48C209.258 817.374 209.052 817.279 208.852 817.206C207.37 816.52 206.184 816.478 205.234 816.372C204.728 816.32 204.301 816.256 203.948 816.003C203.594 815.745 203.331 815.297 203.104 814.516L202.26 814.764C202.561 815.798 202.961 816.367 203.431 816.71C203.642 816.863 203.868 816.974 204.111 817.053C203.278 817.097 202.492 817.088 201.912 816.742C201.269 816.335 200.757 815.534 200.346 814.068ZM205.066 814.258C205.018 814.848 205.124 815.328 205.298 815.718C205.704 815.769 206.057 815.776 206.426 815.84C206.141 815.523 205.888 815.038 205.941 814.321L205.066 814.258ZM211.41 814.97L210.835 815.629C211.267 816.008 211.388 816.462 211.388 816.847C211.156 816.64 210.945 816.503 210.698 816.378C211.077 816.822 211.13 817.61 211.156 818.033L211.974 818.123C211.974 818.123 212.902 816.267 211.41 814.97ZM207.154 818.627C206.231 818.732 205.741 818.49 205.445 819.354C205.445 819.354 206.437 820.826 209.079 820.789C208.931 821.39 209 821.833 209 822.366C209 824.138 207.576 825.683 204.438 825.683C202.845 825.683 200.91 825.967 199.434 826.764C198.384 827.328 197.563 828.145 197.2 829.279L197.612 829.854L198.4 829.864V833.118L197.438 834.611L197.714 838.935H198.627L198.706 835.454C199.159 835.191 200.198 834.505 201.084 833.45C202.286 832.032 203.209 829.97 202.123 827.418L202.935 827.075C203.826 829.168 203.515 830.982 202.735 832.443C204.227 832.396 205.509 832.301 206.595 832.121L206.347 829.153L207.222 829.079L208.056 838.935H208.963L209.116 832.517C209.838 832.211 211.483 831.088 212.253 827.186C212.348 826.711 212.401 826.31 212.427 825.967C212.549 825.097 212.617 824.116 212.638 822.998L211.346 822.592H215.317L215.702 821.722C215.328 821.738 214.879 821.543 214.879 821.543L214.969 821.121H215.802L211.293 818.785C210.793 818.975 210.265 819.223 209.896 819.523C209.601 819.312 208.578 818.653 207.154 818.627ZM212.19 830.576C211.678 831.531 211.13 832.243 210.655 832.749L213.139 833.846L212.037 836.351L212.828 836.72L214.589 833.303L212.253 831.33C212.232 831.209 212.206 830.972 212.19 830.576ZM204.079 833.255C203.484 833.292 202.851 833.319 202.176 833.329C201.717 833.936 201.19 834.521 200.641 834.974L201.1 838.929H202.002V835.502C202.387 835.185 203.315 834.379 204.079 833.255Z" fill="black"/>
<defs>
<radialGradient id="paint0_radial_48_2" cx="0" cy="0" r="1" gradientUnits="userSpaceOnUse" gradientTransform="translate(100.5 -124) rotate(42.179) scale(1709.73 2404.31)">
<stop offset="0.347346" stop-color="#3919BB"/>
<stop offset="0.453188" stop-color="#510FDD"/>
<stop offset="0.602644" stop-color="#8C4FEC"/>
<stop offset="0.742014" stop-color="#1CA511"/>
<stop offset="0.820874" stop-color="#70B96F"/>
<stop offset="0.884743" stop-color="#E29967"/>
<stop offset="1" stop-color="#590CE8"/>
</radialGradient>
<clipPath id="clip0_48_2">
<rect width="93" height="124" fill="white" transform="translate(14 743)"/>
</clipPath>
<clipPath id="clip1_48_2">
<rect width="46" height="62" fill="white" transform="translate(76 792)"/>
</clipPath>
<clipPath id="clip2_48_2">
<rect width="71.5902" height="95.4536" fill="white" transform="translate(726.604 817) rotate(10.0174)"/>
</clipPath>
<clipPath id="clip3_48_2">
<rect width="53" height="71" fill="white" transform="translate(700.69 834) rotate(7.03027)"/>
</clipPath>
<clipPath id="clip4_48_2">
<rect width="93.3646" height="120.525" fill="white" transform="translate(647.278 773) rotate(9.20392)"/>
</clipPath>
<clipPath id="clip5_48_2">
<rect width="60" height="80" fill="white" transform="translate(92 771)"/>
</clipPath>
<clipPath id="clip6_48_2">
<rect width="71" height="95" fill="white" transform="translate(129 756)"/>
</clipPath>
<clipPath id="clip7_48_2">
<rect width="93" height="124" fill="white" transform="translate(1347 762)"/>
</clipPath>
<clipPath id="clip8_48_2">
<rect width="41" height="54" fill="white" transform="translate(1331 841)"/>
</clipPath>
<clipPath id="clip9_48_2">
<rect width="62" height="83" fill="white" transform="translate(1276 830)"/>
</clipPath>
</defs>
</svg>
