<svg width="1440" height="1024" viewBox="0 0 1440 1024" fill="none" xmlns="http://www.w3.org/2000/svg">
<g clip-path="url(#clip0_59_1339)">
<rect width="1440" height="1024" fill="url(#paint0_radial_59_1339)"/>
<g clip-path="url(#clip1_59_1339)">
<path d="M105.622 875.665L86.2735 853.75H93.6917C95.8738 853.75 97.804 852.539 98.7243 850.587C99.6447 848.64 99.3419 846.407 97.93 844.762L79.0079 822.75H86.0047C88.2086 822.75 90.1945 821.454 91.0567 819.454C91.9092 817.485 91.5072 815.194 90.0298 813.622L63.3238 785.17C61.8634 783.608 59.1388 783.608 57.676 785.17L30.9676 813.622C29.4902 815.194 29.0906 817.485 29.9407 819.454C30.8029 821.454 32.7912 822.75 34.9951 822.75H41.9919L23.0674 844.767C21.6603 846.409 21.3576 848.64 22.2754 850.589C23.1958 852.539 25.1236 853.75 27.3081 853.75H34.7263L15.3779 875.665C13.9248 877.31 13.5954 879.562 14.5158 881.541C15.424 883.49 17.422 884.75 19.6041 884.75H52.7499V890.671L45.414 902.393C44.1256 904.97 46.0001 908.002 48.8797 908.002H72.1201C74.9997 908.002 76.8742 904.97 75.5858 902.393L68.2499 890.671V884.75H101.396C103.578 884.75 105.576 883.49 106.484 881.541C107.404 879.562 107.075 877.31 105.622 875.665Z" fill="black"/>
<g clip-path="url(#clip2_59_1339)">
<path d="M121.319 878.832L111.749 867.875H115.418C116.497 867.875 117.452 867.269 117.907 866.293C118.362 865.319 118.213 864.203 117.514 863.381L108.155 852.375H111.616C112.706 852.375 113.688 851.727 114.115 850.726C114.536 849.742 114.337 848.596 113.607 847.811L100.397 833.584C99.6749 832.803 98.3272 832.803 97.6037 833.584L84.393 847.811C83.6623 848.596 83.4647 849.742 83.8851 850.726C84.3116 851.727 85.2951 852.375 86.3852 852.375H89.846L80.4854 863.383C79.7895 864.204 79.6397 865.319 80.0937 866.294C80.5489 867.269 81.5025 867.875 82.583 867.875H86.2522L76.6821 878.832C75.9633 879.655 75.8004 880.781 76.2556 881.77C76.7048 882.745 77.6931 883.375 78.7724 883.375H95.1671V886.335L91.5386 892.196C90.9013 893.485 91.8285 895.001 93.2528 895.001H104.748C106.172 895.001 107.1 893.485 106.462 892.196L102.834 886.335V883.375H119.228C120.308 883.375 121.296 882.745 121.745 881.77C122.2 880.781 122.038 879.655 121.319 878.832Z" fill="black"/>
</g>
</g>
<g clip-path="url(#clip3_59_1339)">
<path d="M151.111 871.139L138.628 857H143.414C144.822 857 146.067 856.218 146.661 854.959C147.255 853.703 147.06 852.262 146.149 851.201L133.941 837H138.455C139.877 837 141.158 836.164 141.714 834.873C142.264 833.603 142.005 832.125 141.052 831.111L123.822 812.754C122.88 811.747 121.122 811.747 120.178 812.754L102.947 831.111C101.994 832.125 101.736 833.603 102.285 834.873C102.841 836.164 104.124 837 105.546 837H110.06L97.8503 851.204C96.9425 852.264 96.7472 853.703 97.3393 854.961C97.9331 856.218 99.1768 857 100.586 857H105.372L92.8893 871.139C91.9518 872.2 91.7393 873.653 92.3331 874.929C92.919 876.187 94.2081 877 95.6159 877H117V880.82L112.267 888.383C111.436 890.045 112.646 892.001 114.503 892.001H129.497C131.355 892.001 132.564 890.045 131.733 888.383L127 880.82V877H148.385C149.792 877 151.082 876.187 151.667 874.929C152.261 873.653 152.049 872.2 151.111 871.139Z" fill="black"/>
</g>
<path d="M224.611 846.542L223.384 846.885C224.1 849.437 225.083 850.778 226.203 851.478C227.338 852.194 228.648 852.255 230.08 852.126C231.984 851.951 234.132 851.395 236.326 852.21C236.92 852.476 237.545 852.815 238.207 853.265C238.558 853.158 238.863 853.021 239.167 852.922C239.167 852.922 239.411 852.141 239.015 851.143C238.672 850.267 237.819 849.163 235.663 848.386L235.237 849.574C236.562 850.062 237.278 850.663 237.644 851.235C237.697 851.318 237.735 851.395 237.773 851.471C237.484 851.318 237.187 851.181 236.897 851.075C234.757 850.084 233.043 850.024 231.672 849.871C230.941 849.795 230.324 849.704 229.813 849.338C229.303 848.965 228.922 848.317 228.595 847.19L227.376 847.548C227.81 849.041 228.389 849.864 229.067 850.359C229.372 850.58 229.699 850.74 230.049 850.854C228.846 850.919 227.711 850.905 226.873 850.404C225.944 849.818 225.205 848.66 224.611 846.542ZM231.428 846.817C231.36 847.67 231.512 848.363 231.763 848.927C232.35 849 232.86 849.01 233.393 849.102C232.982 848.645 232.616 847.944 232.693 846.908L231.428 846.817ZM240.592 847.845L239.761 848.797C240.386 849.346 240.561 850.001 240.561 850.557C240.226 850.258 239.921 850.059 239.563 849.879C240.112 850.52 240.188 851.658 240.226 852.271L241.407 852.4C241.407 852.4 242.747 849.719 240.592 847.845ZM234.445 853.128C233.112 853.28 232.403 852.929 231.977 854.179C231.977 854.179 233.409 856.304 237.225 856.251C237.012 857.119 237.111 857.759 237.111 858.528C237.111 861.088 235.054 863.319 230.522 863.319C228.221 863.319 225.426 863.731 223.293 864.881C221.777 865.696 220.591 866.877 220.066 868.514L220.661 869.345L221.8 869.36V874.06L220.411 876.215L220.81 882.461H222.128L222.242 877.434C222.897 877.053 224.398 876.063 225.677 874.539C227.414 872.49 228.747 869.512 227.178 865.825L228.351 865.33C229.638 868.354 229.189 870.975 228.061 873.085C230.217 873.016 232.068 872.879 233.637 872.62L233.279 868.331L234.544 868.225L235.747 882.461H237.057L237.278 873.191C238.322 872.749 240.698 871.127 241.81 865.49C241.948 864.805 242.024 864.226 242.062 863.731C242.237 862.474 242.336 861.057 242.366 859.442L240.5 858.856H246.236L246.792 857.599C246.251 857.622 245.604 857.34 245.604 857.34L245.733 856.73H246.937L240.424 853.356C239.7 853.63 238.939 853.988 238.406 854.422C237.979 854.118 236.501 853.166 234.445 853.128ZM241.719 870.388C240.98 871.767 240.188 872.795 239.502 873.526L243.09 875.111L241.498 878.729L242.641 879.262L245.185 874.326L241.81 871.477C241.78 871.302 241.742 870.959 241.719 870.388ZM230.004 874.258C229.143 874.311 228.229 874.349 227.254 874.364C226.591 875.24 225.83 876.086 225.037 876.741L225.7 882.454H227.003V877.503C227.559 877.046 228.899 875.88 230.004 874.258Z" fill="black"/>
<path d="M248.244 839.74L246.829 840.127C247.655 843.006 248.788 844.518 250.08 845.309C251.39 846.117 252.902 846.186 254.554 846.039C256.751 845.842 259.23 845.214 261.761 846.134C262.447 846.435 263.167 846.817 263.932 847.324C264.336 847.204 264.688 847.049 265.039 846.938C265.039 846.938 265.321 846.057 264.864 844.931C264.468 843.943 263.484 842.696 260.996 841.82L260.504 843.161C262.034 843.711 262.86 844.389 263.282 845.034C263.343 845.129 263.387 845.214 263.431 845.3C263.097 845.129 262.754 844.974 262.42 844.854C259.951 843.736 257.973 843.668 256.391 843.496C255.547 843.41 254.835 843.307 254.246 842.894C253.658 842.473 253.218 841.743 252.84 840.471L251.434 840.875C251.935 842.559 252.603 843.487 253.385 844.046C253.737 844.295 254.115 844.475 254.519 844.604C253.13 844.677 251.821 844.662 250.854 844.097C249.782 843.436 248.929 842.129 248.244 839.74ZM256.11 840.05C256.031 841.012 256.206 841.794 256.496 842.43C257.173 842.513 257.762 842.525 258.377 842.628C257.903 842.112 257.481 841.321 257.569 840.153L256.11 840.05ZM266.683 841.21L265.725 842.284C266.446 842.903 266.648 843.642 266.648 844.269C266.261 843.932 265.91 843.708 265.496 843.504C266.129 844.228 266.217 845.512 266.261 846.203L267.623 846.349C267.623 846.349 269.17 843.324 266.683 841.21ZM259.59 847.17C258.052 847.341 257.235 846.946 256.743 848.355C256.743 848.355 258.395 850.753 262.798 850.693C262.552 851.673 262.666 852.395 262.666 853.263C262.666 856.15 260.293 858.668 255.064 858.668C252.41 858.668 249.184 859.132 246.723 860.43C244.974 861.349 243.606 862.681 243 864.529L243.686 865.466L245 865.483V870.785L243.397 873.217L243.858 880.264H245.378L245.51 874.592C246.266 874.162 247.997 873.045 249.474 871.327C251.478 869.015 253.016 865.655 251.205 861.495L252.559 860.937C254.044 864.348 253.526 867.305 252.225 869.685C254.712 869.608 256.848 869.453 258.659 869.161L258.246 864.323L259.704 864.202L261.093 880.264H262.605L262.86 869.805C264.064 869.307 266.806 867.477 268.089 861.117C268.247 860.344 268.335 859.691 268.379 859.132C268.581 857.714 268.696 856.116 268.731 854.294L266.578 853.632H273.196L273.837 852.214C273.213 852.24 272.466 851.922 272.466 851.922L272.616 851.234H274.004L266.49 847.427C265.655 847.737 264.776 848.141 264.161 848.63C263.668 848.287 261.963 847.212 259.59 847.17ZM267.984 866.643C267.131 868.198 266.217 869.359 265.426 870.184L269.566 871.971L267.729 876.053L269.047 876.655L271.983 871.086L268.089 867.872C268.054 867.674 268.01 867.287 267.984 866.643ZM254.466 871.009C253.473 871.069 252.418 871.112 251.293 871.129C250.529 872.117 249.65 873.071 248.736 873.81L249.5 880.255H251.003V874.67C251.645 874.154 253.192 872.839 254.466 871.009Z" fill="black"/>
<path d="M1036.6 939.938L1035.03 940.369C1035.95 943.575 1037.21 945.259 1038.64 946.14C1040.1 947.039 1041.78 947.116 1043.62 946.953C1046.06 946.733 1048.81 946.034 1051.62 947.058C1052.38 947.393 1053.19 947.819 1054.04 948.384C1054.48 948.25 1054.87 948.078 1055.27 947.953C1055.27 947.953 1055.58 946.972 1055.07 945.718C1054.63 944.618 1053.54 943.23 1050.77 942.254L1050.23 943.747C1051.93 944.359 1052.84 945.116 1053.31 945.833C1053.38 945.939 1053.43 946.034 1053.48 946.13C1053.11 945.939 1052.73 945.766 1052.36 945.632C1049.61 944.388 1047.41 944.312 1045.66 944.12C1044.72 944.025 1043.93 943.91 1043.27 943.45C1042.62 942.981 1042.13 942.168 1041.71 940.751L1040.15 941.201C1040.71 943.077 1041.45 944.111 1042.32 944.733C1042.71 945.01 1043.13 945.211 1043.58 945.355C1042.03 945.436 1040.58 945.419 1039.5 944.79C1038.31 944.053 1037.37 942.599 1036.6 939.938ZM1045.34 940.283C1045.26 941.354 1045.45 942.225 1045.77 942.933C1046.53 943.025 1047.18 943.039 1047.86 943.154C1047.34 942.579 1046.87 941.699 1046.96 940.397L1045.34 940.283ZM1057.09 941.575L1056.03 942.771C1056.83 943.46 1057.05 944.283 1057.05 944.982C1056.62 944.606 1056.23 944.357 1055.77 944.13C1056.48 944.936 1056.57 946.365 1056.62 947.135L1058.14 947.298C1058.14 947.298 1059.86 943.929 1057.09 941.575ZM1049.21 948.212C1047.5 948.403 1046.59 947.963 1046.05 949.532C1046.05 949.532 1047.88 952.202 1052.78 952.135C1052.5 953.226 1052.63 954.03 1052.63 954.997C1052.63 958.213 1049.99 961.017 1044.18 961.017C1041.23 961.017 1037.65 961.533 1034.91 962.979C1032.97 964.003 1031.45 965.486 1030.78 967.544L1031.54 968.587L1033 968.606V974.511L1031.22 977.219L1031.73 985.067H1033.42L1033.57 978.75C1034.41 978.272 1036.33 977.028 1037.97 975.114C1040.2 972.539 1041.91 968.797 1039.89 964.165L1041.4 963.543C1043.05 967.343 1042.47 970.635 1041.03 973.286C1043.79 973.2 1046.16 973.027 1048.18 972.702L1047.72 967.314L1049.34 967.18L1050.88 985.067H1052.56L1052.84 973.42C1054.18 972.865 1057.23 970.826 1058.65 963.744C1058.83 962.883 1058.93 962.155 1058.98 961.533C1059.2 959.954 1059.33 958.174 1059.37 956.145L1056.97 955.408H1064.33L1065.04 953.829C1064.35 953.858 1063.52 953.504 1063.52 953.504L1063.68 952.738H1065.23L1056.88 948.499C1055.95 948.843 1054.97 949.293 1054.29 949.838C1053.74 949.456 1051.85 948.259 1049.21 948.212ZM1058.54 969.898C1057.59 971.63 1056.57 972.922 1055.7 973.841L1060.29 975.831L1058.25 980.377L1059.72 981.047L1062.98 974.846L1058.65 971.266C1058.62 971.046 1058.57 970.616 1058.54 969.898ZM1043.52 974.76C1042.41 974.827 1041.24 974.874 1039.99 974.894C1039.14 975.994 1038.17 977.056 1037.15 977.879L1038 985.057H1039.67V978.837C1040.38 978.262 1042.1 976.798 1043.52 974.76Z" fill="black"/>
<path d="M1065.25 953.305L1064.18 953.595C1064.81 955.754 1065.66 956.889 1066.64 957.482C1067.63 958.088 1068.77 958.139 1070.02 958.03C1071.68 957.881 1073.55 957.411 1075.46 958.1C1075.98 958.326 1076.53 958.613 1077.1 958.993C1077.41 958.903 1077.68 958.787 1077.94 958.703C1077.94 958.703 1078.15 958.042 1077.81 957.198C1077.51 956.457 1076.77 955.522 1074.89 954.865L1074.51 955.87C1075.67 956.283 1076.29 956.792 1076.61 957.275C1076.66 957.346 1076.69 957.411 1076.73 957.475C1076.47 957.346 1076.21 957.23 1075.96 957.14C1074.1 956.302 1072.6 956.251 1071.41 956.122C1070.77 956.057 1070.23 955.98 1069.79 955.671C1069.34 955.355 1069.01 954.807 1068.72 953.853L1067.66 954.156C1068.04 955.419 1068.54 956.115 1069.14 956.534C1069.4 956.721 1069.69 956.857 1069.99 956.953C1068.94 957.008 1067.95 956.996 1067.22 956.573C1066.41 956.077 1065.77 955.097 1065.25 953.305ZM1071.19 953.537C1071.13 954.259 1071.27 954.846 1071.49 955.323C1072 955.384 1072.44 955.393 1072.91 955.471C1072.55 955.084 1072.23 954.491 1072.3 953.615L1071.19 953.537ZM1079.18 954.407L1078.46 955.213C1079 955.677 1079.16 956.231 1079.16 956.702C1078.86 956.449 1078.6 956.281 1078.29 956.128C1078.76 956.671 1078.83 957.634 1078.86 958.152L1079.89 958.262C1079.89 958.262 1081.06 955.993 1079.18 954.407ZM1073.82 958.877C1072.66 959.006 1072.04 958.71 1071.67 959.767C1071.67 959.767 1072.92 961.565 1076.25 961.52C1076.06 962.254 1076.15 962.796 1076.15 963.447C1076.15 965.613 1074.36 967.501 1070.4 967.501C1068.4 967.501 1065.96 967.849 1064.1 968.822C1062.78 969.512 1061.75 970.511 1061.29 971.897L1061.81 972.599L1062.8 972.612V976.589L1061.59 978.413L1061.94 983.698H1063.09L1063.19 979.444C1063.76 979.122 1065.06 978.284 1066.18 976.995C1067.69 975.261 1068.86 972.741 1067.49 969.621L1068.51 969.203C1069.63 971.761 1069.24 973.979 1068.26 975.764C1070.14 975.706 1071.75 975.59 1073.12 975.371L1072.81 971.742L1073.91 971.652L1074.96 983.698H1076.1L1076.29 975.854C1077.2 975.48 1079.28 974.107 1080.25 969.338C1080.36 968.758 1080.43 968.268 1080.46 967.849C1080.62 966.786 1080.7 965.587 1080.73 964.22L1079.1 963.724H1084.1L1084.59 962.661C1084.12 962.68 1083.55 962.441 1083.55 962.441L1083.67 961.926H1084.71L1079.04 959.071C1078.41 959.303 1077.74 959.605 1077.28 959.973C1076.91 959.715 1075.62 958.909 1073.82 958.877ZM1080.17 973.482C1079.52 974.649 1078.83 975.519 1078.23 976.138L1081.36 977.478L1079.97 980.54L1080.97 980.991L1083.19 976.814L1080.25 974.404C1080.22 974.256 1080.19 973.966 1080.17 973.482ZM1069.95 976.756C1069.2 976.802 1068.41 976.834 1067.56 976.847C1066.98 977.588 1066.31 978.303 1065.62 978.858L1066.2 983.692H1067.34V979.502C1067.82 979.115 1068.99 978.129 1069.95 976.756Z" fill="black"/>
<path d="M1017.26 963.87L1016.53 964.063C1016.96 965.503 1017.54 966.259 1018.2 966.654C1018.87 967.058 1019.64 967.093 1020.48 967.02C1021.61 966.921 1022.87 966.607 1024.17 967.067C1024.52 967.217 1024.88 967.409 1025.28 967.662C1025.48 967.602 1025.66 967.525 1025.84 967.469C1025.84 967.469 1025.99 967.028 1025.75 966.465C1025.55 965.971 1025.05 965.348 1023.78 964.91L1023.52 965.58C1024.31 965.855 1024.73 966.195 1024.94 966.517C1024.97 966.564 1025 966.607 1025.02 966.65C1024.85 966.564 1024.67 966.487 1024.5 966.427C1023.24 965.868 1022.23 965.834 1021.42 965.748C1020.99 965.705 1020.63 965.653 1020.33 965.447C1020.02 965.237 1019.8 964.871 1019.61 964.235L1018.89 964.437C1019.14 965.279 1019.49 965.744 1019.89 966.023C1020.06 966.147 1020.26 966.238 1020.46 966.302C1019.75 966.339 1019.09 966.331 1018.59 966.049C1018.04 965.718 1017.61 965.065 1017.26 963.87ZM1021.28 964.025C1021.24 964.506 1021.33 964.897 1021.48 965.215C1021.82 965.256 1022.12 965.262 1022.44 965.314C1022.19 965.056 1021.98 964.661 1022.02 964.076L1021.28 964.025ZM1026.68 964.605L1026.19 965.142C1026.56 965.451 1026.66 965.821 1026.66 966.135C1026.47 965.966 1026.29 965.854 1026.08 965.752C1026.4 966.114 1026.44 966.756 1026.47 967.101L1027.16 967.174C1027.16 967.174 1027.95 965.662 1026.68 964.605ZM1023.06 967.585C1022.27 967.671 1021.85 967.473 1021.6 968.178C1021.6 968.178 1022.45 969.377 1024.7 969.346C1024.57 969.836 1024.63 970.197 1024.63 970.631C1024.63 972.075 1023.42 973.334 1020.74 973.334C1019.39 973.334 1017.74 973.566 1016.48 974.215C1015.59 974.675 1014.89 975.341 1014.58 976.264L1014.93 976.733L1015.6 976.741V979.393L1014.78 980.609L1015.02 984.132H1015.79L1015.86 981.296C1016.25 981.081 1017.13 980.523 1017.89 979.663C1018.91 978.507 1019.7 976.827 1018.77 974.748L1019.46 974.468C1020.22 976.174 1019.96 977.652 1019.29 978.843C1020.56 978.804 1021.66 978.727 1022.58 978.58L1022.37 976.161L1023.12 976.101L1023.82 984.132H1024.6L1024.73 978.903C1025.34 978.654 1026.74 977.738 1027.4 974.559C1027.48 974.172 1027.53 973.845 1027.55 973.566C1027.65 972.857 1027.71 972.058 1027.73 971.147L1026.63 970.816H1030.01L1030.34 970.107C1030.02 970.12 1029.64 969.961 1029.64 969.961L1029.71 969.617H1030.42L1026.58 967.714C1026.16 967.868 1025.71 968.07 1025.39 968.315C1025.14 968.143 1024.27 967.606 1023.06 967.585ZM1027.35 977.321C1026.91 978.099 1026.44 978.679 1026.04 979.092L1028.16 979.986L1027.22 982.027L1027.89 982.327L1029.39 979.543L1027.4 977.936C1027.38 977.837 1027.36 977.644 1027.35 977.321ZM1020.44 979.504C1019.93 979.534 1019.39 979.556 1018.82 979.564C1018.43 980.059 1017.98 980.536 1017.51 980.905L1017.9 984.128H1018.67V981.335C1019 981.077 1019.79 980.42 1020.44 979.504Z" fill="black"/>
<g clip-path="url(#clip4_59_1339)">
<path d="M198.948 867.227L184.177 850.437H189.84C191.506 850.437 192.98 849.509 193.682 848.014C194.385 846.522 194.154 844.811 193.076 843.551L178.63 826.687H183.972C185.654 826.687 187.17 825.694 187.828 824.162C188.479 822.653 188.172 820.898 187.044 819.694L166.656 797.896C165.541 796.699 163.461 796.699 162.344 797.896L141.954 819.694C140.826 820.898 140.521 822.653 141.17 824.162C141.828 825.694 143.346 826.687 145.029 826.687H150.37L135.923 843.555C134.848 844.813 134.617 846.522 135.318 848.016C136.021 849.509 137.492 850.437 139.16 850.437H144.824L130.052 867.227C128.943 868.487 128.691 870.213 129.394 871.729C130.087 873.222 131.613 874.187 133.279 874.187H158.583V878.724L152.983 887.704C151.999 889.678 153.43 892.001 155.629 892.001H173.371C175.57 892.001 177.001 889.678 176.017 887.704L170.417 878.724V874.187H195.722C197.388 874.187 198.913 873.222 199.606 871.729C200.309 870.213 200.057 868.487 198.948 867.227Z" fill="black"/>
</g>
<g clip-path="url(#clip5_59_1339)">
<path d="M1438.62 894.665L1419.27 872.75H1426.69C1428.87 872.75 1430.8 871.539 1431.72 869.587C1432.64 867.64 1432.34 865.407 1430.93 863.762L1412.01 841.75H1419C1421.21 841.75 1423.19 840.454 1424.06 838.454C1424.91 836.485 1424.51 834.194 1423.03 832.622L1396.32 804.17C1394.86 802.608 1392.14 802.608 1390.68 804.17L1363.97 832.622C1362.49 834.194 1362.09 836.485 1362.94 838.454C1363.8 840.454 1365.79 841.75 1368 841.75H1374.99L1356.07 863.767C1354.66 865.409 1354.36 867.64 1355.28 869.589C1356.2 871.539 1358.12 872.75 1360.31 872.75H1367.73L1348.38 894.665C1346.92 896.31 1346.6 898.562 1347.52 900.541C1348.42 902.49 1350.42 903.75 1352.6 903.75H1385.75V909.671L1378.41 921.393C1377.13 923.97 1379 927.002 1381.88 927.002H1405.12C1408 927.002 1409.87 923.97 1408.59 921.393L1401.25 909.671V903.75H1434.4C1436.58 903.75 1438.58 902.49 1439.48 900.541C1440.4 898.562 1440.07 896.31 1438.62 894.665Z" fill="black"/>
</g>
<g clip-path="url(#clip6_59_1339)">
<path d="M1371.39 921.919L1362.86 912.375H1366.13C1367.1 912.375 1367.95 911.847 1368.35 910.997C1368.76 910.149 1368.62 909.177 1368 908.461L1359.66 898.875H1362.74C1363.72 898.875 1364.59 898.311 1364.97 897.439C1365.35 896.582 1365.17 895.584 1364.52 894.9L1352.75 882.509C1352.1 881.829 1350.9 881.829 1350.26 882.509L1338.48 894.9C1337.83 895.584 1337.65 896.582 1338.03 897.439C1338.41 898.311 1339.28 898.875 1340.26 898.875H1343.34L1335 908.463C1334.38 909.178 1334.24 910.149 1334.65 910.998C1335.05 911.847 1335.9 912.375 1336.87 912.375H1340.14L1331.61 921.919C1330.97 922.635 1330.82 923.616 1331.23 924.477C1331.63 925.326 1332.51 925.875 1333.47 925.875H1348.08V928.454L1344.85 933.558C1344.28 934.68 1345.11 936.001 1346.38 936.001H1356.62C1357.89 936.001 1358.72 934.68 1358.15 933.558L1354.92 928.454V925.875H1369.53C1370.49 925.875 1371.37 925.326 1371.77 924.477C1372.18 923.616 1372.03 922.635 1371.39 921.919Z" fill="black"/>
</g>
<g clip-path="url(#clip7_59_1339)">
<path d="M1337.08 932.357L1324.18 917.687H1329.13C1330.58 917.687 1331.87 916.877 1332.48 915.57C1333.1 914.267 1332.89 912.772 1331.95 911.671L1319.34 896.937H1324C1325.47 896.937 1326.8 896.07 1327.37 894.731C1327.94 893.413 1327.67 891.88 1326.69 890.827L1308.88 871.783C1307.91 870.737 1306.09 870.737 1305.12 871.783L1287.31 890.827C1286.33 891.88 1286.06 893.413 1286.63 894.731C1287.2 896.07 1288.53 896.937 1290 896.937H1294.66L1282.05 911.675C1281.11 912.774 1280.91 914.267 1281.52 915.572C1282.13 916.877 1283.42 917.687 1284.87 917.687H1289.82L1276.92 932.357C1275.95 933.457 1275.73 934.965 1276.34 936.289C1276.95 937.594 1278.28 938.437 1279.74 938.437H1301.83V942.401L1296.94 950.247C1296.08 951.972 1297.33 954.001 1299.25 954.001H1314.75C1316.67 954.001 1317.92 951.972 1317.06 950.247L1312.17 942.401V938.437H1334.26C1335.72 938.437 1337.05 937.594 1337.66 936.289C1338.27 934.965 1338.05 933.457 1337.08 932.357Z" fill="black"/>
</g>
<path d="M0 901.492C573.5 791.746 870 1131.58 1440 901.492V1065H0L0 901.492Z" fill="#231C3B"/>
<path d="M200.346 855.068L199.497 855.305C199.993 857.072 200.673 858 201.448 858.485C202.234 858.981 203.141 859.023 204.133 858.933C205.451 858.812 206.938 858.427 208.457 858.991C208.868 859.176 209.301 859.411 209.759 859.722C210.002 859.648 210.213 859.553 210.424 859.484C210.424 859.484 210.593 858.944 210.318 858.253C210.081 857.647 209.49 856.882 207.998 856.344L207.703 857.167C208.62 857.504 209.116 857.921 209.369 858.316C209.406 858.374 209.432 858.427 209.459 858.48C209.258 858.374 209.053 858.279 208.852 858.206C207.371 857.52 206.184 857.478 205.235 857.372C204.729 857.32 204.301 857.256 203.948 857.003C203.595 856.745 203.331 856.297 203.104 855.516L202.261 855.764C202.561 856.798 202.962 857.367 203.431 857.71C203.642 857.863 203.869 857.974 204.112 858.053C203.278 858.097 202.493 858.088 201.913 857.742C201.269 857.335 200.758 856.534 200.346 855.068ZM205.066 855.258C205.019 855.848 205.124 856.328 205.298 856.718C205.704 856.769 206.057 856.776 206.427 856.84C206.142 856.523 205.889 856.038 205.941 855.321L205.066 855.258ZM211.41 855.97L210.835 856.629C211.268 857.008 211.389 857.462 211.389 857.847C211.157 857.64 210.946 857.503 210.698 857.378C211.078 857.822 211.131 858.61 211.157 859.033L211.974 859.123C211.974 859.123 212.902 857.267 211.41 855.97ZM207.154 859.627C206.231 859.732 205.741 859.49 205.446 860.354C205.446 860.354 206.437 861.826 209.079 861.789C208.931 862.39 209 862.833 209 863.366C209 865.138 207.576 866.683 204.439 866.683C202.846 866.683 200.911 866.967 199.434 867.764C198.385 868.328 197.564 869.145 197.2 870.279L197.612 870.854L198.4 870.864V874.118L197.439 875.611L197.715 879.935H198.627L198.706 876.454C199.16 876.191 200.199 875.505 201.085 874.45C202.287 873.032 203.21 870.97 202.123 868.418L202.936 868.075C203.827 870.168 203.516 871.982 202.735 873.443C204.228 873.396 205.509 873.301 206.595 873.121L206.347 870.153L207.223 870.079L208.056 879.935H208.963L209.116 873.517C209.839 873.211 211.484 872.088 212.254 868.186C212.349 867.711 212.401 867.31 212.428 866.967C212.549 866.097 212.618 865.116 212.639 863.998L211.347 863.592H215.318L215.703 862.722C215.328 862.738 214.88 862.543 214.88 862.543L214.97 862.121H215.803L211.294 859.785C210.793 859.975 210.266 860.223 209.897 860.523C209.601 860.312 208.578 859.653 207.154 859.627ZM212.19 871.576C211.679 872.531 211.131 873.243 210.656 873.749L213.14 874.846L212.038 877.351L212.829 877.72L214.59 874.303L212.254 872.33C212.233 872.209 212.206 871.972 212.19 871.576ZM204.08 874.255C203.484 874.292 202.851 874.319 202.176 874.329C201.717 874.936 201.19 875.521 200.642 875.974L201.1 879.929H202.002V876.502C202.387 876.185 203.315 875.379 204.08 874.255Z" fill="black"/>
<path d="M204.905 485.658L218.188 475.473L201.44 475L195.875 459.25L190.31 475L173.562 475.473L186.845 485.658L182.067 501.723L195.875 492.22L209.682 501.723L204.905 485.658Z" fill="#FFC700"/>
<path d="M227.953 518.312L236.562 511.75L225.748 511.487L222.125 501.25L218.502 511.487L207.688 511.75L216.297 518.312L213.2 528.707L222.125 522.565L231.05 528.707L227.953 518.312Z" fill="#FFC700"/>
<path d="M161.75 485.5C161.75 517.42 187.58 543.25 219.5 543.25C222.282 543.25 225.012 543.04 227.69 542.673C219.237 555.64 204.643 564.25 188 564.25C161.908 564.25 140.75 543.093 140.75 517C140.75 500.358 149.36 485.763 162.328 477.31C161.96 479.988 161.75 482.718 161.75 485.5Z" fill="#FFC700" stroke="#FFC700" stroke-width="2" stroke-linecap="round" stroke-linejoin="round"/>
<g clip-path="url(#clip8_59_1339)">
<path d="M265.951 554.812C265.353 549.426 262.943 544.403 259.116 540.566C255.289 536.729 250.272 534.307 244.887 533.695C239.502 533.084 234.07 534.32 229.48 537.202C224.89 540.083 221.416 544.438 219.626 549.553C215.524 549.889 211.711 551.798 208.986 554.881C206.26 557.964 204.832 561.982 205.002 566.094C205.171 570.206 206.925 574.093 209.895 576.941C212.866 579.789 216.823 581.378 220.938 581.375H266.094C269.616 581.356 272.987 579.938 275.464 577.434C277.942 574.93 279.323 571.544 279.304 568.022C279.285 564.499 277.867 561.129 275.363 558.652C272.859 556.174 269.473 554.793 265.951 554.812Z" fill="black" fill-opacity="0.77"/>
<path d="M282.265 558.914C281.008 556.701 279.31 554.769 277.277 553.237C275.244 551.706 272.919 550.608 270.445 550.01C268.558 542.868 264.038 536.705 257.792 532.761C251.546 528.817 244.039 527.383 236.779 528.749C238.817 524.998 241.936 521.946 245.732 519.992C249.527 518.038 253.823 517.272 258.061 517.794C262.298 518.315 266.28 520.101 269.488 522.917C272.696 525.733 274.983 529.45 276.049 533.584C279.133 533.426 282.176 534.348 284.654 536.192C287.131 538.035 288.889 540.684 289.625 543.683C290.361 546.682 290.029 549.844 288.685 552.625C287.342 555.406 285.072 557.626 282.265 558.914Z" fill="black" fill-opacity="0.77"/>
</g>
<g clip-path="url(#clip9_59_1339)">
<path d="M156.951 569.812C156.353 564.426 153.943 559.403 150.116 555.566C146.289 551.729 141.272 549.307 135.887 548.695C130.502 548.084 125.07 549.32 120.48 552.202C115.89 555.083 112.416 559.438 110.626 564.553C106.524 564.889 102.711 566.798 99.9856 569.881C97.2598 572.964 95.8323 576.982 96.0018 581.094C96.1714 585.206 97.9249 589.093 100.895 591.941C103.866 594.789 107.823 596.378 111.938 596.375H157.094C160.616 596.356 163.987 594.938 166.464 592.434C168.942 589.93 170.323 586.544 170.304 583.022C170.285 579.499 168.867 576.129 166.363 573.652C163.859 571.174 160.473 569.793 156.951 569.812Z" fill="black" fill-opacity="0.74"/>
<path d="M173.265 573.914C172.008 571.701 170.31 569.769 168.277 568.237C166.244 566.706 163.919 565.608 161.445 565.01C159.558 557.868 155.038 551.705 148.792 547.761C142.546 543.817 135.039 542.383 127.779 543.749C129.817 539.998 132.936 536.946 136.732 534.992C140.527 533.038 144.823 532.272 149.061 532.794C153.298 533.315 157.28 535.101 160.488 537.917C163.696 540.733 165.983 544.45 167.049 548.584C170.133 548.426 173.176 549.348 175.654 551.192C178.131 553.035 179.889 555.684 180.625 558.683C181.361 561.682 181.029 564.844 179.685 567.625C178.342 570.406 176.072 572.626 173.265 573.914Z" fill="black" fill-opacity="0.74"/>
</g>
<g clip-path="url(#clip10_59_1339)">
<path d="M209.951 591.812C209.353 586.426 206.943 581.403 203.116 577.566C199.289 573.729 194.272 571.307 188.887 570.695C183.502 570.084 178.07 571.32 173.48 574.202C168.89 577.083 165.416 581.438 163.626 586.553C159.524 586.889 155.711 588.798 152.986 591.881C150.26 594.964 148.832 598.982 149.002 603.094C149.171 607.206 150.925 611.093 153.895 613.941C156.866 616.789 160.823 618.378 164.938 618.375H210.094C213.616 618.356 216.987 616.938 219.464 614.434C221.942 611.93 223.323 608.544 223.304 605.022C223.285 601.499 221.867 598.129 219.363 595.652C216.859 593.174 213.473 591.793 209.951 591.812Z" fill="black" fill-opacity="0.77"/>
<path d="M226.265 595.914C225.008 593.701 223.31 591.769 221.277 590.237C219.244 588.706 216.919 587.608 214.445 587.01C212.558 579.868 208.038 573.705 201.792 569.761C195.546 565.817 188.039 564.383 180.779 565.749C182.817 561.998 185.936 558.946 189.732 556.992C193.527 555.038 197.823 554.272 202.061 554.794C206.298 555.315 210.28 557.101 213.488 559.917C216.696 562.733 218.983 566.45 220.049 570.584C223.133 570.426 226.176 571.348 228.654 573.192C231.131 575.035 232.889 577.684 233.625 580.683C234.361 583.682 234.029 586.844 232.685 589.625C231.342 592.406 229.072 594.626 226.265 595.914Z" fill="black" fill-opacity="0.77"/>
</g>
</g>
<defs>
<radialGradient id="paint0_radial_59_1339" cx="0" cy="0" r="1" gradientUnits="userSpaceOnUse" gradientTransform="translate(100.5 -124) rotate(42.179) scale(1709.73 2404.31)">
<stop offset="0.347346" stop-color="#3919BB"/>
<stop offset="0.453188" stop-color="#510FDD"/>
<stop offset="0.602644" stop-color="#8C4FEC"/>
<stop offset="0.742014" stop-color="#1CA511"/>
<stop offset="0.820874" stop-color="#70B96F"/>
<stop offset="0.884743" stop-color="#E29967"/>
<stop offset="1" stop-color="#590CE8"/>
</radialGradient>
<clipPath id="clip0_59_1339">
<rect width="1440" height="1024" fill="white"/>
</clipPath>
<clipPath id="clip1_59_1339">
<rect width="93" height="124" fill="white" transform="translate(14 784)"/>
</clipPath>
<clipPath id="clip2_59_1339">
<rect width="46" height="62" fill="white" transform="translate(76 833)"/>
</clipPath>
<clipPath id="clip3_59_1339">
<rect width="60" height="80" fill="white" transform="translate(92 812)"/>
</clipPath>
<clipPath id="clip4_59_1339">
<rect width="71" height="95" fill="white" transform="translate(129 797)"/>
</clipPath>
<clipPath id="clip5_59_1339">
<rect width="93" height="124" fill="white" transform="translate(1347 803)"/>
</clipPath>
<clipPath id="clip6_59_1339">
<rect width="41" height="54" fill="white" transform="translate(1331 882)"/>
</clipPath>
<clipPath id="clip7_59_1339">
<rect width="62" height="83" fill="white" transform="translate(1276 871)"/>
</clipPath>
<clipPath id="clip8_59_1339">
<rect width="85" height="85" fill="white" transform="translate(205 507)"/>
</clipPath>
<clipPath id="clip9_59_1339">
<rect width="85" height="85" fill="white" transform="translate(96 522)"/>
</clipPath>
<clipPath id="clip10_59_1339">
<rect width="85" height="85" fill="white" transform="translate(149 544)"/>
</clipPath>
</defs>
</svg>
