<svg width="1280" height="604" viewBox="0 0 1280 604" fill="none" xmlns="http://www.w3.org/2000/svg">
<g clip-path="url(#clip0_59_1339)">
<rect width="1280" height="603.333" fill="url(#paint0_radial_59_1339)"/>
<g clip-path="url(#clip1_59_1339)">
<path d="M93.7701 469.665L76.5023 447.75H83.1228C85.0703 447.75 86.793 446.539 87.6143 444.587C88.4357 442.64 88.1655 440.407 86.9054 438.762L70.0179 416.75H76.2623C78.2293 416.75 80.0017 415.454 80.7711 413.454C81.532 411.485 81.1732 409.194 79.8547 407.622L56.0203 379.17C54.7169 377.608 52.2853 377.608 50.9798 379.17L27.1432 407.622C25.8247 409.194 25.4681 411.485 26.2267 413.454C26.9962 415.454 28.7708 416.75 30.7377 416.75H36.9822L20.0925 438.767C18.8367 440.409 18.5665 442.64 19.3857 444.589C20.2071 446.539 21.9276 447.75 23.8772 447.75H30.4978L13.2299 469.665C11.933 471.31 11.6391 473.562 12.4604 475.541C13.271 477.49 15.0542 478.75 17.0016 478.75H46.5833V484.671L40.0363 496.393C38.8864 498.97 40.5594 502.002 43.1293 502.002H63.8707C66.4407 502.002 68.1136 498.97 66.9637 496.393L60.4167 484.671V478.75H89.9984C91.9459 478.75 93.7291 477.49 94.5396 475.541C95.361 473.562 95.067 471.31 93.7701 469.665Z" fill="black"/>
<g clip-path="url(#clip2_59_1339)">
<path d="M107.779 472.832L99.2378 461.875H102.513C103.476 461.875 104.328 461.269 104.734 460.293C105.14 459.32 105.007 458.203 104.383 457.381L96.0305 446.375H99.1192C100.092 446.375 100.969 445.727 101.349 444.727C101.726 443.742 101.548 442.597 100.896 441.811L89.107 427.585C88.4623 426.804 87.2595 426.804 86.6138 427.585L74.8237 441.811C74.1715 442.597 73.9951 443.742 74.3704 444.727C74.751 445.727 75.6287 446.375 76.6016 446.375H79.6903L71.3363 457.383C70.7151 458.204 70.5815 459.32 70.9867 460.294C71.3929 461.269 72.2439 461.875 73.2083 461.875H76.4829L67.9418 472.832C67.3004 473.655 67.155 474.781 67.5612 475.77C67.9621 476.745 68.8442 477.375 69.8074 477.375H84.4392V480.335L81.2009 486.196C80.6321 487.485 81.4596 489.001 82.7308 489.001H92.99C94.2611 489.001 95.0886 487.485 94.5199 486.196L91.2815 480.335V477.375H105.913C106.877 477.375 107.759 476.745 108.16 475.77C108.566 474.781 108.42 473.655 107.779 472.832Z" fill="black"/>
</g>
</g>
<g clip-path="url(#clip3_59_1339)">
<path d="M134.215 465.139L123.189 451H127.416C128.66 451 129.76 450.218 130.284 448.959C130.809 447.703 130.636 446.262 129.831 445.201L119.048 431H123.035C124.291 431 125.423 430.164 125.914 428.873C126.4 427.603 126.171 426.125 125.329 425.111L110.11 406.754C109.277 405.747 107.725 405.747 106.891 406.754L91.6701 425.111C90.8282 426.125 90.6004 427.603 91.0849 428.873C91.5762 430.164 92.7094 431 93.9654 431H97.9528L87.1679 445.204C86.366 446.264 86.1934 447.703 86.7165 448.961C87.241 450.218 88.3397 451 89.5846 451H93.8122L82.7857 465.139C81.9576 466.2 81.7699 467.653 82.2943 468.929C82.8119 470.187 83.9506 471 85.1942 471H104.084V474.82L99.903 482.383C99.1688 484.045 100.237 486.001 101.878 486.001H115.123C116.764 486.001 117.832 484.045 117.098 482.383L112.917 474.82V471H131.807C133.05 471 134.189 470.187 134.706 468.929C135.231 467.653 135.043 466.2 134.215 465.139Z" fill="black"/>
</g>
<path d="M199.523 440.542L198.422 440.885C199.065 443.437 199.946 444.778 200.951 445.478C201.97 446.194 203.146 446.255 204.431 446.126C206.14 445.951 208.068 445.395 210.036 446.21C210.57 446.476 211.13 446.815 211.725 447.265C212.039 447.158 212.313 447.021 212.586 446.922C212.586 446.922 212.805 446.141 212.449 445.143C212.142 444.267 211.376 443.163 209.442 442.386L209.059 443.574C210.248 444.062 210.891 444.663 211.219 445.235C211.267 445.318 211.301 445.395 211.335 445.471C211.075 445.318 210.809 445.181 210.549 445.075C208.628 444.084 207.09 444.024 205.86 443.871C205.203 443.795 204.65 443.704 204.192 443.338C203.734 442.965 203.392 442.317 203.098 441.19L202.004 441.548C202.394 443.041 202.913 443.864 203.522 444.359C203.795 444.58 204.089 444.74 204.404 444.854C203.323 444.919 202.305 444.905 201.553 444.404C200.719 443.818 200.056 442.66 199.523 440.542ZM205.641 440.817C205.579 441.67 205.716 442.363 205.942 442.927C206.468 443 206.926 443.01 207.404 443.102C207.035 442.645 206.707 441.944 206.776 440.908L205.641 440.817ZM213.864 441.845L213.119 442.797C213.68 443.346 213.837 444.001 213.837 444.557C213.536 444.258 213.263 444.059 212.942 443.879C213.434 444.52 213.502 445.658 213.536 446.271L214.596 446.4C214.596 446.4 215.799 443.719 213.864 441.845ZM208.348 447.128C207.152 447.28 206.516 446.929 206.133 448.179C206.133 448.179 207.418 450.304 210.843 450.251C210.652 451.119 210.74 451.759 210.74 452.528C210.74 455.088 208.895 457.319 204.827 457.319C202.763 457.319 200.254 457.731 198.34 458.881C196.98 459.696 195.915 460.877 195.444 462.514L195.978 463.345L197 463.36V468.06L195.753 470.215L196.112 476.461H197.294L197.397 471.434C197.985 471.053 199.331 470.063 200.48 468.539C202.038 466.49 203.235 463.512 201.826 459.825L202.879 459.33C204.034 462.354 203.631 464.975 202.619 467.085C204.554 467.016 206.215 466.879 207.623 466.62L207.302 462.331L208.437 462.225L209.517 476.461H210.693L210.891 467.191C211.827 466.749 213.96 465.127 214.958 459.49C215.081 458.805 215.15 458.226 215.184 457.731C215.341 456.474 215.43 455.057 215.457 453.442L213.782 452.856H218.93L219.429 451.599C218.944 451.622 218.362 451.34 218.362 451.34L218.479 450.73H219.559L213.714 447.356C213.065 447.63 212.381 447.988 211.903 448.422C211.52 448.118 210.194 447.166 208.348 447.128ZM214.876 464.388C214.213 465.767 213.502 466.795 212.887 467.526L216.107 469.111L214.678 472.729L215.703 473.262L217.987 468.326L214.958 465.477C214.931 465.302 214.897 464.959 214.876 464.388ZM204.362 468.258C203.59 468.311 202.77 468.349 201.895 468.364C201.3 469.24 200.616 470.086 199.905 470.741L200.5 476.454H201.669V471.503C202.168 471.046 203.371 469.88 204.362 468.258Z" fill="black"/>
<path d="M220.883 433.74L219.625 434.127C220.359 437.006 221.367 438.518 222.515 439.309C223.679 440.117 225.023 440.186 226.492 440.039C228.445 439.842 230.648 439.214 232.898 440.134C233.508 440.435 234.148 440.817 234.828 441.324C235.187 441.204 235.5 441.049 235.812 440.938C235.812 440.938 236.062 440.057 235.656 438.931C235.304 437.943 234.429 436.696 232.219 435.82L231.781 437.161C233.14 437.711 233.875 438.389 234.25 439.034C234.304 439.129 234.344 439.214 234.383 439.3C234.086 439.129 233.781 438.974 233.484 438.854C231.289 437.736 229.531 437.668 228.125 437.496C227.375 437.41 226.742 437.307 226.219 436.894C225.695 436.473 225.304 435.743 224.969 434.471L223.719 434.875C224.164 436.559 224.758 437.487 225.453 438.046C225.765 438.295 226.101 438.475 226.461 438.604C225.226 438.677 224.062 438.662 223.203 438.097C222.25 437.436 221.492 436.129 220.883 433.74ZM227.875 434.05C227.804 435.012 227.961 435.794 228.219 436.43C228.82 436.513 229.344 436.525 229.89 436.628C229.469 436.112 229.094 435.321 229.172 434.153L227.875 434.05ZM237.273 435.21L236.422 436.284C237.062 436.903 237.242 437.642 237.242 438.269C236.898 437.932 236.586 437.708 236.219 437.504C236.781 438.228 236.859 439.512 236.898 440.203L238.109 440.349C238.109 440.349 239.484 437.324 237.273 435.21ZM230.969 441.17C229.601 441.341 228.875 440.946 228.437 442.355C228.437 442.355 229.906 444.753 233.82 444.693C233.601 445.673 233.703 446.395 233.703 447.263C233.703 450.15 231.594 452.668 226.945 452.668C224.586 452.668 221.719 453.132 219.531 454.43C217.976 455.349 216.76 456.681 216.222 458.529L216.832 459.466L218 459.483V464.785L216.575 467.217L216.984 474.264H218.336L218.453 468.592C219.125 468.162 220.664 467.045 221.976 465.327C223.758 463.015 225.125 459.655 223.515 455.495L224.719 454.937C226.039 458.348 225.578 461.305 224.422 463.685C226.633 463.608 228.531 463.453 230.14 463.161L229.773 458.323L231.07 458.202L232.304 474.264H233.648L233.875 463.805C234.945 463.307 237.383 461.477 238.523 455.117C238.664 454.344 238.742 453.691 238.781 453.132C238.961 451.714 239.062 450.116 239.094 448.294L237.179 447.632H243.062L243.633 446.214C243.078 446.24 242.414 445.922 242.414 445.922L242.547 445.234H243.781L237.101 441.427C236.359 441.737 235.578 442.141 235.031 442.63C234.594 442.287 233.078 441.212 230.969 441.17ZM238.429 460.643C237.672 462.198 236.859 463.359 236.156 464.184L239.836 465.971L238.203 470.053L239.375 470.655L241.984 465.086L238.523 461.872C238.492 461.674 238.453 461.287 238.429 460.643ZM226.414 465.009C225.531 465.069 224.594 465.112 223.594 465.129C222.914 466.117 222.133 467.071 221.32 467.81L222 474.255H223.336V468.67C223.906 468.154 225.281 466.839 226.414 465.009Z" fill="black"/>
<path d="M920.971 533.938L919.587 534.369C920.395 537.575 921.504 539.259 922.767 540.14C924.047 541.039 925.525 541.116 927.141 540.953C929.29 540.733 931.713 540.034 934.188 541.058C934.858 541.393 935.563 541.819 936.311 542.384C936.706 542.25 937.05 542.078 937.393 541.953C937.393 541.953 937.668 540.972 937.222 539.718C936.835 538.618 935.872 537.23 933.44 536.254L932.959 537.747C934.454 538.359 935.262 539.116 935.675 539.833C935.735 539.939 935.778 540.034 935.821 540.13C935.494 539.939 935.159 539.766 934.832 539.632C932.418 538.388 930.484 538.312 928.937 538.12C928.112 538.025 927.416 537.91 926.84 537.45C926.265 536.981 925.835 536.168 925.465 534.751L924.09 535.201C924.58 537.077 925.233 538.111 925.998 538.733C926.342 539.01 926.711 539.211 927.107 539.355C925.749 539.436 924.468 539.419 923.523 538.79C922.475 538.053 921.641 536.599 920.971 533.938ZM928.662 534.283C928.585 535.354 928.757 536.225 929.04 536.933C929.702 537.025 930.278 537.039 930.879 537.154C930.415 536.579 930.003 535.699 930.089 534.397L928.662 534.283ZM939 535.575L938.064 536.771C938.768 537.46 938.966 538.283 938.966 538.982C938.588 538.606 938.244 538.357 937.84 538.13C938.459 538.936 938.545 540.365 938.588 541.135L939.92 541.298C939.92 541.298 941.432 537.929 939 535.575ZM932.065 542.212C930.561 542.403 929.762 541.963 929.281 543.532C929.281 543.532 930.897 546.202 935.202 546.135C934.961 547.226 935.073 548.03 935.073 548.997C935.073 552.213 932.753 555.017 927.64 555.017C925.044 555.017 921.89 555.533 919.484 556.979C917.774 558.003 916.436 559.486 915.844 561.544L916.515 562.587L917.8 562.606V568.511L916.232 571.219L916.683 579.067H918.169L918.298 572.75C919.037 572.272 920.73 571.028 922.174 569.114C924.133 566.539 925.637 562.797 923.867 558.165L925.19 557.543C926.643 561.343 926.136 564.635 924.864 567.286C927.296 567.2 929.384 567.027 931.154 566.702L930.75 561.314L932.177 561.18L933.535 579.067H935.013L935.262 567.42C936.44 566.865 939.121 564.826 940.375 557.744C940.53 556.883 940.616 556.155 940.659 555.533C940.857 553.954 940.968 552.174 941.003 550.145L938.897 549.408H945.368L945.996 547.829C945.386 547.858 944.655 547.504 944.655 547.504L944.801 546.738H946.159L938.811 542.499C937.995 542.843 937.136 543.293 936.534 543.838C936.053 543.456 934.386 542.259 932.065 542.212ZM940.272 563.898C939.439 565.63 938.545 566.922 937.772 567.841L941.819 569.831L940.023 574.377L941.312 575.047L944.182 568.846L940.375 565.266C940.341 565.046 940.298 564.616 940.272 563.898ZM927.055 568.76C926.084 568.827 925.053 568.874 923.953 568.894C923.205 569.994 922.346 571.056 921.452 571.879L922.2 579.057H923.669V572.837C924.297 572.262 925.809 570.798 927.055 568.76Z" fill="black"/>
<path d="M947.162 547.305L946.218 547.595C946.769 549.754 947.525 550.889 948.386 551.482C949.259 552.088 950.267 552.139 951.369 552.03C952.834 551.881 954.486 551.411 956.173 552.1C956.63 552.326 957.111 552.613 957.621 552.993C957.89 552.903 958.125 552.787 958.359 552.703C958.359 552.703 958.546 552.042 958.242 551.198C957.978 550.457 957.322 549.522 955.664 548.865L955.336 549.87C956.355 550.283 956.906 550.792 957.187 551.275C957.228 551.346 957.257 551.411 957.287 551.475C957.064 551.346 956.836 551.23 956.613 551.14C954.966 550.302 953.648 550.251 952.593 550.122C952.031 550.057 951.556 549.98 951.164 549.671C950.771 549.355 950.478 548.807 950.226 547.853L949.289 548.156C949.623 549.419 950.068 550.115 950.589 550.534C950.824 550.721 951.076 550.857 951.345 550.953C950.42 551.008 949.546 550.996 948.902 550.573C948.187 550.077 947.619 549.097 947.162 547.305ZM952.406 547.537C952.353 548.259 952.47 548.846 952.664 549.323C953.115 549.384 953.507 549.393 953.918 549.471C953.601 549.084 953.32 548.491 953.379 547.615L952.406 547.537ZM959.455 548.407L958.816 549.213C959.296 549.677 959.431 550.231 959.431 550.702C959.173 550.449 958.939 550.281 958.664 550.128C959.086 550.671 959.144 551.634 959.173 552.152L960.082 552.262C960.082 552.262 961.113 549.993 959.455 548.407ZM954.726 552.877C953.701 553.006 953.156 552.71 952.828 553.767C952.828 553.767 953.929 555.565 956.865 555.52C956.701 556.254 956.777 556.796 956.777 557.447C956.777 559.613 955.195 561.501 951.709 561.501C949.939 561.501 947.789 561.849 946.148 562.822C944.982 563.512 944.07 564.511 943.666 565.897L944.124 566.599L945 566.612V570.589L943.931 572.413L944.238 577.698H945.252L945.339 573.444C945.843 573.122 946.998 572.284 947.982 570.995C949.318 569.261 950.343 566.741 949.136 563.621L950.039 563.203C951.029 565.761 950.683 567.979 949.816 569.764C951.474 569.706 952.898 569.59 954.105 569.371L953.83 565.742L954.802 565.652L955.728 577.698H956.736L956.906 569.854C957.709 569.48 959.537 568.107 960.392 563.338C960.498 562.758 960.556 562.268 960.586 561.849C960.72 560.786 960.796 559.587 960.82 558.22L959.384 557.724H963.796L964.224 556.661C963.808 556.68 963.31 556.441 963.31 556.441L963.41 555.926H964.336L959.326 553.071C958.769 553.303 958.183 553.605 957.773 553.973C957.445 553.715 956.308 552.909 954.726 552.877ZM960.322 567.482C959.754 568.649 959.144 569.519 958.617 570.138L961.377 571.478L960.152 574.54L961.031 574.991L962.988 570.814L960.392 568.404C960.369 568.256 960.339 567.966 960.322 567.482ZM951.31 570.756C950.648 570.802 949.945 570.834 949.195 570.847C948.685 571.588 948.099 572.303 947.49 572.858L948 577.692H949.002V573.502C949.429 573.115 950.461 572.129 951.31 570.756Z" fill="black"/>
<path d="M903.714 557.87L903.053 558.063C903.439 559.503 903.968 560.259 904.571 560.654C905.182 561.058 905.887 561.093 906.659 561.02C907.684 560.921 908.841 560.607 910.022 561.067C910.342 561.217 910.678 561.409 911.035 561.662C911.224 561.602 911.388 561.525 911.552 561.469C911.552 561.469 911.683 561.028 911.47 560.465C911.285 559.971 910.826 559.348 909.665 558.91L909.435 559.58C910.149 559.855 910.534 560.195 910.731 560.517C910.76 560.564 910.781 560.607 910.801 560.65C910.645 560.564 910.485 560.487 910.329 560.427C909.177 559.868 908.254 559.834 907.516 559.748C907.122 559.705 906.79 559.653 906.515 559.447C906.24 559.237 906.035 558.871 905.859 558.235L905.202 558.437C905.436 559.279 905.748 559.744 906.113 560.023C906.277 560.147 906.453 560.238 906.642 560.302C905.994 560.339 905.383 560.331 904.932 560.049C904.431 559.718 904.034 559.065 903.714 557.87ZM907.384 558.025C907.348 558.506 907.43 558.897 907.565 559.215C907.881 559.256 908.156 559.262 908.443 559.314C908.221 559.056 908.024 558.661 908.065 558.076L907.384 558.025ZM912.319 558.605L911.872 559.142C912.208 559.451 912.302 559.821 912.302 560.135C912.122 559.966 911.958 559.854 911.765 559.752C912.06 560.114 912.101 560.756 912.122 561.101L912.758 561.174C912.758 561.174 913.479 559.662 912.319 558.605ZM909.009 561.585C908.291 561.671 907.909 561.473 907.68 562.178C907.68 562.178 908.451 563.377 910.506 563.346C910.391 563.836 910.444 564.197 910.444 564.631C910.444 566.075 909.337 567.334 906.896 567.334C905.658 567.334 904.152 567.566 903.004 568.215C902.188 568.675 901.549 569.341 901.267 570.264L901.587 570.733L902.2 570.741V573.393L901.452 574.609L901.667 578.132H902.376L902.438 575.296C902.791 575.081 903.599 574.523 904.288 573.663C905.223 572.507 905.941 570.827 905.096 568.748L905.727 568.468C906.421 570.174 906.179 571.652 905.572 572.843C906.732 572.804 907.729 572.727 908.574 572.58L908.381 570.161L909.062 570.101L909.71 578.132H910.416L910.534 572.903C911.096 572.654 912.376 571.738 912.975 568.559C913.049 568.172 913.09 567.845 913.11 567.566C913.205 566.857 913.258 566.058 913.274 565.147L912.269 564.816H915.358L915.657 564.107C915.366 564.12 915.018 563.961 915.018 563.961L915.087 563.617H915.735L912.228 561.714C911.839 561.868 911.429 562.07 911.142 562.315C910.912 562.143 910.116 561.606 909.009 561.585ZM912.926 571.321C912.528 572.099 912.101 572.679 911.732 573.092L913.664 573.986L912.807 576.027L913.422 576.327L914.792 573.543L912.975 571.936C912.959 571.837 912.938 571.644 912.926 571.321ZM906.618 573.504C906.154 573.534 905.662 573.556 905.137 573.564C904.78 574.059 904.37 574.536 903.943 574.905L904.3 578.128H905.001V575.335C905.301 575.077 906.023 574.42 906.618 573.504Z" fill="black"/>
<g clip-path="url(#clip4_59_1339)">
<path d="M177.067 461.227L163.96 444.437H168.985C170.463 444.437 171.771 443.509 172.394 442.014C173.018 440.522 172.813 438.811 171.856 437.552L159.038 420.687H163.778C165.271 420.687 166.616 419.695 167.2 418.162C167.778 416.653 167.505 414.898 166.504 413.694L148.413 391.896C147.424 390.699 145.578 390.699 144.587 391.896L126.494 413.694C125.494 414.898 125.223 416.653 125.799 418.162C126.383 419.695 127.73 420.687 129.223 420.687H133.963L121.143 437.555C120.19 438.813 119.984 440.522 120.606 442.016C121.23 443.509 122.536 444.437 124.015 444.437H129.041L115.934 461.227C114.949 462.487 114.726 464.213 115.35 465.729C115.965 467.222 117.318 468.187 118.797 468.187H141.25V472.724L136.281 481.704C135.408 483.678 136.678 486.002 138.629 486.002H154.372C156.323 486.002 157.593 483.678 156.72 481.704L151.75 472.724V468.187H174.204C175.682 468.187 177.036 467.222 177.651 465.729C178.274 464.213 178.051 462.487 177.067 461.227Z" fill="black"/>
</g>
<g clip-path="url(#clip5_59_1339)">
<path d="M1278.77 488.665L1261.5 466.75H1268.12C1270.07 466.75 1271.79 465.539 1272.61 463.587C1273.44 461.64 1273.17 459.407 1271.91 457.762L1255.02 435.75H1261.26C1263.23 435.75 1265 434.454 1265.77 432.454C1266.53 430.485 1266.17 428.194 1264.85 426.622L1241.02 398.17C1239.72 396.608 1237.29 396.608 1235.98 398.17L1212.14 426.622C1210.82 428.194 1210.47 430.485 1211.23 432.454C1212 434.454 1213.77 435.75 1215.74 435.75H1221.98L1205.09 457.767C1203.84 459.409 1203.57 461.64 1204.39 463.589C1205.21 465.539 1206.93 466.75 1208.88 466.75H1215.5L1198.23 488.665C1196.93 490.31 1196.64 492.562 1197.46 494.541C1198.27 496.49 1200.05 497.75 1202 497.75H1231.58V503.671L1225.04 515.393C1223.89 517.97 1225.56 521.002 1228.13 521.002H1248.87C1251.44 521.002 1253.11 517.97 1251.96 515.393L1245.42 503.671V497.75H1275C1276.95 497.75 1278.73 496.49 1279.54 494.541C1280.36 492.562 1280.07 490.31 1278.77 488.665Z" fill="black"/>
</g>
<g clip-path="url(#clip6_59_1339)">
<path d="M1219.45 515.919L1211.75 506.375H1214.71C1215.57 506.375 1216.34 505.847 1216.71 504.997C1217.07 504.149 1216.95 503.177 1216.39 502.461L1208.86 492.875H1211.65C1212.52 492.875 1213.31 492.311 1213.66 491.439C1214 490.582 1213.84 489.584 1213.25 488.9L1202.62 476.509C1202.04 475.829 1200.96 475.829 1200.38 476.509L1189.75 488.9C1189.16 489.584 1189 490.582 1189.34 491.439C1189.69 492.311 1190.48 492.875 1191.35 492.875H1194.14L1186.61 502.463C1186.05 503.178 1185.93 504.149 1186.29 504.998C1186.66 505.847 1187.43 506.375 1188.3 506.375H1191.25L1183.55 515.919C1182.97 516.635 1182.84 517.616 1183.21 518.477C1183.57 519.326 1184.36 519.875 1185.23 519.875H1198.42V522.454L1195.5 527.558C1194.99 528.68 1195.73 530.001 1196.88 530.001H1206.12C1207.27 530.001 1208.02 528.68 1207.5 527.558L1204.58 522.454V519.875H1217.77C1218.64 519.875 1219.43 519.326 1219.8 518.477C1220.16 517.616 1220.03 516.635 1219.45 515.919Z" fill="black"/>
</g>
<g clip-path="url(#clip7_59_1339)">
<path d="M1188.19 526.357L1176.74 511.687H1181.13C1182.42 511.687 1183.56 510.877 1184.11 509.57C1184.65 508.267 1184.47 506.772 1183.64 505.672L1172.45 490.937H1176.58C1177.89 490.937 1179.06 490.07 1179.57 488.731C1180.08 487.413 1179.84 485.88 1178.96 484.828L1163.17 465.783C1162.31 464.737 1160.7 464.737 1159.83 465.783L1144.03 484.828C1143.16 485.88 1142.92 487.413 1143.43 488.731C1143.94 490.07 1145.11 490.937 1146.42 490.937H1150.55L1139.36 505.675C1138.53 506.774 1138.35 508.267 1138.89 509.572C1139.44 510.877 1140.58 511.687 1141.87 511.687H1146.26L1134.82 526.357C1133.96 527.457 1133.76 528.965 1134.31 530.29C1134.84 531.595 1136.02 532.437 1137.31 532.437H1156.92V536.401L1152.58 544.247C1151.82 545.972 1152.93 548.002 1154.63 548.002H1168.37C1170.08 548.002 1171.18 545.972 1170.42 544.247L1166.08 536.401V532.437H1185.69C1186.98 532.437 1188.16 531.595 1188.7 530.29C1189.24 528.965 1189.04 527.457 1188.19 526.357Z" fill="black"/>
</g>
<path d="M0 495.492C509.778 385.746 773.333 725.583 1280 495.492V659H0L0 495.492Z" fill="#231C3B"/>
<path d="M178.257 449.068L177.534 449.305C177.956 451.072 178.536 452 179.196 452.485C179.865 452.981 180.638 453.023 181.483 452.933C182.606 452.812 183.872 452.427 185.166 452.991C185.517 453.176 185.885 453.411 186.276 453.722C186.482 453.648 186.662 453.553 186.842 453.484C186.842 453.484 186.986 452.944 186.752 452.253C186.55 451.647 186.047 450.882 184.775 450.344L184.524 451.167C185.305 451.504 185.728 451.921 185.943 452.316C185.975 452.374 185.997 452.427 186.02 452.48C185.849 452.374 185.674 452.279 185.503 452.206C184.241 451.52 183.23 451.478 182.421 451.372C181.99 451.32 181.626 451.256 181.325 451.003C181.024 450.745 180.8 450.297 180.607 449.516L179.888 449.764C180.144 450.798 180.485 451.367 180.885 451.71C181.065 451.863 181.258 451.974 181.465 452.053C180.755 452.097 180.086 452.088 179.591 451.742C179.043 451.335 178.608 450.534 178.257 449.068ZM182.278 449.258C182.237 449.848 182.327 450.328 182.475 450.718C182.821 450.769 183.122 450.776 183.437 450.84C183.194 450.523 182.978 450.038 183.023 449.321L182.278 449.258ZM187.682 449.97L187.192 450.629C187.561 451.008 187.664 451.462 187.664 451.847C187.466 451.64 187.286 451.503 187.075 451.378C187.399 451.822 187.444 452.61 187.466 453.033L188.162 453.123C188.162 453.123 188.953 451.267 187.682 449.97ZM184.057 453.627C183.27 453.732 182.853 453.49 182.601 454.354C182.601 454.354 183.446 455.826 185.696 455.789C185.57 456.39 185.629 456.833 185.629 457.366C185.629 459.138 184.416 460.683 181.743 460.683C180.386 460.683 178.738 460.967 177.48 461.764C176.586 462.328 175.887 463.145 175.577 464.279L175.928 464.854L176.6 464.864V468.118L175.78 469.611L176.016 473.935H176.793L176.86 470.454C177.246 470.191 178.131 469.505 178.886 468.45C179.91 467.032 180.696 464.97 179.771 462.418L180.463 462.075C181.222 464.168 180.957 465.982 180.292 467.443C181.563 467.396 182.655 467.301 183.58 467.121L183.369 464.153L184.115 464.079L184.825 473.935H185.597L185.728 467.517C186.343 467.211 187.745 466.088 188.401 462.186C188.481 461.711 188.526 461.31 188.549 460.967C188.652 460.097 188.711 459.116 188.728 457.998L187.628 457.592H191.011L191.338 456.722C191.019 456.738 190.638 456.543 190.638 456.543L190.714 456.121H191.424L187.583 453.785C187.156 453.975 186.707 454.223 186.393 454.523C186.141 454.312 185.269 453.653 184.057 453.627ZM188.347 465.576C187.911 466.531 187.444 467.243 187.039 467.749L189.155 468.846L188.216 471.351L188.89 471.72L190.391 468.303L188.401 466.33C188.383 466.209 188.36 465.972 188.347 465.576ZM181.438 468.255C180.93 468.292 180.391 468.319 179.816 468.329C179.425 468.936 178.976 469.521 178.509 469.974L178.9 473.929H179.668V470.502C179.996 470.185 180.786 469.379 181.438 468.255Z" fill="black"/>
<path d="M182.027 79.6575L193.834 69.4725L178.947 69L174 53.25L169.054 69L154.167 69.4725L165.974 79.6575L161.727 95.7225L174 86.22L186.274 95.7225L182.027 79.6575Z" fill="#FFC700"/>
<path d="M202.513 112.312L210.167 105.75L200.553 105.487L197.333 95.25L194.113 105.487L184.5 105.75L192.153 112.312L189.4 122.707L197.333 116.565L205.267 122.707L202.513 112.312Z" fill="#FFC700"/>
<path d="M143.667 79.5001C143.667 111.42 166.627 137.25 195 137.25C197.473 137.25 199.9 137.04 202.28 136.673C194.767 149.64 181.793 158.25 167 158.25C143.807 158.25 125 137.093 125 111C125 94.3576 132.653 79.7626 144.18 71.3101C143.853 73.9876 143.667 76.7176 143.667 79.5001Z" fill="#FFC700" stroke="#FFC700" stroke-width="2" stroke-linecap="round" stroke-linejoin="round"/>
<g clip-path="url(#clip8_59_1339)">
<path d="M235.78 148.812C235.252 143.426 233.126 138.403 229.749 134.566C226.372 130.729 221.945 128.307 217.194 127.695C212.443 127.084 207.65 128.32 203.6 131.202C199.55 134.083 196.484 138.438 194.905 143.553C191.286 143.889 187.921 145.798 185.516 148.881C183.111 151.964 181.852 155.982 182.001 160.094C182.151 164.206 183.698 168.093 186.319 170.941C188.94 173.789 192.431 175.378 196.062 175.375H235.906C239.014 175.356 241.988 173.938 244.174 171.434C246.36 168.93 247.578 165.544 247.562 162.022C247.545 158.499 246.294 155.129 244.085 152.652C241.875 150.174 238.888 148.793 235.78 148.812Z" fill="black" fill-opacity="0.77"/>
<path d="M250.174 152.914C249.065 150.701 247.567 148.769 245.773 147.237C243.979 145.706 241.928 144.608 239.745 144.01C238.08 136.868 234.091 130.705 228.581 126.761C223.07 122.817 216.445 121.383 210.04 122.749C211.838 118.998 214.59 115.946 217.939 113.992C221.288 112.038 225.079 111.272 228.818 111.794C232.556 112.315 236.07 114.101 238.901 116.917C241.732 119.733 243.749 123.45 244.69 127.584C247.411 127.426 250.096 128.348 252.282 130.192C254.468 132.035 256.02 134.684 256.669 137.683C257.318 140.682 257.025 143.844 255.84 146.625C254.654 149.406 252.651 151.626 250.174 152.914Z" fill="black" fill-opacity="0.77"/>
</g>
<g clip-path="url(#clip9_59_1339)">
<path d="M139.78 163.812C139.252 158.426 137.126 153.403 133.749 149.566C130.372 145.729 125.945 143.307 121.194 142.695C116.443 142.084 111.65 143.32 107.6 146.202C103.55 149.083 100.484 153.438 98.9046 158.553C95.2855 158.889 91.9214 160.798 89.5163 163.881C87.1112 166.964 85.8516 170.982 86.0012 175.094C86.1508 179.206 87.698 183.093 90.3189 185.941C92.9398 188.789 96.4313 190.378 100.062 190.375H139.906C143.014 190.356 145.988 188.938 148.174 186.434C150.36 183.93 151.578 180.544 151.562 177.022C151.545 173.499 150.294 170.129 148.085 167.652C145.875 165.174 142.888 163.793 139.78 163.812Z" fill="black" fill-opacity="0.74"/>
<path d="M154.174 167.914C153.065 165.701 151.567 163.769 149.773 162.237C147.979 160.706 145.928 159.608 143.745 159.01C142.08 151.868 138.091 145.705 132.581 141.761C127.07 137.817 120.445 136.383 114.04 137.749C115.838 133.998 118.59 130.946 121.939 128.992C125.288 127.038 129.079 126.272 132.818 126.794C136.556 127.315 140.07 129.101 142.901 131.917C145.732 134.733 147.749 138.45 148.69 142.584C151.411 142.426 154.096 143.348 156.282 145.192C158.468 147.035 160.02 149.684 160.669 152.683C161.318 155.682 161.025 158.844 159.84 161.625C158.654 164.406 156.651 166.626 154.174 167.914Z" fill="black" fill-opacity="0.74"/>
</g>
<g clip-path="url(#clip10_59_1339)">
<path d="M186.497 185.812C185.962 180.426 183.808 175.403 180.386 171.566C176.964 167.729 172.478 165.307 167.663 164.695C162.849 164.084 157.992 165.32 153.888 168.202C149.784 171.083 146.677 175.438 145.077 180.553C141.409 180.889 138 182.798 135.563 185.881C133.126 188.964 131.85 192.982 132.001 197.094C132.153 201.206 133.721 205.093 136.377 207.941C139.032 210.789 142.57 212.378 146.25 212.375H186.625C189.774 212.356 192.788 210.938 195.003 208.434C197.218 205.93 198.453 202.544 198.436 199.022C198.419 195.499 197.151 192.129 194.912 189.652C192.673 187.174 189.646 185.793 186.497 185.812Z" fill="black" fill-opacity="0.77"/>
<path d="M201.084 189.914C199.959 187.701 198.442 185.769 196.624 184.237C194.806 182.706 192.727 181.608 190.515 181.01C188.828 173.868 184.786 167.705 179.202 163.761C173.617 159.817 166.905 158.383 160.414 159.749C162.236 155.998 165.025 152.946 168.419 150.992C171.812 149.038 175.654 148.272 179.442 148.794C183.23 149.315 186.791 151.101 189.66 153.917C192.528 156.733 194.572 160.45 195.526 164.584C198.284 164.426 201.004 165.348 203.219 167.192C205.435 169.035 207.007 171.684 207.665 174.683C208.322 177.682 208.025 180.844 206.824 183.625C205.623 186.406 203.593 188.626 201.084 189.914Z" fill="black" fill-opacity="0.77"/>
</g>
</g>
<defs>
<radialGradient id="paint0_radial_59_1339" cx="0" cy="0" r="1" gradientUnits="userSpaceOnUse" gradientTransform="translate(89.3332 -73.0599) rotate(30.9884) scale(1313.73 1638.77)">
<stop offset="0.347346" stop-color="#3919BB"/>
<stop offset="0.453188" stop-color="#510FDD"/>
<stop offset="0.602644" stop-color="#8C4FEC"/>
<stop offset="0.742014" stop-color="#1CA511"/>
<stop offset="0.820874" stop-color="#70B96F"/>
<stop offset="0.884743" stop-color="#E29967"/>
<stop offset="1" stop-color="#590CE8"/>
</radialGradient>
<clipPath id="clip0_59_1339">
<rect width="1280" height="603.333" fill="white"/>
</clipPath>
<clipPath id="clip1_59_1339">
<rect width="83" height="124" fill="white" transform="translate(12 378)"/>
</clipPath>
<clipPath id="clip2_59_1339">
<rect width="41.0538" height="62" fill="white" transform="translate(67.333 427)"/>
</clipPath>
<clipPath id="clip3_59_1339">
<rect width="53" height="80" fill="white" transform="translate(82 406)"/>
</clipPath>
<clipPath id="clip4_59_1339">
<rect width="63" height="95" fill="white" transform="translate(115 391)"/>
</clipPath>
<clipPath id="clip5_59_1339">
<rect width="83" height="124" fill="white" transform="translate(1197 397)"/>
</clipPath>
<clipPath id="clip6_59_1339">
<rect width="37" height="54" fill="white" transform="translate(1183 476)"/>
</clipPath>
<clipPath id="clip7_59_1339">
<rect width="55" height="83" fill="white" transform="translate(1134 465)"/>
</clipPath>
<clipPath id="clip8_59_1339">
<rect width="75" height="85" fill="white" transform="translate(182 101)"/>
</clipPath>
<clipPath id="clip9_59_1339">
<rect width="75" height="85" fill="white" transform="translate(86 116)"/>
</clipPath>
<clipPath id="clip10_59_1339">
<rect width="76" height="85" fill="white" transform="translate(132 138)"/>
</clipPath>
</defs>
</svg>
