<svg width="82" height="82" viewBox="0 0 82 82" fill="none" xmlns="http://www.w3.org/2000/svg">
<g clip-path="url(#clip0_34_62)">
<path d="M62.7812 0H19.2188C8.60453 0 0 8.60453 0 19.2188V62.7812C0 73.3955 8.60453 82 19.2188 82H62.7812C73.3955 82 82 73.3955 82 62.7812V19.2188C82 8.60453 73.3955 0 62.7812 0Z" fill="url(#paint0_radial_34_62)"/>
<path d="M62.7812 0H19.2188C8.60453 0 0 8.60453 0 19.2188V62.7812C0 73.3955 8.60453 82 19.2188 82H62.7812C73.3955 82 82 73.3955 82 62.7812V19.2188C82 8.60453 73.3955 0 62.7812 0Z" fill="url(#paint1_radial_34_62)"/>
<path d="M41.0029 8.96875C32.3038 8.96875 31.2119 9.00687 27.7954 9.16222C24.3854 9.31853 22.0577 9.85826 20.0211 10.6504C17.9141 11.4685 16.1271 12.563 14.3468 14.3439C12.5649 16.1245 11.4704 17.9116 10.6498 20.0176C9.85538 22.0548 9.31501 24.3835 9.16158 27.7919C9.00879 31.2087 8.96875 32.301 8.96875 41.0003C8.96875 49.6997 9.00719 50.7881 9.16222 54.2046C9.31917 57.6146 9.8589 59.9423 10.6504 61.9789C11.4691 64.0859 12.5636 65.8729 14.3446 67.6532C16.1245 69.4351 17.9116 70.5322 20.017 71.3502C22.0551 72.1424 24.3831 72.6821 27.7926 72.8384C31.2093 72.9938 32.3003 73.0319 40.999 73.0319C49.699 73.0319 50.7875 72.9938 54.2039 72.8384C57.614 72.6821 59.9442 72.1424 61.9824 71.3502C64.0884 70.5322 65.8729 69.4351 67.6526 67.6532C69.4345 65.8729 70.5286 64.0859 71.3496 61.9798C72.1369 59.9423 72.6776 57.614 72.8378 54.2052C72.9912 50.7887 73.0312 49.6997 73.0312 41.0003C73.0312 32.301 72.9912 31.2093 72.8378 27.7926C72.6776 24.3825 72.1369 22.0551 71.3496 20.0186C70.5286 17.9116 69.4345 16.1245 67.6526 14.3439C65.871 12.5623 64.0891 11.4678 61.9805 10.6507C59.9385 9.85826 57.6095 9.31821 54.1994 9.16222C50.7827 9.00687 49.6949 8.96875 40.993 8.96875H41.0029ZM38.1294 14.7411C38.9824 14.7398 39.934 14.7411 41.0029 14.7411C49.5555 14.7411 50.569 14.7719 53.9464 14.9253C57.0694 15.0681 58.7645 15.5899 59.8936 16.0284C61.3885 16.6088 62.4542 17.303 63.5747 18.4244C64.6958 19.5455 65.3896 20.6131 65.9716 22.108C66.4101 23.2355 66.9325 24.9306 67.0747 28.0536C67.2282 31.4303 67.2615 32.4445 67.2615 40.993C67.2615 49.5415 67.2282 50.5559 67.0747 53.9323C66.9319 57.0553 66.4101 58.7504 65.9716 59.8783C65.3912 61.3732 64.6958 62.4376 63.5747 63.558C62.4536 64.6791 61.3892 65.3729 59.8936 65.9536C58.7658 66.3941 57.0694 66.9146 53.9464 67.0574C50.5697 67.2109 49.5555 67.2442 41.0029 67.2442C32.4499 67.2442 31.4361 67.2109 28.0597 67.0574C24.9366 66.9133 23.2416 66.3915 22.1115 65.953C20.6169 65.3723 19.549 64.6785 18.4279 63.5574C17.3068 62.4363 16.613 61.3712 16.031 59.8757C15.5925 58.7479 15.0701 57.0528 14.9278 53.9297C14.7744 50.553 14.7437 49.5389 14.7437 40.9849C14.7437 32.4313 14.7744 31.4223 14.9278 28.0456C15.0707 24.9226 15.5925 23.2275 16.031 22.0984C16.6117 20.6035 17.3068 19.5359 18.4282 18.4148C19.5493 17.2937 20.6169 16.5996 22.1118 16.0179C23.2409 15.5774 24.9366 15.0569 28.0597 14.9134C31.0146 14.7799 32.1597 14.7398 38.1294 14.7331V14.7411ZM58.1012 20.0596C55.9791 20.0596 54.2574 21.7796 54.2574 23.902C54.2574 26.0241 55.9791 27.7458 58.1012 27.7458C60.2232 27.7458 61.9449 26.0241 61.9449 23.902C61.9449 21.78 60.2232 20.0583 58.1012 20.0583V20.0596ZM41.0029 24.5507C31.9188 24.5507 24.5536 31.9159 24.5536 41.0003C24.5536 50.0847 31.9188 57.4464 41.0029 57.4464C50.0873 57.4464 57.45 50.0847 57.45 41.0003C57.45 31.9163 50.0866 24.5507 41.0022 24.5507H41.0029ZM41.0029 30.323C46.8995 30.323 51.6802 35.103 51.6802 41.0003C51.6802 46.897 46.8995 51.6776 41.0029 51.6776C35.1059 51.6776 30.3259 46.897 30.3259 41.0003C30.3259 35.103 35.1059 30.323 41.0029 30.323Z" fill="white"/>
</g>
<defs>
<radialGradient id="paint0_radial_34_62" cx="0" cy="0" r="1" gradientUnits="userSpaceOnUse" gradientTransform="translate(21.7812 88.3156) rotate(-90) scale(81.2681 75.5857)">
<stop stop-color="#FFDD55"/>
<stop offset="0.1" stop-color="#FFDD55"/>
<stop offset="0.5" stop-color="#FF543E"/>
<stop offset="1" stop-color="#C837AB"/>
</radialGradient>
<radialGradient id="paint1_radial_34_62" cx="0" cy="0" r="1" gradientUnits="userSpaceOnUse" gradientTransform="translate(-13.7353 5.90688) rotate(78.681) scale(36.3273 149.742)">
<stop stop-color="#3771C8"/>
<stop offset="0.128" stop-color="#3771C8"/>
<stop offset="1" stop-color="#6600FF" stop-opacity="0"/>
</radialGradient>
<clipPath id="clip0_34_62">
<rect width="82" height="82" fill="white"/>
</clipPath>
</defs>
</svg>
