<svg width="87" height="88" viewBox="0 0 87 88" fill="none" xmlns="http://www.w3.org/2000/svg">
<path d="M68.875 11C70.7978 11 72.6419 11.7726 74.0015 13.1479C75.3612 14.5232 76.125 16.3884 76.125 18.3333V69.6667C76.125 71.6116 75.3612 73.4768 74.0015 74.8521C72.6419 76.2274 70.7978 77 68.875 77H18.125C16.2022 77 14.3581 76.2274 12.9985 74.8521C11.6388 73.4768 10.875 71.6116 10.875 69.6667V18.3333C10.875 16.3884 11.6388 14.5232 12.9985 13.1479C14.3581 11.7726 16.2022 11 18.125 11H68.875ZM67.0625 67.8333V48.4C67.0625 45.2298 65.8174 42.1894 63.6012 39.9477C61.385 37.706 58.3792 36.4467 55.245 36.4467C52.1637 36.4467 48.575 38.3533 46.835 41.2133V37.1433H36.7213V67.8333H46.835V49.7567C46.835 46.9333 49.0825 44.6233 51.8738 44.6233C53.2197 44.6233 54.5106 45.1642 55.4623 46.1269C56.4141 47.0895 56.9488 48.3952 56.9488 49.7567V67.8333H67.0625ZM24.94 31.3867C26.5552 31.3867 28.1042 30.7377 29.2463 29.5824C30.3884 28.4272 31.03 26.8604 31.03 25.2267C31.03 21.8167 28.3113 19.03 24.94 19.03C23.3152 19.03 21.757 19.6829 20.6081 20.845C19.4592 22.0071 18.8138 23.5832 18.8138 25.2267C18.8138 28.6367 21.5688 31.3867 24.94 31.3867ZM29.9788 67.8333V37.1433H19.9375V67.8333H29.9788Z" fill="black"/>
</svg>
