<svg width="767" height="640" viewBox="0 0 767 640" fill="none" xmlns="http://www.w3.org/2000/svg">
<g clip-path="url(#clip0_77_351)">
<rect width="767" height="640" fill="url(#paint0_radial_77_351)"/>
<g clip-path="url(#clip1_77_351)">
<path d="M562.822 635.724C585.032 635.724 603.038 617.547 603.038 595.125C603.038 572.702 585.032 554.525 562.822 554.525C540.611 554.525 522.605 572.702 522.605 595.125C522.605 617.547 540.611 635.724 562.822 635.724Z" fill="#F5EB35"/>
<path d="M559.441 633.496C565.87 633.496 571.081 628.235 571.081 621.745C571.081 615.255 565.87 609.994 559.441 609.994C553.012 609.994 547.801 615.255 547.801 621.745C547.801 628.235 553.012 633.496 559.441 633.496Z" fill="#E0CF35"/>
<path d="M575.318 585.402C575.318 586.058 575.19 586.707 574.941 587.312C574.693 587.917 574.329 588.467 573.869 588.931C573.41 589.394 572.865 589.761 572.265 590.012C571.666 590.263 571.023 590.392 570.374 590.391C569.724 590.391 569.082 590.262 568.482 590.011C567.882 589.76 567.338 589.392 566.879 588.929C566.42 588.465 566.056 587.915 565.807 587.31C565.559 586.704 565.431 586.055 565.432 585.4C565.432 584.076 565.953 582.807 566.88 581.871C567.808 580.936 569.065 580.41 570.376 580.411C571.687 580.411 572.944 580.937 573.871 581.873C574.798 582.809 575.319 584.079 575.318 585.402Z" fill="#E0CF35"/>
<path d="M529.977 605.652C532.656 605.652 534.828 603.459 534.828 600.754C534.828 598.05 532.656 595.857 529.977 595.857C527.298 595.857 525.126 598.05 525.126 600.754C525.126 603.459 527.298 605.652 529.977 605.652Z" fill="#E0CF35"/>
<path d="M530.414 581.104C531.943 581.104 533.183 579.852 533.183 578.308C533.183 576.764 531.943 575.512 530.414 575.512C528.884 575.512 527.645 576.764 527.645 578.308C527.645 579.852 528.884 581.104 530.414 581.104Z" fill="#E0CF35"/>
<path d="M548.902 579.249C548.902 580.409 548.446 581.521 547.633 582.341C546.821 583.161 545.719 583.622 544.571 583.622C543.422 583.622 542.32 583.161 541.508 582.341C540.696 581.521 540.239 580.409 540.239 579.249C540.239 578.089 540.696 576.977 541.508 576.157C542.32 575.337 543.422 574.876 544.571 574.876C545.719 574.876 546.821 575.337 547.633 576.157C548.446 576.977 548.902 578.089 548.902 579.249Z" fill="#E0CF35"/>
<path d="M576.57 574.471C579.939 574.471 582.67 571.714 582.67 568.313C582.67 564.912 579.939 562.155 576.57 562.155C573.201 562.155 570.47 564.912 570.47 568.313C570.47 571.714 573.201 574.471 576.57 574.471Z" fill="#E0CF35"/>
<g clip-path="url(#clip2_77_351)">
<path d="M554.904 572.91C554.84 572.277 554.58 571.686 554.169 571.235C553.757 570.783 553.218 570.499 552.639 570.427C552.059 570.355 551.475 570.5 550.982 570.839C550.488 571.178 550.114 571.69 549.922 572.292C549.481 572.331 549.071 572.556 548.778 572.918C548.484 573.281 548.331 573.754 548.349 574.237C548.367 574.721 548.556 575.178 548.875 575.513C549.195 575.848 549.62 576.035 550.063 576.035H554.919C555.298 576.032 555.661 575.866 555.927 575.571C556.193 575.276 556.342 574.878 556.34 574.464C556.338 574.05 556.185 573.653 555.916 573.362C555.647 573.071 555.283 572.908 554.904 572.91Z" fill="black" fill-opacity="0.77"/>
<path d="M556.658 573.393C556.523 573.132 556.341 572.905 556.122 572.725C555.903 572.545 555.653 572.416 555.387 572.345C555.184 571.505 554.698 570.781 554.026 570.317C553.355 569.853 552.547 569.684 551.767 569.845C551.986 569.404 552.321 569.045 552.729 568.815C553.138 568.585 553.6 568.495 554.055 568.556C554.511 568.618 554.939 568.828 555.284 569.159C555.629 569.49 555.875 569.927 555.99 570.413C556.322 570.395 556.649 570.503 556.915 570.72C557.182 570.937 557.371 571.249 557.45 571.601C557.529 571.954 557.493 572.326 557.349 572.653C557.204 572.98 556.96 573.241 556.658 573.393Z" fill="black" fill-opacity="0.77"/>
</g>
<g clip-path="url(#clip3_77_351)">
<path d="M543.477 574.881C543.413 574.199 543.154 573.562 542.742 573.076C542.33 572.59 541.791 572.284 541.212 572.206C540.633 572.129 540.048 572.285 539.555 572.65C539.061 573.015 538.688 573.567 538.495 574.215C538.054 574.257 537.644 574.499 537.351 574.89C537.058 575.28 536.904 575.789 536.922 576.31C536.941 576.831 537.129 577.323 537.449 577.684C537.768 578.044 538.194 578.246 538.636 578.245H543.492C543.871 578.243 544.234 578.063 544.5 577.746C544.767 577.429 544.915 577 544.913 576.554C544.911 576.108 544.759 575.681 544.489 575.367C544.22 575.053 543.856 574.878 543.477 574.881Z" fill="black" fill-opacity="0.74"/>
<path d="M545.232 575.4C545.096 575.12 544.914 574.875 544.695 574.681C544.476 574.487 544.226 574.348 543.96 574.273C543.757 573.368 543.271 572.587 542.6 572.088C541.928 571.588 541.121 571.407 540.34 571.58C540.559 571.105 540.894 570.718 541.303 570.471C541.711 570.223 542.173 570.126 542.629 570.192C543.084 570.258 543.512 570.484 543.857 570.841C544.203 571.198 544.448 571.668 544.563 572.192C544.895 572.172 545.222 572.289 545.488 572.522C545.755 572.756 545.944 573.091 546.023 573.471C546.102 573.851 546.067 574.252 545.922 574.604C545.778 574.956 545.533 575.237 545.232 575.4Z" fill="black" fill-opacity="0.74"/>
</g>
<g clip-path="url(#clip4_77_351)">
<path d="M548.809 577.524C548.745 576.891 548.486 576.3 548.074 575.849C547.662 575.398 547.123 575.113 546.544 575.041C545.965 574.969 545.38 575.114 544.887 575.453C544.393 575.792 544.02 576.304 543.827 576.906C543.386 576.945 542.976 577.17 542.683 577.532C542.39 577.895 542.236 578.368 542.254 578.851C542.273 579.335 542.461 579.792 542.781 580.127C543.1 580.462 543.526 580.649 543.968 580.649H548.825C549.203 580.646 549.566 580.48 549.832 580.185C550.099 579.89 550.247 579.492 550.245 579.078C550.243 578.664 550.091 578.267 549.821 577.976C549.552 577.685 549.188 577.522 548.809 577.524Z" fill="black" fill-opacity="0.77"/>
<path d="M550.564 578.007C550.428 577.746 550.246 577.519 550.027 577.339C549.809 577.159 549.558 577.03 549.292 576.959C549.09 576.119 548.603 575.395 547.932 574.931C547.26 574.467 546.453 574.298 545.672 574.459C545.891 574.018 546.226 573.659 546.635 573.429C547.043 573.199 547.505 573.109 547.961 573.17C548.416 573.232 548.844 573.442 549.19 573.773C549.535 574.104 549.78 574.541 549.895 575.027C550.227 575.009 550.554 575.117 550.82 575.334C551.087 575.551 551.276 575.863 551.355 576.215C551.434 576.568 551.399 576.94 551.254 577.267C551.11 577.594 550.865 577.855 550.564 578.007Z" fill="black" fill-opacity="0.77"/>
</g>
<path d="M540.421 562.929C540.421 562.929 542.984 562.32 544.793 563.538C544.793 563.538 545.095 565.821 546.301 565.821V564.755C546.301 564.755 546.602 565.364 547.205 565.364C547.808 565.364 548.11 564.755 548.11 564.755V565.821C549.316 565.821 549.618 563.538 549.618 563.538C551.427 562.32 553.99 562.929 553.99 562.929C552.784 563.538 552.633 565.669 552.633 565.669C550.221 565.669 550.221 567.647 550.221 567.647C547.205 567.039 547.205 569.322 547.205 569.322C547.205 569.322 547.205 567.039 544.19 567.647C544.19 567.647 544.19 565.669 541.778 565.669C541.778 565.669 541.627 563.538 540.421 562.929Z" fill="black"/>
</g>
<path d="M285.685 543.916H308.022L313.607 533.762H320.714L326.806 562.7H347.621V591.637H285.685V543.916Z" fill="#FFC700" fill-opacity="0.87"/>
<g filter="url(#filter0_d_77_351)">
<path d="M285.685 543.916H308.022L313.607 533.762H320.714L326.806 562.7H347.621V591.637H285.685V543.916Z" fill="#FFC700" fill-opacity="0.87" shape-rendering="crispEdges"/>
</g>
<path d="M341.443 571.584H334.505V564.646H341.443M341.443 585.46H334.505V578.522H341.443M320.628 543.831H313.69V536.893H320.628M320.628 557.707H313.69V550.769H320.628M320.628 571.584H313.69V564.646H320.628M320.628 585.46H313.69V578.522H320.628M299.814 557.707H292.876V550.769H299.814M299.814 571.584H292.876V564.646H299.814M299.814 585.46H292.876V578.522H299.814M327.567 557.707V536.893L317.159 526.486L306.752 536.893V543.831H285.938V592.398H348.381V557.707H327.567Z" fill="black"/>
<path d="M190.068 520.483H206.299L210.357 513.105H215.521L219.948 534.132H235.072V555.158H190.068V520.483Z" fill="#FFC700" fill-opacity="0.87"/>
<g filter="url(#filter1_d_77_351)">
<path d="M190.068 520.483H206.299L210.357 513.105H215.521L219.948 534.132H235.072V555.158H190.068V520.483Z" fill="#FFC700" fill-opacity="0.87" shape-rendering="crispEdges"/>
</g>
<path d="M230.583 540.588H225.542V535.546H230.583M230.583 550.67H225.542V545.629H230.583M215.459 520.422H210.418V515.38H215.459M215.459 530.505H210.418V525.463H215.459M215.459 540.588H210.418V535.546H215.459M215.459 550.67H210.418V545.629H215.459M200.335 530.505H195.293V525.463H200.335M200.335 540.588H195.293V535.546H200.335M200.335 550.67H195.293V545.629H200.335M220.5 530.505V515.38L212.938 507.818L205.376 515.38V520.422H190.252V555.712H235.625V530.505H220.5Z" fill="black"/>
<path d="M235.633 528.255H254.596L259.336 519.636H265.37L270.542 544.201H288.212V568.767H235.633V528.255Z" fill="#FFC700" fill-opacity="0.87"/>
<g filter="url(#filter2_d_77_351)">
<path d="M235.633 528.255H254.596L259.336 519.636H265.37L270.542 544.201H288.212V568.767H235.633V528.255Z" fill="#FFC700" fill-opacity="0.87" shape-rendering="crispEdges"/>
</g>
<path d="M282.967 551.744H277.077V545.854H282.967M282.967 563.524H277.077V557.634H282.967M265.297 528.184H259.407V522.294H265.297M265.297 539.964H259.407V534.074H265.297M265.297 551.744H259.407V545.854H265.297M265.297 563.524H259.407V557.634H265.297M247.627 539.964H241.737V534.074H247.627M247.627 551.744H241.737V545.854H247.627M247.627 563.524H241.737V557.634H247.627M271.187 539.964V522.294L262.352 513.459L253.517 522.294V528.184H235.847V569.414H288.857V539.964H271.187Z" fill="black"/>
<path d="M151.454 529.161H165.757L169.332 522.659H173.883L177.784 541.188H191.111V559.716H151.454V529.161Z" fill="#FFC700" fill-opacity="0.87"/>
<g filter="url(#filter3_d_77_351)">
<path d="M151.454 529.161H165.757L169.332 522.659H173.883L177.784 541.188H191.111V559.716H151.454V529.161Z" fill="#FFC700" fill-opacity="0.87" shape-rendering="crispEdges"/>
</g>
<path d="M187.159 546.876H182.716V542.433H187.159M187.159 555.761H182.716V551.318H187.159M173.831 529.106H169.389V524.664H173.831M173.831 537.991H169.389V533.549H173.831M173.831 546.876H169.389V542.433H173.831M173.831 555.761H169.389V551.318H173.831M160.504 537.991H156.062V533.549H160.504M160.504 546.876H156.062V542.433H160.504M160.504 555.761H156.062V551.318H160.504M178.274 537.991V524.664L171.61 518L164.946 524.664V529.106H151.619V560.203H191.601V537.991H178.274Z" fill="black"/>
<g clip-path="url(#clip5_77_351)">
<path d="M56.7666 544.125L46.1285 530.946H50.2072C51.4069 530.946 52.4682 530.217 52.9742 529.044C53.4802 527.873 53.3138 526.53 52.5375 525.541L42.1337 512.303H45.9807C47.1924 512.303 48.2844 511.524 48.7584 510.321C49.2271 509.137 49.0061 507.759 48.1938 506.814L33.5103 489.704C32.7073 488.764 31.2093 488.764 30.405 489.704L15.7202 506.814C14.9079 507.759 14.6882 509.137 15.1556 510.321C15.6296 511.524 16.7229 512.303 17.9346 512.303H21.7816L11.3765 525.544C10.6028 526.531 10.4364 527.873 10.9411 529.045C11.4471 530.217 12.507 530.946 13.7081 530.946H17.7868L7.14869 544.125C6.34973 545.114 6.16863 546.468 6.67464 547.658C7.17399 548.831 8.27255 549.588 9.47232 549.588H27.6965V553.149L23.6631 560.198C22.9547 561.748 23.9854 563.571 25.5687 563.571H38.3467C39.9299 563.571 40.9606 561.748 40.2522 560.198L36.2188 553.149V549.588H54.443C55.6428 549.588 56.7413 548.831 57.2407 547.658C57.7467 546.468 57.5656 545.114 56.7666 544.125Z" fill="black"/>
<g clip-path="url(#clip6_77_351)">
<path d="M65.3971 546.029L60.1353 539.439H62.1527C62.7461 539.439 63.2711 539.075 63.5213 538.488C63.7716 537.903 63.6893 537.232 63.3053 536.737L58.1594 530.118H60.0622C60.6615 530.118 61.2016 529.729 61.4361 529.127C61.6679 528.535 61.5586 527.846 61.1568 527.374L53.894 518.819C53.4969 518.349 52.7559 518.349 52.3581 518.819L45.0946 527.374C44.6928 527.846 44.5842 528.535 44.8153 529.127C45.0498 529.729 45.5906 530.118 46.1899 530.118H48.0927L42.9461 536.739C42.5635 537.232 42.4811 537.903 42.7307 538.489C42.981 539.075 43.5053 539.439 44.0994 539.439H46.1168L40.8549 546.029C40.4598 546.524 40.3702 547.201 40.6205 547.796C40.8675 548.382 41.4108 548.761 42.0043 548.761H51.0184V550.541L49.0234 554.066C48.673 554.841 49.1828 555.752 49.9659 555.752H56.2862C57.0693 555.752 57.5791 554.841 57.2287 554.066L55.2337 550.541V548.761H64.2478C64.8412 548.761 65.3846 548.382 65.6316 547.796C65.8819 547.201 65.7923 546.524 65.3971 546.029Z" fill="black"/>
</g>
</g>
<g clip-path="url(#clip7_77_351)">
<path d="M80.4873 542.269L73.8385 533.608H76.3877C77.1375 533.608 77.8008 533.13 78.1171 532.359C78.4333 531.589 78.3293 530.707 77.8441 530.057L71.3417 521.358H73.7461C74.5035 521.358 75.1859 520.846 75.4822 520.055C75.7751 519.277 75.637 518.372 75.1293 517.751L65.9521 506.507C65.4503 505.889 64.514 505.889 64.0113 506.507L54.8333 517.751C54.3256 518.372 54.1883 519.277 54.4804 520.055C54.7767 520.846 55.46 521.358 56.2173 521.358H58.6217L52.1185 530.059C51.635 530.708 51.5309 531.589 51.8463 532.359C52.1626 533.13 52.8251 533.608 53.5758 533.608H56.1249L49.4761 542.269C48.9768 542.919 48.8636 543.809 49.1798 544.591C49.4919 545.361 50.1785 545.859 50.9284 545.859H62.3185V548.199L59.7976 552.832C59.3549 553.85 59.999 555.048 60.9886 555.048H68.9748C69.9644 555.048 70.6085 553.85 70.1658 552.832L67.6449 548.199V545.859H79.035C79.7849 545.859 80.4715 545.361 80.7836 544.591C81.0998 543.809 80.9867 542.919 80.4873 542.269Z" fill="black"/>
</g>
<path d="M118.717 526.146L118.047 526.352C118.438 527.886 118.975 528.691 119.587 529.113C120.207 529.543 120.922 529.58 121.705 529.502C122.745 529.396 123.919 529.062 125.117 529.552C125.442 529.712 125.783 529.916 126.145 530.186C126.336 530.122 126.503 530.04 126.669 529.98C126.669 529.98 126.802 529.511 126.586 528.911C126.399 528.385 125.933 527.721 124.755 527.254L124.522 527.968C125.246 528.261 125.637 528.623 125.837 528.966C125.866 529.016 125.887 529.062 125.908 529.108C125.749 529.016 125.587 528.934 125.429 528.87C124.26 528.275 123.323 528.238 122.574 528.147C122.175 528.101 121.838 528.046 121.559 527.826C121.28 527.602 121.072 527.213 120.893 526.536L120.227 526.751C120.465 527.648 120.781 528.142 121.151 528.44C121.318 528.572 121.497 528.669 121.688 528.737C121.031 528.776 120.411 528.768 119.953 528.467C119.445 528.115 119.042 527.419 118.717 526.146ZM122.441 526.311C122.404 526.824 122.487 527.24 122.624 527.579C122.945 527.623 123.224 527.63 123.515 527.684C123.29 527.41 123.09 526.989 123.132 526.366L122.441 526.311ZM127.447 526.929L126.994 527.501C127.335 527.831 127.431 528.225 127.431 528.559C127.248 528.379 127.081 528.26 126.885 528.151C127.185 528.537 127.227 529.221 127.248 529.589L127.892 529.666C127.892 529.666 128.625 528.055 127.447 526.929ZM124.089 530.104C123.361 530.195 122.974 529.985 122.741 530.735C122.741 530.735 123.523 532.012 125.608 531.98C125.491 532.502 125.546 532.887 125.546 533.349C125.546 534.887 124.422 536.228 121.946 536.228C120.689 536.228 119.162 536.475 117.997 537.166C117.169 537.656 116.521 538.366 116.234 539.35L116.559 539.849L117.181 539.858V542.682L116.422 543.978L116.641 547.731H117.36L117.423 544.71C117.781 544.481 118.6 543.886 119.3 542.971C120.248 541.739 120.977 539.95 120.119 537.734L120.76 537.437C121.463 539.254 121.218 540.828 120.602 542.096C121.78 542.055 122.791 541.973 123.648 541.817L123.452 539.24L124.143 539.176L124.801 547.731H125.516L125.637 542.16C126.207 541.895 127.506 540.92 128.113 537.533C128.188 537.121 128.23 536.773 128.25 536.475C128.346 535.72 128.4 534.869 128.417 533.898L127.397 533.546H130.531L130.834 532.791C130.539 532.804 130.185 532.635 130.185 532.635L130.256 532.269H130.914L127.356 530.241C126.96 530.406 126.544 530.621 126.253 530.882C126.02 530.699 125.213 530.126 124.089 530.104ZM128.063 540.476C127.659 541.304 127.227 541.922 126.852 542.362L128.812 543.314L127.942 545.488L128.567 545.809L129.956 542.842L128.113 541.13C128.096 541.025 128.076 540.819 128.063 540.476ZM121.663 542.801C121.193 542.833 120.694 542.856 120.161 542.865C119.799 543.392 119.383 543.9 118.95 544.293L119.312 547.726H120.024V544.751C120.327 544.477 121.06 543.776 121.663 542.801Z" fill="black"/>
<path d="M132.079 524.1L131.342 524.325C131.772 525.997 132.362 526.876 133.035 527.336C133.717 527.805 134.505 527.845 135.365 527.76C136.509 527.645 137.8 527.281 139.118 527.815C139.476 527.99 139.851 528.212 140.249 528.507C140.46 528.437 140.643 528.347 140.826 528.282C140.826 528.282 140.972 527.77 140.734 527.116C140.528 526.542 140.016 525.818 138.72 525.308L138.464 526.087C139.26 526.407 139.691 526.801 139.91 527.176C139.942 527.231 139.965 527.281 139.988 527.331C139.814 527.231 139.636 527.141 139.462 527.071C138.176 526.422 137.146 526.382 136.322 526.282C135.882 526.232 135.512 526.172 135.205 525.932C134.898 525.688 134.669 525.263 134.472 524.524L133.74 524.759C134.001 525.738 134.349 526.277 134.756 526.602C134.939 526.746 135.136 526.851 135.347 526.926C134.624 526.969 133.941 526.96 133.438 526.632C132.88 526.247 132.436 525.488 132.079 524.1ZM136.175 524.28C136.134 524.839 136.226 525.293 136.377 525.663C136.729 525.711 137.036 525.718 137.356 525.778C137.109 525.478 136.889 525.019 136.935 524.34L136.175 524.28ZM141.682 524.954L141.183 525.578C141.558 525.937 141.664 526.367 141.664 526.731C141.462 526.536 141.279 526.405 141.064 526.287C141.393 526.707 141.439 527.453 141.462 527.855L142.172 527.94C142.172 527.94 142.977 526.182 141.682 524.954ZM137.988 528.417C137.187 528.517 136.761 528.287 136.505 529.106C136.505 529.106 137.365 530.499 139.659 530.464C139.53 531.033 139.59 531.453 139.59 531.957C139.59 533.635 138.354 535.098 135.631 535.098C134.248 535.098 132.568 535.368 131.287 536.122C130.376 536.656 129.663 537.43 129.348 538.504L129.705 539.048L130.389 539.058V542.139L129.555 543.552L129.794 547.647H130.586L130.655 544.351C131.049 544.101 131.95 543.452 132.719 542.453C133.763 541.11 134.564 539.158 133.621 536.741L134.326 536.416C135.1 538.399 134.83 540.116 134.152 541.5C135.447 541.455 136.56 541.365 137.503 541.195L137.288 538.384L138.047 538.314L138.771 547.647H139.558L139.691 541.57C140.318 541.28 141.746 540.216 142.414 536.521C142.497 536.072 142.542 535.692 142.565 535.368C142.671 534.544 142.73 533.615 142.748 532.556L141.627 532.172H145.074L145.408 531.348C145.083 531.363 144.694 531.178 144.694 531.178L144.772 530.779H145.495L141.581 528.567C141.146 528.746 140.689 528.981 140.368 529.266C140.112 529.066 139.224 528.442 137.988 528.417ZM142.359 539.732C141.915 540.636 141.439 541.31 141.027 541.789L143.183 542.828L142.227 545.2L142.913 545.549L144.442 542.314L142.414 540.446C142.396 540.331 142.373 540.106 142.359 539.732ZM135.319 542.269C134.802 542.304 134.253 542.329 133.667 542.339C133.269 542.913 132.811 543.467 132.335 543.897L132.733 547.642H133.516V544.396C133.85 544.096 134.656 543.332 135.319 542.269Z" fill="black"/>
<path d="M552.379 583.84L551.575 584.083C552.044 585.895 552.688 586.847 553.422 587.345C554.166 587.854 555.025 587.897 555.964 587.805C557.212 587.68 558.62 587.286 560.059 587.864C560.448 588.054 560.857 588.294 561.292 588.614C561.522 588.538 561.721 588.44 561.921 588.37C561.921 588.37 562.081 587.816 561.821 587.107C561.597 586.485 561.037 585.701 559.624 585.149L559.344 585.993C560.213 586.339 560.683 586.766 560.922 587.172C560.957 587.231 560.982 587.286 561.007 587.34C560.818 587.231 560.623 587.134 560.433 587.058C559.03 586.355 557.906 586.312 557.007 586.204C556.528 586.15 556.124 586.085 555.789 585.825C555.455 585.56 555.205 585.1 554.99 584.299L554.191 584.554C554.476 585.614 554.855 586.198 555.3 586.55C555.499 586.707 555.714 586.82 555.944 586.901C555.155 586.947 554.411 586.938 553.862 586.582C553.252 586.166 552.768 585.343 552.379 583.84ZM556.848 584.034C556.803 584.64 556.903 585.132 557.067 585.533C557.452 585.585 557.786 585.592 558.136 585.657C557.866 585.333 557.627 584.835 557.677 584.099L556.848 584.034ZM562.855 584.765L562.311 585.441C562.72 585.83 562.835 586.296 562.835 586.69C562.615 586.478 562.415 586.337 562.181 586.209C562.54 586.664 562.59 587.473 562.615 587.908L563.389 588C563.389 588 564.268 586.095 562.855 584.765ZM558.825 588.516C557.951 588.624 557.487 588.376 557.207 589.263C557.207 589.263 558.146 590.772 560.648 590.734C560.508 591.351 560.573 591.805 560.573 592.352C560.573 594.169 559.225 595.754 556.253 595.754C554.745 595.754 552.913 596.046 551.515 596.863C550.521 597.442 549.743 598.281 549.399 599.444L549.789 600.033L550.536 600.044V603.382L549.625 604.913L549.887 609.349H550.751L550.826 605.778C551.255 605.508 552.239 604.805 553.078 603.723C554.216 602.267 555.09 600.152 554.061 597.534L554.83 597.182C555.674 599.33 555.38 601.191 554.641 602.689C556.054 602.641 557.267 602.543 558.296 602.359L558.061 599.314L558.89 599.238L559.679 609.349H560.538L560.683 602.765C561.367 602.451 562.925 601.299 563.654 597.296C563.744 596.809 563.794 596.398 563.819 596.046C563.933 595.154 563.998 594.148 564.018 593.001L562.795 592.584H566.555L566.92 591.692C566.565 591.708 566.141 591.508 566.141 591.508L566.225 591.075H567.014L562.745 588.678C562.271 588.873 561.771 589.127 561.422 589.436C561.142 589.219 560.173 588.543 558.825 588.516ZM563.594 600.774C563.11 601.754 562.59 602.484 562.141 603.003L564.493 604.128L563.449 606.698L564.198 607.077L565.866 603.571L563.654 601.548C563.634 601.424 563.609 601.18 563.594 600.774ZM555.914 603.522C555.35 603.56 554.75 603.587 554.111 603.598C553.677 604.22 553.177 604.821 552.658 605.286L553.093 609.343H553.946V605.827C554.311 605.502 555.19 604.675 555.914 603.522Z" fill="black"/>
<g clip-path="url(#clip8_77_351)">
<path d="M567.103 591.941L566.567 592.09C566.88 593.206 567.31 593.792 567.799 594.098C568.295 594.411 568.868 594.437 569.493 594.381C570.326 594.304 571.265 594.061 572.223 594.417C572.483 594.534 572.756 594.682 573.046 594.879C573.199 594.832 573.332 594.772 573.465 594.729C573.465 594.729 573.571 594.387 573.398 593.951C573.249 593.569 572.876 593.086 571.934 592.746L571.747 593.266C572.326 593.479 572.639 593.742 572.799 593.991C572.822 594.028 572.839 594.061 572.856 594.095C572.729 594.028 572.599 593.968 572.473 593.921C571.537 593.489 570.788 593.462 570.189 593.395C569.87 593.362 569.6 593.322 569.377 593.162C569.154 592.999 568.987 592.716 568.844 592.224L568.312 592.38C568.501 593.033 568.754 593.392 569.051 593.608C569.184 593.705 569.327 593.775 569.48 593.825C568.954 593.853 568.458 593.847 568.092 593.628C567.686 593.372 567.363 592.866 567.103 591.941ZM570.083 592.061C570.053 592.433 570.119 592.736 570.229 592.983C570.486 593.015 570.709 593.019 570.942 593.059C570.762 592.859 570.602 592.553 570.635 592.1L570.083 592.061ZM574.087 592.51L573.725 592.926C573.998 593.166 574.074 593.452 574.074 593.695C573.928 593.565 573.795 593.478 573.638 593.399C573.878 593.679 573.911 594.176 573.928 594.444L574.444 594.501C574.444 594.501 575.03 593.329 574.087 592.51ZM571.401 594.819C570.818 594.885 570.509 594.732 570.322 595.278C570.322 595.278 570.948 596.207 572.616 596.183C572.523 596.563 572.566 596.843 572.566 597.179C572.566 598.297 571.667 599.273 569.687 599.273C568.681 599.273 567.459 599.453 566.527 599.955C565.865 600.311 565.347 600.827 565.117 601.543L565.377 601.906L565.875 601.913V603.967L565.268 604.909L565.442 607.639H566.018L566.068 605.441C566.354 605.275 567.01 604.842 567.569 604.176C568.328 603.281 568.911 601.979 568.225 600.368L568.738 600.152C569.3 601.473 569.104 602.618 568.611 603.541C569.553 603.511 570.362 603.451 571.048 603.337L570.892 601.463L571.444 601.417L571.97 607.639H572.543L572.639 603.587C573.095 603.394 574.134 602.685 574.62 600.222C574.68 599.922 574.713 599.669 574.73 599.453C574.807 598.903 574.85 598.284 574.863 597.578L574.048 597.322H576.554L576.797 596.773C576.561 596.783 576.278 596.66 576.278 596.66L576.335 596.393H576.861L574.014 594.918C573.698 595.038 573.365 595.195 573.132 595.385C572.946 595.251 572.3 594.835 571.401 594.819ZM574.58 602.362C574.257 602.965 573.911 603.414 573.611 603.734L575.179 604.426L574.484 606.007L574.983 606.24L576.095 604.083L574.62 602.838C574.607 602.762 574.59 602.612 574.58 602.362ZM569.46 604.053C569.084 604.077 568.685 604.093 568.258 604.1C567.969 604.483 567.636 604.852 567.29 605.138L567.579 607.635H568.149V605.471C568.392 605.272 568.977 604.762 569.46 604.053Z" fill="black"/>
</g>
<path d="M540.957 596.033L540.488 596.146C540.761 596.982 541.137 597.421 541.565 597.651C541.999 597.886 542.5 597.906 543.048 597.863C543.776 597.806 544.598 597.624 545.437 597.891C545.664 597.978 545.903 598.089 546.156 598.237C546.29 598.202 546.407 598.157 546.523 598.124C546.523 598.124 546.616 597.868 546.465 597.541C546.334 597.254 546.007 596.892 545.183 596.637L545.02 597.027C545.527 597.187 545.801 597.384 545.94 597.571C545.961 597.599 545.975 597.624 545.99 597.649C545.879 597.599 545.766 597.554 545.655 597.519C544.837 597.194 544.181 597.174 543.657 597.124C543.377 597.099 543.141 597.069 542.946 596.95C542.751 596.827 542.605 596.615 542.48 596.245L542.014 596.363C542.18 596.852 542.401 597.122 542.661 597.284C542.777 597.356 542.902 597.409 543.036 597.446C542.576 597.468 542.142 597.463 541.822 597.299C541.466 597.107 541.184 596.727 540.957 596.033ZM543.564 596.123C543.537 596.403 543.596 596.63 543.692 596.815C543.916 596.839 544.111 596.842 544.315 596.872C544.158 596.722 544.018 596.493 544.047 596.153L543.564 596.123ZM547.068 596.46L546.75 596.772C546.989 596.952 547.056 597.167 547.056 597.349C546.928 597.251 546.811 597.186 546.675 597.127C546.884 597.337 546.913 597.71 546.928 597.911L547.379 597.953C547.379 597.953 547.892 597.074 547.068 596.46ZM544.717 598.192C544.207 598.242 543.936 598.127 543.773 598.536C543.773 598.536 544.321 599.233 545.78 599.215C545.699 599.5 545.737 599.71 545.737 599.962C545.737 600.801 544.95 601.532 543.217 601.532C542.337 601.532 541.268 601.667 540.453 602.044C539.873 602.311 539.419 602.698 539.219 603.235L539.446 603.507L539.882 603.512V605.053L539.35 605.759L539.503 607.807H540.007L540.051 606.159C540.301 606.034 540.875 605.709 541.364 605.21C542.029 604.538 542.538 603.562 541.938 602.354L542.387 602.191C542.879 603.183 542.707 604.042 542.276 604.733C543.1 604.711 543.808 604.666 544.408 604.581L544.271 603.175L544.755 603.14L545.215 607.807H545.716L545.801 604.768C546.2 604.623 547.109 604.091 547.534 602.244C547.586 602.019 547.615 601.829 547.63 601.667C547.697 601.255 547.735 600.791 547.746 600.261L547.033 600.069H549.226L549.439 599.657C549.232 599.665 548.984 599.572 548.984 599.572L549.034 599.373H549.494L547.004 598.267C546.727 598.356 546.436 598.474 546.232 598.616C546.069 598.516 545.504 598.204 544.717 598.192ZM547.499 603.849C547.216 604.301 546.913 604.638 546.651 604.878L548.023 605.397L547.414 606.583L547.851 606.758L548.824 605.14L547.534 604.206C547.522 604.149 547.508 604.037 547.499 603.849ZM543.019 605.118C542.69 605.135 542.34 605.148 541.967 605.153C541.714 605.44 541.423 605.717 541.12 605.932L541.373 607.804H541.871V606.181C542.084 606.031 542.597 605.649 543.019 605.118Z" fill="black"/>
<g clip-path="url(#clip9_77_351)">
<path d="M105.959 540.047L97.9804 529.88H101.039C101.939 529.88 102.735 529.318 103.115 528.413C103.494 527.509 103.369 526.473 102.787 525.71L94.9843 515.499H97.8695C98.7784 515.499 99.5973 514.898 99.9528 513.969C100.304 513.056 100.139 511.993 99.5294 511.264L88.5168 498.065C87.9145 497.34 86.791 497.34 86.1878 498.065L75.1742 511.264C74.565 511.993 74.4002 513.056 74.7507 513.969C75.1062 514.898 75.9262 515.499 76.835 515.499H79.7202L71.9164 525.713C71.3362 526.474 71.2113 527.509 71.5898 528.414C71.9693 529.318 72.7643 529.88 73.6651 529.88H76.7241L68.7455 540.047C68.1463 540.81 68.0105 541.854 68.39 542.772C68.7645 543.677 69.5884 544.261 70.4883 544.261H84.1564V547.008L81.1314 552.446C80.6001 553.641 81.3731 555.048 82.5605 555.048H92.144C93.3315 555.048 94.1045 553.641 93.5732 552.446L90.5481 547.008V544.261H104.216C105.116 544.261 105.94 543.677 106.315 542.772C106.694 541.854 106.558 540.81 105.959 540.047Z" fill="black"/>
</g>
<g clip-path="url(#clip10_77_351)">
<path d="M766.242 555.333L755.604 542.53H759.683C760.883 542.53 761.944 541.823 762.45 540.683C762.956 539.545 762.789 538.241 762.013 537.28L751.609 524.421H755.456C756.668 524.421 757.76 523.664 758.234 522.495C758.703 521.345 758.482 520.006 757.669 519.088L742.986 502.467C742.183 501.554 740.685 501.554 739.881 502.467L725.196 519.088C724.383 520.006 724.164 521.345 724.631 522.495C725.105 523.664 726.198 524.421 727.41 524.421H731.257L720.852 537.283C720.078 538.242 719.912 539.545 720.417 540.684C720.923 541.823 721.983 542.53 723.184 542.53H727.262L716.624 555.333C715.825 556.294 715.644 557.61 716.15 558.765C716.65 559.904 717.748 560.64 718.948 560.64H737.172V564.099L733.139 570.947C732.43 572.452 733.461 574.224 735.044 574.224H747.822C749.406 574.224 750.436 572.452 749.728 570.947L745.694 564.099V560.64H763.919C765.118 560.64 766.217 559.904 766.716 558.765C767.222 557.61 767.041 556.294 766.242 555.333Z" fill="black"/>
</g>
<path d="M107.806 532.655L107.337 532.805C107.611 533.92 107.987 534.506 108.415 534.812C108.849 535.125 109.35 535.152 109.898 535.095C110.626 535.019 111.447 534.776 112.286 535.132C112.513 535.249 112.752 535.397 113.006 535.593C113.14 535.547 113.256 535.487 113.373 535.443C113.373 535.443 113.466 535.102 113.314 534.666C113.183 534.283 112.857 533.8 112.033 533.461L111.87 533.98C112.376 534.193 112.65 534.456 112.79 534.706C112.81 534.743 112.825 534.776 112.84 534.809C112.729 534.743 112.615 534.683 112.505 534.636C111.686 534.203 111.031 534.177 110.506 534.11C110.227 534.077 109.991 534.037 109.796 533.877C109.601 533.714 109.455 533.431 109.33 532.938L108.864 533.095C109.03 533.747 109.251 534.107 109.51 534.323C109.627 534.42 109.752 534.49 109.886 534.539C109.426 534.568 108.992 534.562 108.671 534.343C108.316 534.087 108.033 533.581 107.806 532.655ZM110.413 532.775C110.387 533.148 110.445 533.451 110.541 533.697C110.766 533.729 110.961 533.734 111.165 533.774C111.007 533.574 110.868 533.268 110.897 532.815L110.413 532.775ZM113.917 533.225L113.6 533.641C113.839 533.88 113.906 534.167 113.906 534.41C113.778 534.279 113.661 534.192 113.524 534.113C113.734 534.394 113.763 534.891 113.778 535.159L114.229 535.215C114.229 535.215 114.742 534.043 113.917 533.225ZM111.567 535.533C111.057 535.6 110.786 535.447 110.623 535.993C110.623 535.993 111.171 536.921 112.63 536.898C112.548 537.278 112.586 537.557 112.586 537.893C112.586 539.012 111.8 539.987 110.067 539.987C109.187 539.987 108.118 540.167 107.302 540.67C106.723 541.026 106.269 541.542 106.068 542.258L106.296 542.621L106.731 542.627V544.681L106.2 545.623L106.353 548.353H106.857L106.9 546.156C107.151 545.99 107.725 545.557 108.214 544.891C108.878 543.995 109.388 542.694 108.788 541.083L109.236 540.866C109.729 542.188 109.557 543.333 109.126 544.255C109.95 544.225 110.658 544.165 111.258 544.052L111.121 542.178L111.605 542.131L112.065 548.353H112.566L112.65 544.302C113.049 544.109 113.958 543.4 114.383 540.936C114.436 540.637 114.465 540.384 114.48 540.167C114.547 539.618 114.584 538.999 114.596 538.293L113.882 538.037H116.076L116.288 537.487C116.082 537.497 115.834 537.374 115.834 537.374L115.884 537.108H116.344L113.853 535.633C113.577 535.753 113.285 535.909 113.081 536.099C112.918 535.966 112.353 535.55 111.567 535.533ZM114.348 543.077C114.066 543.679 113.763 544.129 113.501 544.448L114.873 545.141L114.264 546.722L114.701 546.955L115.674 544.798L114.383 543.553C114.372 543.476 114.357 543.326 114.348 543.077ZM109.868 544.768C109.539 544.791 109.19 544.808 108.817 544.814C108.564 545.197 108.272 545.567 107.969 545.853L108.223 548.35H108.721V546.186C108.933 545.986 109.446 545.477 109.868 544.768Z" fill="black"/>
<g clip-path="url(#clip11_77_351)">
<path d="M730.464 571.725L726.032 565.7H727.731C728.231 565.7 728.673 565.367 728.884 564.83C729.095 564.295 729.026 563.681 728.702 563.229L724.367 557.178H725.97C726.475 557.178 726.93 556.821 727.127 556.272C727.323 555.73 727.231 555.1 726.892 554.668L720.774 546.846C720.439 546.417 719.815 546.417 719.48 546.846L713.362 554.668C713.023 555.1 712.932 555.73 713.126 556.272C713.324 556.821 713.779 557.178 714.284 557.178H715.887L711.552 563.23C711.229 563.682 711.16 564.295 711.37 564.831C711.581 565.367 712.023 565.7 712.523 565.7H714.223L709.79 571.725C709.457 572.177 709.382 572.796 709.593 573.34C709.801 573.876 710.258 574.222 710.758 574.222H718.352V575.85L716.671 579.072C716.376 579.781 716.805 580.614 717.465 580.614H722.789C723.449 580.614 723.878 579.781 723.583 579.072L721.903 575.85V574.222H729.496C729.996 574.222 730.454 573.876 730.662 573.34C730.873 572.796 730.797 572.177 730.464 571.725Z" fill="black"/>
</g>
<g clip-path="url(#clip12_77_351)">
<path d="M713.199 577.933L705.664 568.896H708.553C709.402 568.896 710.154 568.396 710.513 567.591C710.871 566.788 710.753 565.867 710.203 565.189L702.834 556.112H705.559C706.417 556.112 707.191 555.578 707.526 554.753C707.858 553.941 707.702 552.996 707.126 552.348L696.726 540.615C696.157 539.971 695.096 539.971 694.526 540.615L684.124 552.348C683.549 552.996 683.393 553.941 683.724 554.753C684.06 555.578 684.835 556.112 685.693 556.112H688.418L681.048 565.191C680.5 565.868 680.382 566.788 680.739 567.592C681.098 568.396 681.848 568.896 682.699 568.896H685.588L678.053 577.933C677.487 578.611 677.359 579.54 677.717 580.356C678.071 581.16 678.849 581.679 679.699 581.679H692.608V584.121L689.751 588.954C689.249 590.017 689.979 591.267 691.1 591.267H700.151C701.273 591.267 702.003 590.017 701.501 588.954L698.644 584.121V581.679H711.553C712.403 581.679 713.181 581.16 713.535 580.356C713.893 579.54 713.765 578.611 713.199 577.933Z" fill="black"/>
</g>
<path d="M0 559.922C305.468 494.553 463.395 696.973 766.999 559.922V657.314H0L0 559.922Z" fill="#231C3B"/>
</g>
<defs>
<filter id="filter0_d_77_351" x="281.685" y="533.762" width="69.9365" height="65.8748" filterUnits="userSpaceOnUse" color-interpolation-filters="sRGB">
<feFlood flood-opacity="0" result="BackgroundImageFix"/>
<feColorMatrix in="SourceAlpha" type="matrix" values="0 0 0 0 0 0 0 0 0 0 0 0 0 0 0 0 0 0 127 0" result="hardAlpha"/>
<feOffset dy="4"/>
<feGaussianBlur stdDeviation="2"/>
<feComposite in2="hardAlpha" operator="out"/>
<feColorMatrix type="matrix" values="0 0 0 0 0 0 0 0 0 0 0 0 0 0 0 0 0 0 0.25 0"/>
<feBlend mode="normal" in2="BackgroundImageFix" result="effect1_dropShadow_77_351"/>
<feBlend mode="normal" in="SourceGraphic" in2="effect1_dropShadow_77_351" result="shape"/>
</filter>
<filter id="filter1_d_77_351" x="186.068" y="513.105" width="53.0039" height="50.053" filterUnits="userSpaceOnUse" color-interpolation-filters="sRGB">
<feFlood flood-opacity="0" result="BackgroundImageFix"/>
<feColorMatrix in="SourceAlpha" type="matrix" values="0 0 0 0 0 0 0 0 0 0 0 0 0 0 0 0 0 0 127 0" result="hardAlpha"/>
<feOffset dy="4"/>
<feGaussianBlur stdDeviation="2"/>
<feComposite in2="hardAlpha" operator="out"/>
<feColorMatrix type="matrix" values="0 0 0 0 0 0 0 0 0 0 0 0 0 0 0 0 0 0 0.25 0"/>
<feBlend mode="normal" in2="BackgroundImageFix" result="effect1_dropShadow_77_351"/>
<feBlend mode="normal" in="SourceGraphic" in2="effect1_dropShadow_77_351" result="shape"/>
</filter>
<filter id="filter2_d_77_351" x="231.633" y="519.636" width="60.5791" height="57.1311" filterUnits="userSpaceOnUse" color-interpolation-filters="sRGB">
<feFlood flood-opacity="0" result="BackgroundImageFix"/>
<feColorMatrix in="SourceAlpha" type="matrix" values="0 0 0 0 0 0 0 0 0 0 0 0 0 0 0 0 0 0 127 0" result="hardAlpha"/>
<feOffset dy="4"/>
<feGaussianBlur stdDeviation="2"/>
<feComposite in2="hardAlpha" operator="out"/>
<feColorMatrix type="matrix" values="0 0 0 0 0 0 0 0 0 0 0 0 0 0 0 0 0 0 0.25 0"/>
<feBlend mode="normal" in2="BackgroundImageFix" result="effect1_dropShadow_77_351"/>
<feBlend mode="normal" in="SourceGraphic" in2="effect1_dropShadow_77_351" result="shape"/>
</filter>
<filter id="filter3_d_77_351" x="147.454" y="522.659" width="47.6572" height="45.0564" filterUnits="userSpaceOnUse" color-interpolation-filters="sRGB">
<feFlood flood-opacity="0" result="BackgroundImageFix"/>
<feColorMatrix in="SourceAlpha" type="matrix" values="0 0 0 0 0 0 0 0 0 0 0 0 0 0 0 0 0 0 127 0" result="hardAlpha"/>
<feOffset dy="4"/>
<feGaussianBlur stdDeviation="2"/>
<feComposite in2="hardAlpha" operator="out"/>
<feColorMatrix type="matrix" values="0 0 0 0 0 0 0 0 0 0 0 0 0 0 0 0 0 0 0.25 0"/>
<feBlend mode="normal" in2="BackgroundImageFix" result="effect1_dropShadow_77_351"/>
<feBlend mode="normal" in="SourceGraphic" in2="effect1_dropShadow_77_351" result="shape"/>
</filter>
<radialGradient id="paint0_radial_77_351" cx="0" cy="0" r="1" gradientUnits="userSpaceOnUse" gradientTransform="translate(53.5301 -77.5001) rotate(46.7544) scale(985.004 1389.3)">
<stop offset="0.347346" stop-color="#3919BB"/>
<stop offset="0.453188" stop-color="#510FDD"/>
<stop offset="0.602644" stop-color="#8C4FEC"/>
<stop offset="0.742014" stop-color="#1CA511"/>
<stop offset="0.820874" stop-color="#70B96F"/>
<stop offset="0.884743" stop-color="#E29967"/>
<stop offset="1" stop-color="#590CE8"/>
</radialGradient>
<clipPath id="clip0_77_351">
<rect width="767" height="640" fill="white"/>
</clipPath>
<clipPath id="clip1_77_351">
<rect width="80.7478" height="81.5168" fill="white" transform="translate(522.448 554.213)"/>
</clipPath>
<clipPath id="clip2_77_351">
<rect width="9.14126" height="9.99735" fill="white" transform="translate(548.349 567.287)"/>
</clipPath>
<clipPath id="clip3_77_351">
<rect width="9.14126" height="10.7664" fill="white" transform="translate(536.922 568.825)"/>
</clipPath>
<clipPath id="clip4_77_351">
<rect width="9.14126" height="9.99735" fill="white" transform="translate(542.254 571.901)"/>
</clipPath>
<clipPath id="clip5_77_351">
<rect width="51.1333" height="74.5694" fill="white" transform="translate(6.3916 489)"/>
</clipPath>
<clipPath id="clip6_77_351">
<rect width="25.2917" height="37.2847" fill="white" transform="translate(40.4805 518.467)"/>
</clipPath>
<clipPath id="clip7_77_351">
<rect width="31.9583" height="49.0027" fill="white" transform="translate(49.0029 506.044)"/>
</clipPath>
<clipPath id="clip8_77_351">
<rect width="17.0444" height="17.0444" fill="white" transform="translate(562.466 591.267)"/>
</clipPath>
<clipPath id="clip9_77_351">
<rect width="38.35" height="57.5249" fill="white" transform="translate(68.1777 497.522)"/>
</clipPath>
<clipPath id="clip10_77_351">
<rect width="51.1333" height="72.4388" fill="white" transform="translate(715.867 501.783)"/>
</clipPath>
<clipPath id="clip11_77_351">
<rect width="21.3055" height="34.0889" fill="white" transform="translate(709.475 546.525)"/>
</clipPath>
<clipPath id="clip12_77_351">
<rect width="36.2194" height="51.1333" fill="white" transform="translate(677.517 540.133)"/>
</clipPath>
</defs>
</svg>
