<svg width="1264" height="604" viewBox="0 0 1264 604" fill="none" xmlns="http://www.w3.org/2000/svg">
<g clip-path="url(#clip0_62_2627)">
<rect width="1263.33" height="603.333" fill="url(#paint0_radial_62_2627)"/>
<g clip-path="url(#clip1_62_2627)">
<path d="M918.5 610.992C947.382 610.992 970.795 587.355 970.795 558.199C970.795 529.042 947.382 505.406 918.5 505.406C889.618 505.406 866.205 529.042 866.205 558.199C866.205 587.355 889.618 610.992 918.5 610.992Z" fill="#F5EB35"/>
<path d="M914.103 608.095C922.463 608.095 929.24 601.253 929.24 592.814C929.24 584.375 922.463 577.534 914.103 577.534C905.744 577.534 898.967 584.375 898.967 592.814C898.967 601.253 905.744 608.095 914.103 608.095Z" fill="#E0CF35"/>
<path d="M934.749 545.557C934.748 546.409 934.582 547.252 934.259 548.04C933.935 548.827 933.462 549.542 932.865 550.145C932.268 550.747 931.559 551.225 930.779 551.551C929.999 551.877 929.163 552.044 928.319 552.044C927.475 552.044 926.639 551.876 925.859 551.549C925.079 551.223 924.371 550.745 923.774 550.142C923.177 549.54 922.704 548.824 922.381 548.037C922.058 547.249 921.892 546.405 921.893 545.553C921.893 543.832 922.571 542.182 923.776 540.965C924.982 539.748 926.617 539.065 928.322 539.066C930.027 539.066 931.662 539.75 932.867 540.967C934.072 542.185 934.749 543.835 934.749 545.557Z" fill="#E0CF35"/>
<path d="M875.79 571.888C879.274 571.888 882.098 569.037 882.098 565.519C882.098 562.002 879.274 559.151 875.79 559.151C872.306 559.151 869.481 562.002 869.481 565.519C869.481 569.037 872.306 571.888 875.79 571.888Z" fill="#E0CF35"/>
<path d="M876.357 539.967C878.346 539.967 879.958 538.339 879.958 536.331C879.958 534.323 878.346 532.696 876.357 532.696C874.368 532.696 872.756 534.323 872.756 536.331C872.756 538.339 874.368 539.967 876.357 539.967Z" fill="#E0CF35"/>
<path d="M900.399 537.555C900.399 539.063 899.806 540.51 898.75 541.576C897.693 542.642 896.261 543.241 894.767 543.241C893.273 543.241 891.841 542.642 890.784 541.576C889.728 540.51 889.135 539.063 889.135 537.555C889.135 536.047 889.728 534.601 890.784 533.535C891.841 532.468 893.273 531.869 894.767 531.869C896.261 531.869 897.693 532.468 898.75 533.535C899.806 534.601 900.399 536.047 900.399 537.555Z" fill="#E0CF35"/>
<path d="M936.377 531.343C940.758 531.343 944.309 527.757 944.309 523.335C944.309 518.912 940.758 515.327 936.377 515.327C931.996 515.327 928.444 518.912 928.444 523.335C928.444 527.757 931.996 531.343 936.377 531.343Z" fill="#E0CF35"/>
<g clip-path="url(#clip2_62_2627)">
<path d="M908.203 529.313C908.119 528.489 907.782 527.721 907.247 527.134C906.712 526.547 906.01 526.176 905.257 526.083C904.504 525.989 903.745 526.178 903.103 526.619C902.461 527.06 901.975 527.726 901.725 528.508C901.151 528.56 900.618 528.852 900.237 529.323C899.856 529.795 899.656 530.409 899.68 531.038C899.703 531.667 899.949 532.261 900.364 532.697C900.779 533.133 901.333 533.376 901.908 533.375H908.223C908.716 533.372 909.187 533.155 909.533 532.772C909.88 532.389 910.073 531.872 910.07 531.333C910.068 530.794 909.869 530.279 909.519 529.9C909.169 529.521 908.696 529.31 908.203 529.313Z" fill="black" fill-opacity="0.77"/>
<path d="M910.485 529.94C910.309 529.601 910.072 529.306 909.787 529.072C909.503 528.837 909.178 528.669 908.832 528.578C908.568 527.486 907.936 526.543 907.063 525.94C906.189 525.337 905.139 525.117 904.124 525.326C904.409 524.753 904.845 524.286 905.376 523.987C905.907 523.688 906.508 523.571 907.1 523.651C907.693 523.731 908.249 524.004 908.698 524.434C909.147 524.865 909.467 525.434 909.616 526.066C910.047 526.042 910.473 526.183 910.819 526.465C911.166 526.747 911.411 527.152 911.514 527.61C911.617 528.069 911.571 528.553 911.383 528.978C911.195 529.403 910.877 529.743 910.485 529.94Z" fill="black" fill-opacity="0.77"/>
</g>
<g clip-path="url(#clip3_62_2627)">
<path d="M893.344 531.875C893.26 530.988 892.923 530.16 892.388 529.528C891.853 528.896 891.151 528.497 890.398 528.397C889.645 528.296 888.885 528.5 888.243 528.974C887.602 529.449 887.116 530.166 886.865 531.009C886.292 531.064 885.759 531.378 885.377 531.886C884.996 532.394 884.797 533.056 884.82 533.733C884.844 534.41 885.089 535.05 885.505 535.52C885.92 535.989 886.473 536.25 887.049 536.25H893.364C893.856 536.247 894.328 536.013 894.674 535.601C895.02 535.188 895.214 534.631 895.211 534.05C895.208 533.47 895.01 532.915 894.66 532.507C894.31 532.099 893.836 531.872 893.344 531.875Z" fill="black" fill-opacity="0.74"/>
<path d="M895.626 532.55C895.45 532.186 895.212 531.868 894.928 531.615C894.644 531.363 894.319 531.182 893.973 531.084C893.709 529.908 893.077 528.893 892.203 528.243C891.33 527.593 890.28 527.357 889.265 527.582C889.55 526.964 889.986 526.462 890.517 526.14C891.047 525.818 891.648 525.692 892.241 525.778C892.833 525.864 893.39 526.158 893.839 526.621C894.287 527.085 894.607 527.698 894.756 528.378C895.188 528.352 895.613 528.504 895.96 528.808C896.306 529.112 896.552 529.548 896.655 530.042C896.758 530.536 896.711 531.057 896.523 531.515C896.336 531.973 896.018 532.338 895.626 532.55Z" fill="black" fill-opacity="0.74"/>
</g>
<g clip-path="url(#clip4_62_2627)">
<path d="M900.278 535.313C900.195 534.489 899.858 533.721 899.322 533.134C898.787 532.547 898.086 532.176 897.333 532.083C896.58 531.989 895.82 532.178 895.178 532.619C894.536 533.06 894.05 533.726 893.8 534.508C893.226 534.56 892.693 534.852 892.312 535.323C891.931 535.795 891.731 536.409 891.755 537.038C891.779 537.667 892.024 538.261 892.439 538.697C892.855 539.133 893.408 539.376 893.983 539.375H900.298C900.791 539.372 901.262 539.155 901.609 538.772C901.955 538.389 902.148 537.872 902.146 537.333C902.143 536.794 901.945 536.279 901.594 535.9C901.244 535.521 900.771 535.31 900.278 535.313Z" fill="black" fill-opacity="0.77"/>
<path d="M902.56 535.94C902.384 535.601 902.147 535.306 901.863 535.072C901.578 534.837 901.253 534.669 900.907 534.578C900.643 533.486 900.011 532.543 899.138 531.94C898.264 531.337 897.214 531.117 896.199 531.326C896.484 530.753 896.92 530.286 897.451 529.987C897.982 529.688 898.583 529.571 899.175 529.651C899.768 529.731 900.325 530.004 900.773 530.434C901.222 530.865 901.542 531.434 901.691 532.066C902.122 532.042 902.548 532.183 902.894 532.465C903.241 532.747 903.487 533.152 903.589 533.61C903.692 534.069 903.646 534.553 903.458 534.978C903.27 535.403 902.953 535.743 902.56 535.94Z" fill="black" fill-opacity="0.77"/>
</g>
<g clip-path="url(#clip5_62_2627)">
<path d="M889.371 516.333C889.371 516.333 892.704 515.542 895.057 517.125C895.057 517.125 895.449 520.094 897.017 520.094V518.708C897.017 518.708 897.409 519.5 898.193 519.5C898.978 519.5 899.37 518.708 899.37 518.708V520.094C900.938 520.094 901.33 517.125 901.33 517.125C903.683 515.542 907.016 516.333 907.016 516.333C905.447 517.125 905.251 519.896 905.251 519.896C902.114 519.896 902.114 522.469 902.114 522.469C898.193 521.677 898.193 524.646 898.193 524.646C898.193 524.646 898.193 521.677 894.272 522.469C894.272 522.469 894.272 519.896 891.136 519.896C891.136 519.896 890.939 517.125 889.371 516.333Z" fill="black"/>
</g>
</g>
<g clip-path="url(#clip6_62_2627)">
<path d="M92.785 480.665L75.7251 458.75H82.2659C84.1899 458.75 85.8918 457.539 86.7033 455.587C87.5148 453.64 87.2478 451.407 86.0029 449.762L69.3189 427.75H75.4881C77.4313 427.75 79.1824 426.454 79.9426 424.454C80.6942 422.485 80.3398 420.194 79.0372 418.622L55.4899 390.17C54.2023 388.608 51.7999 388.608 50.5101 390.17L26.9608 418.622C25.6581 420.194 25.3058 422.485 26.0553 424.454C26.8155 426.454 28.5687 427.75 30.512 427.75H36.6812L19.995 449.767C18.7543 451.409 18.4874 453.64 19.2967 455.589C20.1082 457.539 21.808 458.75 23.7341 458.75H30.2749L13.2151 480.665C11.9338 482.31 11.6434 484.562 12.4549 486.541C13.2557 488.49 15.0174 489.75 16.9414 489.75H46.1667V495.671L39.6985 507.393C38.5625 509.97 40.2153 513.002 42.7543 513.002H63.2458C65.7848 513.002 67.4376 509.97 66.3015 507.393L59.8334 495.671V489.75H89.0587C90.9827 489.75 92.7444 488.49 93.5452 486.541C94.3566 484.562 94.0662 482.31 92.785 480.665Z" fill="black"/>
<g clip-path="url(#clip7_62_2627)">
<path d="M106.626 483.832L98.1874 472.875H101.423C102.374 472.875 103.216 472.269 103.618 471.293C104.019 470.32 103.887 469.203 103.271 468.381L95.0188 457.375H98.0702C99.0314 457.375 99.8975 456.727 100.273 455.727C100.645 454.742 100.47 453.597 99.8256 452.811L88.1786 438.585C87.5417 437.804 86.3535 437.804 85.7155 438.585L74.0674 452.811C73.4231 453.597 73.2489 454.742 73.6196 455.727C73.9956 456.727 74.8628 457.375 75.8239 457.375H78.8754L70.622 468.383C70.0083 469.204 69.8763 470.32 70.2766 471.294C70.678 472.269 71.5188 472.875 72.4715 472.875H75.7067L67.2685 483.832C66.6348 484.655 66.4911 485.781 66.8925 486.77C67.2886 487.745 68.1599 488.375 69.1116 488.375H83.5671V491.335L80.3678 497.196C79.8059 498.485 80.6234 500.001 81.8793 500.001H92.0148C93.2707 500.001 94.0882 498.485 93.5263 497.196L90.327 491.335V488.375H104.783C105.734 488.375 106.606 487.745 107.002 486.77C107.403 485.781 107.259 484.655 106.626 483.832Z" fill="black"/>
</g>
</g>
<g clip-path="url(#clip8_62_2627)">
<path d="M132.23 476.139L121.411 462H125.559C126.779 462 127.859 461.218 128.373 459.959C128.888 458.703 128.718 457.262 127.929 456.201L117.349 442H121.261C122.493 442 123.604 441.164 124.086 439.873C124.563 438.603 124.338 437.125 123.512 436.111L108.579 417.754C107.763 416.747 106.239 416.747 105.421 417.754L90.4877 436.111C89.6616 437.125 89.4382 438.603 89.9135 439.873C90.3956 441.164 91.5074 442 92.7396 442H96.6518L86.0704 456.204C85.2836 457.264 85.1143 458.703 85.6276 459.961C86.1421 461.218 87.2201 462 88.4415 462H92.5893L81.7709 476.139C80.9584 477.2 80.7742 478.653 81.2888 479.929C81.7966 481.187 82.9138 482 84.1339 482H102.667V485.82L98.5653 493.383C97.8449 495.045 98.893 497.001 100.503 497.001H113.498C115.108 497.001 116.156 495.045 115.435 493.383L111.334 485.82V482H129.867C131.087 482 132.204 481.187 132.712 479.929C133.227 478.653 133.042 477.2 132.23 476.139Z" fill="black"/>
</g>
<path d="M196.523 451.542L195.422 451.885C196.065 454.437 196.946 455.778 197.951 456.478C198.97 457.194 200.146 457.255 201.431 457.126C203.14 456.951 205.068 456.395 207.036 457.21C207.57 457.476 208.13 457.815 208.725 458.265C209.039 458.158 209.313 458.021 209.586 457.922C209.586 457.922 209.805 457.141 209.449 456.143C209.142 455.267 208.376 454.163 206.442 453.386L206.059 454.574C207.248 455.062 207.891 455.663 208.219 456.235C208.267 456.318 208.301 456.395 208.335 456.471C208.075 456.318 207.809 456.181 207.549 456.075C205.628 455.084 204.09 455.024 202.86 454.871C202.203 454.795 201.65 454.704 201.192 454.338C200.734 453.965 200.392 453.317 200.098 452.19L199.004 452.548C199.394 454.041 199.913 454.864 200.522 455.359C200.795 455.58 201.089 455.74 201.404 455.854C200.323 455.919 199.305 455.905 198.553 455.404C197.719 454.818 197.056 453.66 196.523 451.542ZM202.641 451.817C202.579 452.67 202.716 453.363 202.942 453.927C203.468 454 203.926 454.01 204.404 454.102C204.035 453.645 203.707 452.944 203.776 451.908L202.641 451.817ZM210.864 452.845L210.119 453.797C210.68 454.346 210.837 455.001 210.837 455.557C210.536 455.258 210.263 455.059 209.942 454.879C210.434 455.52 210.502 456.658 210.536 457.271L211.596 457.4C211.596 457.4 212.799 454.719 210.864 452.845ZM205.348 458.128C204.152 458.28 203.516 457.929 203.133 459.179C203.133 459.179 204.418 461.304 207.843 461.251C207.652 462.119 207.74 462.759 207.74 463.528C207.74 466.088 205.895 468.319 201.827 468.319C199.763 468.319 197.254 468.731 195.34 469.881C193.98 470.696 192.915 471.877 192.444 473.514L192.978 474.345L194 474.36V479.06L192.753 481.215L193.112 487.461H194.294L194.397 482.434C194.985 482.053 196.331 481.063 197.48 479.539C199.038 477.49 200.235 474.512 198.826 470.825L199.879 470.33C201.034 473.354 200.631 475.975 199.619 478.085C201.554 478.016 203.215 477.879 204.623 477.62L204.302 473.331L205.437 473.225L206.517 487.461H207.693L207.891 478.191C208.827 477.749 210.96 476.127 211.958 470.49C212.081 469.805 212.15 469.226 212.184 468.731C212.341 467.474 212.43 466.057 212.457 464.442L210.782 463.856H215.93L216.429 462.599C215.944 462.622 215.362 462.34 215.362 462.34L215.479 461.73H216.559L210.714 458.356C210.065 458.63 209.381 458.988 208.903 459.422C208.52 459.118 207.194 458.166 205.348 458.128ZM211.876 475.388C211.213 476.767 210.502 477.795 209.887 478.526L213.107 480.111L211.678 483.729L212.703 484.262L214.987 479.326L211.958 476.477C211.931 476.302 211.897 475.959 211.876 475.388ZM201.362 479.258C200.59 479.311 199.77 479.349 198.895 479.364C198.3 480.24 197.616 481.086 196.905 481.741L197.5 487.454H198.669V482.503C199.168 482.046 200.371 480.88 201.362 479.258Z" fill="black"/>
<path d="M217.883 444.74L216.625 445.127C217.359 448.006 218.367 449.518 219.515 450.309C220.679 451.117 222.023 451.186 223.492 451.039C225.445 450.842 227.648 450.214 229.898 451.134C230.508 451.435 231.148 451.817 231.828 452.324C232.187 452.204 232.5 452.049 232.812 451.938C232.812 451.938 233.062 451.057 232.656 449.931C232.304 448.943 231.429 447.696 229.219 446.82L228.781 448.161C230.14 448.711 230.875 449.389 231.25 450.034C231.304 450.129 231.344 450.214 231.383 450.3C231.086 450.129 230.781 449.974 230.484 449.854C228.289 448.736 226.531 448.668 225.125 448.496C224.375 448.41 223.742 448.307 223.219 447.894C222.695 447.473 222.304 446.743 221.969 445.471L220.719 445.875C221.164 447.559 221.758 448.487 222.453 449.046C222.765 449.295 223.101 449.475 223.461 449.604C222.226 449.677 221.062 449.662 220.203 449.097C219.25 448.436 218.492 447.129 217.883 444.74ZM224.875 445.05C224.804 446.012 224.961 446.794 225.219 447.43C225.82 447.513 226.344 447.525 226.89 447.628C226.469 447.112 226.094 446.321 226.172 445.153L224.875 445.05ZM234.273 446.21L233.422 447.284C234.062 447.903 234.242 448.642 234.242 449.269C233.898 448.932 233.586 448.708 233.219 448.504C233.781 449.228 233.859 450.512 233.898 451.203L235.109 451.349C235.109 451.349 236.484 448.324 234.273 446.21ZM227.969 452.17C226.601 452.341 225.875 451.946 225.437 453.355C225.437 453.355 226.906 455.753 230.82 455.693C230.601 456.673 230.703 457.395 230.703 458.263C230.703 461.15 228.594 463.668 223.945 463.668C221.586 463.668 218.719 464.132 216.531 465.43C214.976 466.349 213.76 467.681 213.222 469.529L213.832 470.466L215 470.483V475.785L213.575 478.217L213.984 485.264H215.336L215.453 479.592C216.125 479.162 217.664 478.045 218.976 476.327C220.758 474.015 222.125 470.655 220.515 466.495L221.719 465.937C223.039 469.348 222.578 472.305 221.422 474.685C223.633 474.608 225.531 474.453 227.14 474.161L226.773 469.323L228.07 469.202L229.304 485.264H230.648L230.875 474.805C231.945 474.307 234.383 472.477 235.523 466.117C235.664 465.344 235.742 464.691 235.781 464.132C235.961 462.714 236.062 461.116 236.094 459.294L234.179 458.632H240.062L240.633 457.214C240.078 457.24 239.414 456.922 239.414 456.922L239.547 456.234H240.781L234.101 452.427C233.359 452.737 232.578 453.141 232.031 453.63C231.594 453.287 230.078 452.212 227.969 452.17ZM235.429 471.643C234.672 473.198 233.859 474.359 233.156 475.184L236.836 476.971L235.203 481.053L236.375 481.655L238.984 476.086L235.523 472.872C235.492 472.674 235.453 472.287 235.429 471.643ZM223.414 476.009C222.531 476.069 221.594 476.112 220.594 476.129C219.914 477.117 219.133 478.071 218.32 478.81L219 485.255H220.336V479.67C220.906 479.154 222.281 477.839 223.414 476.009Z" fill="black"/>
<path d="M908.699 544.938L907.347 545.369C908.136 548.575 909.22 550.259 910.454 551.14C911.706 552.039 913.15 552.116 914.729 551.953C916.829 551.733 919.197 551.034 921.616 552.058C922.271 552.393 922.96 552.819 923.69 553.384C924.077 553.25 924.412 553.078 924.748 552.953C924.748 552.953 925.017 551.972 924.58 550.718C924.202 549.618 923.262 548.23 920.885 547.254L920.415 548.747C921.876 549.359 922.666 550.116 923.069 550.833C923.127 550.939 923.169 551.034 923.211 551.13C922.892 550.939 922.565 550.766 922.246 550.632C919.886 549.388 917.996 549.312 916.484 549.12C915.678 549.025 914.998 548.91 914.435 548.45C913.872 547.981 913.452 547.168 913.091 545.751L911.748 546.201C912.226 548.077 912.865 549.111 913.612 549.733C913.948 550.01 914.309 550.211 914.695 550.355C913.369 550.436 912.117 550.419 911.193 549.79C910.169 549.053 909.354 547.599 908.699 544.938ZM916.216 545.283C916.14 546.354 916.308 547.225 916.585 547.933C917.232 548.025 917.794 548.039 918.382 548.154C917.929 547.579 917.526 546.699 917.61 545.397L916.216 545.283ZM926.319 546.575L925.403 547.771C926.092 548.46 926.285 549.283 926.285 549.982C925.916 549.606 925.58 549.357 925.185 549.13C925.79 549.936 925.874 551.365 925.916 552.135L927.218 552.298C927.218 552.298 928.696 548.929 926.319 546.575ZM919.541 553.212C918.072 553.403 917.291 552.963 916.82 554.532C916.82 554.532 918.399 557.202 922.607 557.135C922.372 558.226 922.481 559.03 922.481 559.997C922.481 563.213 920.213 566.017 915.216 566.017C912.68 566.017 909.598 566.533 907.246 567.979C905.575 569.003 904.267 570.486 903.688 572.544L904.344 573.587L905.6 573.606V579.511L904.068 582.219L904.508 590.067H905.961L906.087 583.75C906.809 583.272 908.464 582.028 909.875 580.114C911.79 577.539 913.259 573.797 911.529 569.165L912.823 568.543C914.242 572.343 913.746 575.635 912.503 578.286C914.88 578.2 916.921 578.027 918.651 577.702L918.256 572.314L919.651 572.18L920.977 590.067H922.422L922.666 578.42C923.816 577.865 926.436 575.826 927.663 568.744C927.814 567.883 927.898 567.155 927.94 566.533C928.133 564.954 928.242 563.174 928.276 561.145L926.218 560.408H932.542L933.155 558.829C932.559 558.858 931.845 558.504 931.845 558.504L931.988 557.738H933.315L926.134 553.499C925.336 553.843 924.496 554.293 923.909 554.838C923.438 554.456 921.809 553.259 919.541 553.212ZM927.562 574.898C926.747 576.63 925.874 577.922 925.118 578.841L929.074 580.831L927.318 585.377L928.578 586.047L931.383 579.846L927.663 576.266C927.629 576.046 927.587 575.616 927.562 574.898ZM914.645 579.76C913.696 579.827 912.688 579.874 911.613 579.894C910.883 580.994 910.043 582.056 909.169 582.879L909.9 590.057H911.336V583.837C911.949 583.262 913.427 581.798 914.645 579.76Z" fill="black"/>
<path d="M934.89 558.305L933.978 558.595C934.51 560.754 935.241 561.889 936.074 562.482C936.918 563.088 937.892 563.139 938.957 563.03C940.373 562.881 941.97 562.411 943.601 563.1C944.043 563.326 944.507 563.613 945 563.993C945.261 563.903 945.487 563.787 945.714 563.703C945.714 563.703 945.895 563.042 945.601 562.198C945.346 561.457 944.711 560.522 943.108 559.865L942.791 560.87C943.777 561.283 944.309 561.792 944.581 562.275C944.621 562.346 944.649 562.411 944.677 562.475C944.462 562.346 944.241 562.23 944.026 562.14C942.434 561.302 941.16 561.251 940.141 561.122C939.597 561.057 939.138 560.98 938.758 560.671C938.379 560.355 938.096 559.807 937.852 558.853L936.946 559.156C937.269 560.419 937.699 561.115 938.203 561.534C938.43 561.721 938.674 561.857 938.934 561.953C938.039 562.008 937.195 561.996 936.572 561.573C935.881 561.077 935.332 560.097 934.89 558.305ZM939.959 558.537C939.908 559.259 940.022 559.846 940.208 560.323C940.645 560.384 941.024 560.393 941.421 560.471C941.115 560.084 940.843 559.491 940.899 558.615L939.959 558.537ZM946.773 559.407L946.156 560.213C946.62 560.677 946.75 561.231 946.75 561.702C946.501 561.449 946.275 561.281 946.008 561.128C946.416 561.671 946.473 562.634 946.501 563.152L947.379 563.262C947.379 563.262 948.376 560.993 946.773 559.407ZM942.202 563.877C941.211 564.006 940.684 563.71 940.367 564.767C940.367 564.767 941.432 566.565 944.27 566.52C944.111 567.254 944.185 567.796 944.185 568.447C944.185 570.613 942.655 572.501 939.285 572.501C937.575 572.501 935.496 572.849 933.91 573.822C932.783 574.512 931.901 575.511 931.511 576.897L931.953 577.599L932.8 577.612V581.589L931.767 583.413L932.064 588.698H933.043L933.128 584.444C933.616 584.122 934.731 583.284 935.683 581.995C936.974 580.261 937.966 577.741 936.799 574.621L937.671 574.203C938.628 576.761 938.294 578.979 937.456 580.764C939.059 580.706 940.435 580.59 941.602 580.371L941.336 576.742L942.276 576.652L943.171 588.698H944.145L944.309 580.854C945.085 580.48 946.852 579.107 947.679 574.338C947.781 573.758 947.838 573.268 947.866 572.849C947.997 571.786 948.07 570.587 948.093 569.22L946.705 568.724H950.97L951.384 567.661C950.982 567.68 950.5 567.441 950.5 567.441L950.596 566.926H951.491L946.649 564.071C946.11 564.303 945.544 564.605 945.148 564.973C944.83 564.715 943.732 563.909 942.202 563.877ZM947.611 578.482C947.062 579.649 946.473 580.519 945.963 581.138L948.631 582.478L947.447 585.54L948.297 585.991L950.189 581.814L947.679 579.404C947.657 579.256 947.628 578.966 947.611 578.482ZM938.9 581.756C938.26 581.802 937.58 581.834 936.855 581.847C936.363 582.588 935.796 583.303 935.207 583.858L935.7 588.692H936.668V584.502C937.082 584.115 938.079 583.129 938.9 581.756Z" fill="black"/>
<path d="M891.714 568.87L891.053 569.063C891.439 570.503 891.968 571.259 892.571 571.654C893.182 572.058 893.887 572.093 894.659 572.02C895.684 571.921 896.841 571.607 898.022 572.067C898.342 572.217 898.678 572.409 899.035 572.662C899.224 572.602 899.388 572.525 899.552 572.469C899.552 572.469 899.683 572.028 899.47 571.465C899.285 570.971 898.826 570.348 897.665 569.91L897.435 570.58C898.149 570.855 898.534 571.195 898.731 571.517C898.76 571.564 898.781 571.607 898.801 571.65C898.645 571.564 898.485 571.487 898.329 571.427C897.177 570.868 896.254 570.834 895.516 570.748C895.122 570.705 894.79 570.653 894.515 570.447C894.24 570.237 894.035 569.871 893.859 569.235L893.202 569.437C893.436 570.279 893.748 570.744 894.113 571.023C894.277 571.147 894.453 571.238 894.642 571.302C893.994 571.339 893.383 571.331 892.932 571.049C892.431 570.718 892.034 570.065 891.714 568.87ZM895.384 569.025C895.348 569.506 895.43 569.897 895.565 570.215C895.881 570.256 896.156 570.262 896.443 570.314C896.221 570.056 896.024 569.661 896.065 569.076L895.384 569.025ZM900.319 569.605L899.872 570.142C900.208 570.451 900.302 570.821 900.302 571.135C900.122 570.966 899.958 570.854 899.765 570.752C900.06 571.114 900.101 571.756 900.122 572.101L900.758 572.174C900.758 572.174 901.479 570.662 900.319 569.605ZM897.009 572.585C896.291 572.671 895.909 572.473 895.68 573.178C895.68 573.178 896.451 574.377 898.506 574.346C898.391 574.836 898.444 575.197 898.444 575.631C898.444 577.075 897.337 578.334 894.896 578.334C893.658 578.334 892.152 578.566 891.004 579.215C890.188 579.675 889.549 580.341 889.267 581.264L889.587 581.733L890.2 581.741V584.393L889.452 585.609L889.667 589.132H890.376L890.438 586.296C890.791 586.081 891.599 585.523 892.288 584.663C893.223 583.507 893.941 581.827 893.096 579.748L893.727 579.468C894.421 581.174 894.179 582.652 893.572 583.843C894.732 583.804 895.729 583.727 896.574 583.58L896.381 581.161L897.062 581.101L897.71 589.132H898.416L898.534 583.903C899.096 583.654 900.376 582.738 900.975 579.559C901.049 579.172 901.09 578.845 901.11 578.566C901.205 577.857 901.258 577.058 901.274 576.147L900.269 575.816H903.358L903.657 575.107C903.366 575.12 903.018 574.961 903.018 574.961L903.087 574.617H903.735L900.228 572.714C899.839 572.868 899.429 573.07 899.142 573.315C898.912 573.143 898.116 572.606 897.009 572.585ZM900.926 582.321C900.528 583.099 900.101 583.679 899.732 584.092L901.664 584.986L900.807 587.027L901.422 587.327L902.792 584.543L900.975 582.936C900.959 582.837 900.938 582.644 900.926 582.321ZM894.618 584.504C894.154 584.534 893.662 584.556 893.137 584.564C892.78 585.059 892.37 585.536 891.943 585.905L892.3 589.128H893.001V586.335C893.301 586.077 894.023 585.42 894.618 584.504Z" fill="black"/>
<g clip-path="url(#clip9_62_2627)">
<path d="M175.067 472.227L161.96 455.437H166.985C168.463 455.437 169.771 454.509 170.394 453.014C171.018 451.522 170.813 449.811 169.856 448.552L157.038 431.687H161.778C163.271 431.687 164.616 430.695 165.2 429.162C165.778 427.653 165.505 425.898 164.504 424.694L146.413 402.896C145.424 401.699 143.578 401.699 142.587 402.896L124.494 424.694C123.494 425.898 123.223 427.653 123.799 429.162C124.383 430.695 125.73 431.687 127.223 431.687H131.963L119.143 448.555C118.19 449.813 117.984 451.522 118.606 453.016C119.23 454.509 120.536 455.437 122.015 455.437H127.041L113.934 472.227C112.949 473.487 112.726 475.213 113.35 476.729C113.965 478.222 115.318 479.187 116.797 479.187H139.25V483.724L134.281 492.704C133.408 494.678 134.678 497.002 136.629 497.002H152.372C154.323 497.002 155.593 494.678 154.72 492.704L149.75 483.724V479.187H172.204C173.682 479.187 175.036 478.222 175.651 476.729C176.274 475.213 176.051 473.487 175.067 472.227Z" fill="black"/>
</g>
<g clip-path="url(#clip10_62_2627)">
<path d="M1261.78 499.665L1244.73 477.75H1251.27C1253.19 477.75 1254.89 476.539 1255.7 474.587C1256.51 472.64 1256.25 470.407 1255 468.762L1238.32 446.75H1244.49C1246.43 446.75 1248.18 445.454 1248.94 443.454C1249.69 441.485 1249.34 439.194 1248.04 437.622L1224.49 409.17C1223.2 407.608 1220.8 407.608 1219.51 409.17L1195.96 437.622C1194.66 439.194 1194.31 441.485 1195.06 443.454C1195.82 445.454 1197.57 446.75 1199.51 446.75H1205.68L1189 468.767C1187.75 470.409 1187.49 472.64 1188.3 474.589C1189.11 476.539 1190.81 477.75 1192.73 477.75H1199.27L1182.22 499.665C1180.93 501.31 1180.64 503.562 1181.45 505.541C1182.26 507.49 1184.02 508.75 1185.94 508.75H1215.17V514.671L1208.7 526.393C1207.56 528.97 1209.22 532.002 1211.75 532.002H1232.25C1234.78 532.002 1236.44 528.97 1235.3 526.393L1228.83 514.671V508.75H1258.06C1259.98 508.75 1261.74 507.49 1262.55 505.541C1263.36 503.562 1263.07 501.31 1261.78 499.665Z" fill="black"/>
</g>
<g clip-path="url(#clip11_62_2627)">
<path d="M1203.45 526.919L1195.75 517.375H1198.71C1199.57 517.375 1200.34 516.847 1200.71 515.997C1201.07 515.149 1200.95 514.177 1200.39 513.461L1192.86 503.875H1195.65C1196.52 503.875 1197.31 503.311 1197.66 502.439C1198 501.582 1197.84 500.584 1197.25 499.9L1186.62 487.509C1186.04 486.829 1184.96 486.829 1184.38 487.509L1173.75 499.9C1173.16 500.584 1173 501.582 1173.34 502.439C1173.69 503.311 1174.48 503.875 1175.35 503.875H1178.14L1170.61 513.463C1170.05 514.178 1169.93 515.149 1170.29 515.998C1170.66 516.847 1171.43 517.375 1172.3 517.375H1175.25L1167.55 526.919C1166.97 527.635 1166.84 528.616 1167.21 529.477C1167.57 530.326 1168.36 530.875 1169.23 530.875H1182.42V533.454L1179.5 538.558C1178.99 539.68 1179.73 541.001 1180.88 541.001H1190.12C1191.27 541.001 1192.02 539.68 1191.5 538.558L1188.58 533.454V530.875H1201.77C1202.64 530.875 1203.43 530.326 1203.8 529.477C1204.16 528.616 1204.03 527.635 1203.45 526.919Z" fill="black"/>
</g>
<g clip-path="url(#clip12_62_2627)">
<path d="M1172.2 537.357L1160.97 522.687H1165.27C1166.54 522.687 1167.66 521.877 1168.2 520.57C1168.73 519.267 1168.55 517.772 1167.73 516.672L1156.75 501.937H1160.81C1162.09 501.937 1163.24 501.07 1163.74 499.731C1164.24 498.413 1164 496.88 1163.15 495.828L1147.64 476.783C1146.79 475.737 1145.21 475.737 1144.36 476.783L1128.85 495.828C1127.99 496.88 1127.76 498.413 1128.26 499.731C1128.76 501.07 1129.91 501.937 1131.19 501.937H1135.25L1124.27 516.675C1123.45 517.774 1123.27 519.267 1123.81 520.572C1124.34 521.877 1125.46 522.687 1126.73 522.687H1131.04L1119.8 537.357C1118.96 538.457 1118.77 539.965 1119.3 541.29C1119.83 542.595 1120.99 543.437 1122.25 543.437H1141.5V547.401L1137.24 555.247C1136.49 556.972 1137.58 559.002 1139.25 559.002H1152.75C1154.42 559.002 1155.51 556.972 1154.76 555.247L1150.5 547.401V543.437H1169.75C1171.01 543.437 1172.17 542.595 1172.7 541.29C1173.24 539.965 1173.04 538.457 1172.2 537.357Z" fill="black"/>
</g>
<path d="M0 506.492C503.007 396.746 763.063 736.583 1263 506.492V670H0L0 506.492Z" fill="#231C3B"/>
<path d="M175.985 460.068L175.294 460.305C175.697 462.072 176.252 463 176.883 463.485C177.524 463.981 178.263 464.023 179.071 463.933C180.145 463.812 181.356 463.427 182.594 463.991C182.929 464.176 183.281 464.411 183.655 464.722C183.853 464.648 184.025 464.553 184.197 464.484C184.197 464.484 184.334 463.944 184.111 463.253C183.917 462.647 183.436 461.882 182.22 461.344L181.98 462.167C182.727 462.504 183.131 462.921 183.337 463.316C183.367 463.374 183.389 463.427 183.41 463.48C183.247 463.374 183.08 463.279 182.916 463.206C181.709 462.52 180.742 462.478 179.969 462.372C179.556 462.32 179.208 462.256 178.92 462.003C178.632 461.745 178.417 461.297 178.233 460.516L177.545 460.764C177.79 461.798 178.117 462.367 178.499 462.71C178.671 462.863 178.856 462.974 179.053 463.053C178.374 463.097 177.734 463.088 177.262 462.742C176.737 462.335 176.321 461.534 175.985 460.068ZM179.831 460.258C179.792 460.848 179.878 461.328 180.02 461.718C180.351 461.769 180.639 461.776 180.94 461.84C180.708 461.523 180.501 461.038 180.544 460.321L179.831 460.258ZM185 460.97L184.532 461.629C184.884 462.008 184.983 462.462 184.983 462.847C184.794 462.64 184.622 462.503 184.42 462.378C184.73 462.822 184.772 463.61 184.794 464.033L185.46 464.123C185.46 464.123 186.216 462.267 185 460.97ZM181.533 464.627C180.781 464.732 180.381 464.49 180.14 465.354C180.14 465.354 180.948 466.826 183.101 466.789C182.981 467.39 183.037 467.833 183.037 468.366C183.037 470.138 181.876 471.683 179.32 471.683C178.022 471.683 176.445 471.967 175.242 472.764C174.387 473.328 173.718 474.145 173.422 475.279L173.757 475.854L174.4 475.864V479.118L173.616 480.611L173.841 484.935H174.585L174.649 481.454C175.019 481.191 175.865 480.505 176.587 479.45C177.567 478.032 178.319 475.97 177.433 473.418L178.095 473.075C178.821 475.168 178.568 476.982 177.932 478.443C179.148 478.396 180.192 478.301 181.077 478.121L180.875 475.153L181.589 475.079L182.267 484.935H183.006L183.131 478.517C183.72 478.211 185.06 477.088 185.688 473.186C185.765 472.711 185.808 472.31 185.83 471.967C185.928 471.097 185.984 470.116 186.001 468.998L184.949 468.592H188.184L188.498 467.722C188.193 467.738 187.828 467.543 187.828 467.543L187.901 467.121H188.58L184.906 464.785C184.497 464.975 184.068 465.223 183.767 465.523C183.526 465.312 182.693 464.653 181.533 464.627ZM185.636 476.576C185.219 477.531 184.772 478.243 184.386 478.749L186.41 479.846L185.512 482.351L186.156 482.72L187.591 479.303L185.688 477.33C185.671 477.209 185.649 476.972 185.636 476.576ZM179.028 479.255C178.542 479.292 178.026 479.319 177.476 479.329C177.103 479.936 176.673 480.521 176.226 480.974L176.6 484.929H177.335V481.502C177.648 481.185 178.405 480.379 179.028 479.255Z" fill="black"/>
</g>
<defs>
<radialGradient id="paint0_radial_62_2627" cx="0" cy="0" r="1" gradientUnits="userSpaceOnUse" gradientTransform="translate(88.17 -73.0599) rotate(31.3209) scale(1301.18 1633.03)">
<stop offset="0.347346" stop-color="#3919BB"/>
<stop offset="0.453188" stop-color="#510FDD"/>
<stop offset="0.602644" stop-color="#8C4FEC"/>
<stop offset="0.742014" stop-color="#1CA511"/>
<stop offset="0.820874" stop-color="#70B96F"/>
<stop offset="0.884743" stop-color="#E29967"/>
<stop offset="1" stop-color="#590CE8"/>
</radialGradient>
<clipPath id="clip0_62_2627">
<rect width="1263.33" height="603.333" fill="white"/>
</clipPath>
<clipPath id="clip1_62_2627">
<rect width="105" height="106" fill="white" transform="translate(866 505)"/>
</clipPath>
<clipPath id="clip2_62_2627">
<rect width="11.8868" height="13" fill="white" transform="translate(899.68 522)"/>
</clipPath>
<clipPath id="clip3_62_2627">
<rect width="11.8868" height="14" fill="white" transform="translate(884.82 524)"/>
</clipPath>
<clipPath id="clip4_62_2627">
<rect width="11.8868" height="13" fill="white" transform="translate(891.755 528)"/>
</clipPath>
<clipPath id="clip5_62_2627">
<rect width="18.8208" height="19" fill="white" transform="translate(888.783 510)"/>
</clipPath>
<clipPath id="clip6_62_2627">
<rect width="82" height="124" fill="white" transform="translate(12 389)"/>
</clipPath>
<clipPath id="clip7_62_2627">
<rect width="40.5591" height="62" fill="white" transform="translate(66.667 438)"/>
</clipPath>
<clipPath id="clip8_62_2627">
<rect width="52" height="80" fill="white" transform="translate(81 417)"/>
</clipPath>
<clipPath id="clip9_62_2627">
<rect width="63" height="95" fill="white" transform="translate(113 402)"/>
</clipPath>
<clipPath id="clip10_62_2627">
<rect width="82" height="124" fill="white" transform="translate(1181 408)"/>
</clipPath>
<clipPath id="clip11_62_2627">
<rect width="37" height="54" fill="white" transform="translate(1167 487)"/>
</clipPath>
<clipPath id="clip12_62_2627">
<rect width="54" height="83" fill="white" transform="translate(1119 476)"/>
</clipPath>
</defs>
</svg>
