<svg width="1264" height="659" viewBox="0 0 1264 659" fill="none" xmlns="http://www.w3.org/2000/svg">
<g clip-path="url(#clip0_62_2627)">
<rect width="1263.33" height="658.667" fill="url(#paint0_radial_62_2627)"/>
<g clip-path="url(#clip1_62_2627)">
<path d="M76.7701 516.665L59.5023 494.75H66.1228C68.0703 494.75 69.793 493.539 70.6143 491.587C71.4357 489.64 71.1655 487.407 69.9054 485.762L53.0179 463.75H59.2623C61.2293 463.75 63.0017 462.454 63.7711 460.454C64.532 458.485 64.1732 456.194 62.8547 454.622L39.0203 426.17C37.7169 424.608 35.2853 424.608 33.9798 426.17L10.1432 454.622C8.8247 456.194 8.46806 458.485 9.22673 460.454C9.99621 462.454 11.7708 463.75 13.7377 463.75H19.9822L3.09251 485.767C1.83671 487.409 1.56652 489.64 2.38572 491.589C3.20707 493.539 4.92759 494.75 6.87723 494.75H13.4978L-3.77012 516.665C-5.06699 518.31 -5.36095 520.562 -4.53959 522.541C-3.72905 524.49 -1.94585 525.75 0.00162902 525.75H29.5833V531.671L23.0363 543.393C21.8864 545.97 23.5594 549.002 26.1293 549.002H46.8707C49.4407 549.002 51.1136 545.97 49.9637 543.393L43.4167 531.671V525.75H72.9984C74.9459 525.75 76.7291 524.49 77.5396 522.541C78.361 520.562 78.067 518.31 76.7701 516.665Z" fill="black"/>
<g clip-path="url(#clip2_62_2627)">
<path d="M90.7789 519.832L82.2378 508.875H85.5125C86.4758 508.875 87.3279 508.269 87.7341 507.293C88.1404 506.32 88.0067 505.203 87.3835 504.381L79.0305 493.375H82.1192C83.0921 493.375 83.9687 492.727 84.3493 491.727C84.7257 490.742 84.5482 489.597 83.896 488.811L72.107 474.585C71.4623 473.804 70.2595 473.804 69.6138 474.585L57.8237 488.811C57.1715 489.597 56.9951 490.742 57.3704 491.727C57.751 492.727 58.6287 493.375 59.6016 493.375H62.6903L54.3363 504.383C53.7151 505.204 53.5815 506.32 53.9867 507.294C54.3929 508.269 55.2439 508.875 56.2083 508.875H59.4829L50.9418 519.832C50.3004 520.655 50.155 521.781 50.5612 522.77C50.9621 523.745 51.8442 524.375 52.8074 524.375H67.4392V527.335L64.2009 533.196C63.6321 534.485 64.4596 536.001 65.7308 536.001H75.99C77.2611 536.001 78.0886 534.485 77.5199 533.196L74.2815 527.335V524.375H88.9134C89.8766 524.375 90.7586 523.745 91.1595 522.77C91.5658 521.781 91.4204 520.655 90.7789 519.832Z" fill="black"/>
</g>
</g>
<g clip-path="url(#clip3_62_2627)">
<path d="M117.215 512.139L106.189 498H110.416C111.66 498 112.76 497.218 113.284 495.959C113.809 494.703 113.636 493.262 112.831 492.201L102.048 478H106.035C107.291 478 108.423 477.164 108.914 475.873C109.4 474.603 109.171 473.125 108.329 472.111L93.1097 453.754C92.2774 452.747 90.7247 452.747 89.891 453.754L74.6701 472.111C73.8282 473.125 73.6004 474.603 74.0849 475.873C74.5762 477.164 75.7094 478 76.9654 478H80.9528L70.1679 492.204C69.366 493.264 69.1934 494.703 69.7165 495.961C70.241 497.218 71.3397 498 72.5846 498H76.8122L65.7857 512.139C64.9576 513.2 64.7699 514.653 65.2943 515.929C65.8119 517.187 66.9506 518 68.1942 518H87.0837V521.82L82.903 529.383C82.1688 531.045 83.2371 533.001 84.8781 533.001H98.1226C99.7637 533.001 100.832 531.045 100.098 529.383L95.917 521.82V518H114.807C116.05 518 117.189 517.187 117.706 515.929C118.231 514.653 118.043 513.2 117.215 512.139Z" fill="black"/>
</g>
<path d="M182.523 487.542L181.422 487.885C182.065 490.437 182.946 491.778 183.951 492.478C184.97 493.194 186.146 493.255 187.431 493.126C189.14 492.951 191.068 492.395 193.036 493.21C193.57 493.476 194.13 493.815 194.725 494.265C195.039 494.158 195.313 494.021 195.586 493.922C195.586 493.922 195.805 493.141 195.449 492.143C195.142 491.267 194.376 490.163 192.442 489.386L192.059 490.574C193.248 491.062 193.891 491.663 194.219 492.235C194.267 492.318 194.301 492.395 194.335 492.471C194.075 492.318 193.809 492.181 193.549 492.075C191.628 491.084 190.09 491.024 188.86 490.871C188.203 490.795 187.65 490.704 187.192 490.338C186.734 489.965 186.392 489.317 186.098 488.19L185.004 488.548C185.394 490.041 185.913 490.864 186.522 491.359C186.795 491.58 187.089 491.74 187.404 491.854C186.323 491.919 185.305 491.905 184.553 491.404C183.719 490.818 183.056 489.66 182.523 487.542ZM188.641 487.817C188.579 488.67 188.716 489.363 188.942 489.927C189.468 490 189.926 490.01 190.404 490.102C190.035 489.645 189.707 488.944 189.776 487.908L188.641 487.817ZM196.864 488.845L196.119 489.797C196.68 490.346 196.837 491.001 196.837 491.557C196.536 491.258 196.263 491.059 195.942 490.879C196.434 491.52 196.502 492.658 196.536 493.271L197.596 493.4C197.596 493.4 198.799 490.719 196.864 488.845ZM191.348 494.128C190.152 494.28 189.516 493.929 189.133 495.179C189.133 495.179 190.418 497.304 193.843 497.251C193.652 498.119 193.74 498.759 193.74 499.528C193.74 502.088 191.895 504.319 187.827 504.319C185.763 504.319 183.254 504.731 181.34 505.881C179.98 506.696 178.915 507.877 178.444 509.514L178.978 510.345L180 510.36V515.06L178.753 517.215L179.112 523.461H180.294L180.397 518.434C180.985 518.053 182.331 517.063 183.48 515.539C185.038 513.49 186.235 510.512 184.826 506.825L185.879 506.33C187.034 509.354 186.631 511.975 185.619 514.085C187.554 514.016 189.215 513.879 190.623 513.62L190.302 509.331L191.437 509.225L192.517 523.461H193.693L193.891 514.191C194.827 513.749 196.96 512.127 197.958 506.49C198.081 505.805 198.15 505.226 198.184 504.731C198.341 503.474 198.43 502.057 198.457 500.442L196.782 499.856H201.93L202.429 498.599C201.944 498.622 201.362 498.34 201.362 498.34L201.479 497.73H202.559L196.714 494.356C196.065 494.63 195.381 494.988 194.903 495.422C194.52 495.118 193.194 494.166 191.348 494.128ZM197.876 511.388C197.213 512.767 196.502 513.795 195.887 514.526L199.107 516.111L197.678 519.729L198.703 520.262L200.987 515.326L197.958 512.477C197.931 512.302 197.897 511.959 197.876 511.388ZM187.362 515.258C186.59 515.311 185.77 515.349 184.895 515.364C184.3 516.24 183.616 517.086 182.905 517.741L183.5 523.454H184.669V518.503C185.168 518.046 186.371 516.88 187.362 515.258Z" fill="black"/>
<path d="M203.883 480.74L202.625 481.127C203.359 484.006 204.367 485.518 205.515 486.309C206.679 487.117 208.023 487.186 209.492 487.039C211.445 486.842 213.648 486.214 215.898 487.134C216.508 487.435 217.148 487.817 217.828 488.324C218.187 488.204 218.5 488.049 218.812 487.938C218.812 487.938 219.062 487.057 218.656 485.931C218.304 484.943 217.429 483.696 215.219 482.82L214.781 484.161C216.14 484.711 216.875 485.389 217.25 486.034C217.304 486.129 217.344 486.214 217.383 486.3C217.086 486.129 216.781 485.974 216.484 485.854C214.289 484.736 212.531 484.668 211.125 484.496C210.375 484.41 209.742 484.307 209.219 483.894C208.695 483.473 208.304 482.743 207.969 481.471L206.719 481.875C207.164 483.559 207.758 484.487 208.453 485.046C208.765 485.295 209.101 485.475 209.461 485.604C208.226 485.677 207.062 485.662 206.203 485.097C205.25 484.436 204.492 483.129 203.883 480.74ZM210.875 481.05C210.804 482.012 210.961 482.794 211.219 483.43C211.82 483.513 212.344 483.525 212.89 483.628C212.469 483.112 212.094 482.321 212.172 481.153L210.875 481.05ZM220.273 482.21L219.422 483.284C220.062 483.903 220.242 484.642 220.242 485.269C219.898 484.932 219.586 484.708 219.219 484.504C219.781 485.228 219.859 486.512 219.898 487.203L221.109 487.349C221.109 487.349 222.484 484.324 220.273 482.21ZM213.969 488.17C212.601 488.341 211.875 487.946 211.437 489.355C211.437 489.355 212.906 491.753 216.82 491.693C216.601 492.673 216.703 493.395 216.703 494.263C216.703 497.15 214.594 499.668 209.945 499.668C207.586 499.668 204.719 500.132 202.531 501.43C200.976 502.349 199.76 503.681 199.222 505.529L199.832 506.466L201 506.483V511.785L199.575 514.217L199.984 521.264H201.336L201.453 515.592C202.125 515.162 203.664 514.045 204.976 512.327C206.758 510.015 208.125 506.655 206.515 502.495L207.719 501.937C209.039 505.348 208.578 508.305 207.422 510.685C209.633 510.608 211.531 510.453 213.14 510.161L212.773 505.323L214.07 505.202L215.304 521.264H216.648L216.875 510.805C217.945 510.307 220.383 508.477 221.523 502.117C221.664 501.344 221.742 500.691 221.781 500.132C221.961 498.714 222.062 497.116 222.094 495.294L220.179 494.632H226.062L226.633 493.214C226.078 493.24 225.414 492.922 225.414 492.922L225.547 492.234H226.781L220.101 488.427C219.359 488.737 218.578 489.141 218.031 489.63C217.594 489.287 216.078 488.212 213.969 488.17ZM221.429 507.643C220.672 509.198 219.859 510.359 219.156 511.184L222.836 512.971L221.203 517.053L222.375 517.655L224.984 512.086L221.523 508.872C221.492 508.674 221.453 508.287 221.429 507.643ZM209.414 512.009C208.531 512.069 207.594 512.112 206.594 512.129C205.914 513.117 205.133 514.071 204.32 514.81L205 521.255H206.336V515.67C206.906 515.154 208.281 513.839 209.414 512.009Z" fill="black"/>
<path d="M903.971 580.938L902.587 581.369C903.395 584.575 904.504 586.259 905.767 587.14C907.047 588.039 908.525 588.116 910.141 587.953C912.29 587.733 914.713 587.034 917.188 588.058C917.858 588.393 918.563 588.819 919.311 589.384C919.706 589.25 920.05 589.078 920.393 588.953C920.393 588.953 920.668 587.972 920.222 586.718C919.835 585.618 918.872 584.23 916.44 583.254L915.959 584.747C917.454 585.359 918.262 586.116 918.675 586.833C918.735 586.939 918.778 587.034 918.821 587.13C918.494 586.939 918.159 586.766 917.832 586.632C915.418 585.388 913.484 585.312 911.937 585.12C911.112 585.025 910.416 584.91 909.84 584.45C909.265 583.981 908.835 583.168 908.465 581.751L907.09 582.201C907.58 584.077 908.233 585.111 908.998 585.733C909.342 586.01 909.711 586.211 910.107 586.355C908.749 586.436 907.468 586.419 906.523 585.79C905.475 585.053 904.641 583.599 903.971 580.938ZM911.662 581.283C911.585 582.354 911.757 583.225 912.04 583.933C912.702 584.025 913.278 584.039 913.879 584.154C913.415 583.579 913.003 582.699 913.089 581.397L911.662 581.283ZM922 582.575L921.064 583.771C921.768 584.46 921.966 585.283 921.966 585.982C921.588 585.606 921.244 585.357 920.84 585.13C921.459 585.936 921.545 587.365 921.588 588.135L922.92 588.298C922.92 588.298 924.432 584.929 922 582.575ZM915.065 589.212C913.561 589.403 912.762 588.963 912.281 590.532C912.281 590.532 913.897 593.202 918.202 593.135C917.961 594.226 918.073 595.03 918.073 595.997C918.073 599.213 915.753 602.017 910.64 602.017C908.044 602.017 904.89 602.533 902.484 603.979C900.774 605.003 899.436 606.486 898.844 608.544L899.515 609.587L900.8 609.606V615.511L899.232 618.219L899.683 626.067H901.169L901.298 619.75C902.037 619.272 903.73 618.028 905.174 616.114C907.133 613.539 908.637 609.797 906.867 605.165L908.19 604.543C909.643 608.343 909.136 611.635 907.864 614.286C910.296 614.2 912.384 614.027 914.154 613.702L913.75 608.314L915.177 608.18L916.535 626.067H918.013L918.262 614.42C919.44 613.865 922.121 611.826 923.375 604.744C923.53 603.883 923.616 603.155 923.659 602.533C923.857 600.954 923.968 599.174 924.003 597.145L921.897 596.408H928.368L928.996 594.829C928.386 594.858 927.655 594.504 927.655 594.504L927.801 593.738H929.159L921.811 589.499C920.995 589.843 920.136 590.293 919.534 590.838C919.053 590.456 917.386 589.259 915.065 589.212ZM923.272 610.898C922.439 612.63 921.545 613.922 920.772 614.841L924.819 616.831L923.023 621.377L924.312 622.047L927.182 615.846L923.375 612.266C923.341 612.046 923.298 611.616 923.272 610.898ZM910.055 615.76C909.084 615.827 908.053 615.874 906.953 615.894C906.205 616.994 905.346 618.056 904.452 618.879L905.2 626.057H906.669V619.837C907.297 619.262 908.809 617.798 910.055 615.76Z" fill="black"/>
<path d="M930.162 594.305L929.218 594.595C929.769 596.754 930.525 597.889 931.386 598.482C932.259 599.088 933.267 599.139 934.369 599.03C935.834 598.881 937.486 598.411 939.173 599.1C939.63 599.326 940.111 599.613 940.621 599.993C940.89 599.903 941.125 599.787 941.359 599.703C941.359 599.703 941.546 599.042 941.242 598.198C940.978 597.457 940.322 596.522 938.664 595.865L938.336 596.87C939.355 597.283 939.906 597.792 940.187 598.275C940.228 598.346 940.257 598.411 940.287 598.475C940.064 598.346 939.836 598.23 939.613 598.14C937.966 597.302 936.648 597.251 935.593 597.122C935.031 597.057 934.556 596.98 934.164 596.671C933.771 596.355 933.478 595.807 933.226 594.853L932.289 595.156C932.623 596.419 933.068 597.115 933.589 597.534C933.824 597.721 934.076 597.857 934.345 597.953C933.42 598.008 932.546 597.996 931.902 597.573C931.187 597.077 930.619 596.097 930.162 594.305ZM935.406 594.537C935.353 595.259 935.47 595.846 935.664 596.323C936.115 596.384 936.507 596.393 936.918 596.471C936.601 596.084 936.32 595.491 936.379 594.615L935.406 594.537ZM942.455 595.407L941.816 596.213C942.296 596.677 942.431 597.231 942.431 597.702C942.173 597.449 941.939 597.281 941.664 597.128C942.086 597.671 942.144 598.634 942.173 599.152L943.082 599.262C943.082 599.262 944.113 596.993 942.455 595.407ZM937.726 599.877C936.701 600.006 936.156 599.71 935.828 600.767C935.828 600.767 936.929 602.565 939.865 602.52C939.701 603.254 939.777 603.796 939.777 604.447C939.777 606.613 938.195 608.501 934.709 608.501C932.939 608.501 930.789 608.849 929.148 609.822C927.982 610.512 927.07 611.511 926.666 612.897L927.124 613.599L928 613.612V617.589L926.931 619.413L927.238 624.698H928.252L928.339 620.444C928.843 620.122 929.998 619.284 930.982 617.995C932.318 616.261 933.343 613.741 932.136 610.621L933.039 610.203C934.029 612.761 933.683 614.979 932.816 616.764C934.474 616.706 935.898 616.59 937.105 616.371L936.83 612.742L937.802 612.652L938.728 624.698H939.736L939.906 616.854C940.709 616.48 942.537 615.107 943.392 610.338C943.498 609.758 943.556 609.268 943.586 608.849C943.72 607.786 943.796 606.587 943.82 605.22L942.384 604.724H946.796L947.224 603.661C946.808 603.68 946.31 603.441 946.31 603.441L946.41 602.926H947.336L942.326 600.071C941.769 600.303 941.183 600.605 940.773 600.973C940.445 600.715 939.308 599.909 937.726 599.877ZM943.322 614.482C942.754 615.649 942.144 616.519 941.617 617.138L944.377 618.478L943.152 621.54L944.031 621.991L945.988 617.814L943.392 615.404C943.369 615.256 943.339 614.966 943.322 614.482ZM934.31 617.756C933.648 617.802 932.945 617.834 932.195 617.847C931.685 618.588 931.099 619.303 930.49 619.858L931 624.692H932.002V620.502C932.429 620.115 933.461 619.129 934.31 617.756Z" fill="black"/>
<path d="M886.714 604.87L886.053 605.063C886.439 606.503 886.968 607.259 887.571 607.654C888.182 608.058 888.887 608.093 889.659 608.02C890.684 607.921 891.841 607.607 893.022 608.067C893.342 608.217 893.678 608.409 894.035 608.662C894.224 608.602 894.388 608.525 894.552 608.469C894.552 608.469 894.683 608.028 894.47 607.465C894.285 606.971 893.826 606.348 892.665 605.91L892.435 606.58C893.149 606.855 893.534 607.195 893.731 607.517C893.76 607.564 893.781 607.607 893.801 607.65C893.645 607.564 893.485 607.487 893.329 607.427C892.177 606.868 891.254 606.834 890.516 606.748C890.122 606.705 889.79 606.653 889.515 606.447C889.24 606.237 889.035 605.871 888.859 605.235L888.202 605.437C888.436 606.279 888.748 606.744 889.113 607.023C889.277 607.147 889.453 607.238 889.642 607.302C888.994 607.339 888.383 607.331 887.932 607.049C887.431 606.718 887.034 606.065 886.714 604.87ZM890.384 605.025C890.348 605.506 890.43 605.897 890.565 606.215C890.881 606.256 891.156 606.262 891.443 606.314C891.221 606.056 891.024 605.661 891.065 605.076L890.384 605.025ZM895.319 605.605L894.872 606.142C895.208 606.451 895.302 606.821 895.302 607.135C895.122 606.966 894.958 606.854 894.765 606.752C895.06 607.114 895.101 607.756 895.122 608.101L895.758 608.174C895.758 608.174 896.479 606.662 895.319 605.605ZM892.009 608.585C891.291 608.671 890.909 608.473 890.68 609.178C890.68 609.178 891.451 610.377 893.506 610.346C893.391 610.836 893.444 611.197 893.444 611.631C893.444 613.075 892.337 614.334 889.896 614.334C888.658 614.334 887.152 614.566 886.004 615.215C885.188 615.675 884.549 616.341 884.267 617.264L884.587 617.733L885.2 617.741V620.393L884.452 621.609L884.667 625.132H885.376L885.438 622.296C885.791 622.081 886.599 621.523 887.288 620.663C888.223 619.507 888.941 617.827 888.096 615.748L888.727 615.468C889.421 617.174 889.179 618.652 888.572 619.843C889.732 619.804 890.729 619.727 891.574 619.58L891.381 617.161L892.062 617.101L892.71 625.132H893.416L893.534 619.903C894.096 619.654 895.376 618.738 895.975 615.559C896.049 615.172 896.09 614.845 896.11 614.566C896.205 613.857 896.258 613.058 896.274 612.147L895.269 611.816H898.358L898.657 611.107C898.366 611.12 898.018 610.961 898.018 610.961L898.087 610.617H898.735L895.228 608.714C894.839 608.868 894.429 609.07 894.142 609.315C893.912 609.143 893.116 608.606 892.009 608.585ZM895.926 618.321C895.528 619.099 895.101 619.679 894.732 620.092L896.664 620.986L895.807 623.027L896.422 623.327L897.792 620.543L895.975 618.936C895.959 618.837 895.938 618.644 895.926 618.321ZM889.618 620.504C889.154 620.534 888.662 620.556 888.137 620.564C887.78 621.059 887.37 621.536 886.943 621.905L887.3 625.128H888.001V622.335C888.301 622.077 889.023 621.42 889.618 620.504Z" fill="black"/>
<g clip-path="url(#clip4_62_2627)">
<path d="M160.067 508.227L146.96 491.437H151.985C153.463 491.437 154.771 490.509 155.394 489.014C156.018 487.522 155.813 485.811 154.856 484.552L142.038 467.687H146.778C148.271 467.687 149.616 466.695 150.2 465.162C150.778 463.653 150.505 461.898 149.504 460.694L131.413 438.896C130.424 437.699 128.578 437.699 127.587 438.896L109.494 460.694C108.494 461.898 108.223 463.653 108.799 465.162C109.383 466.695 110.73 467.687 112.223 467.687H116.963L104.143 484.555C103.19 485.813 102.984 487.522 103.606 489.016C104.23 490.509 105.536 491.437 107.015 491.437H112.041L98.9338 508.227C97.9494 509.487 97.7263 511.213 98.3497 512.729C98.9649 514.222 100.318 515.187 101.797 515.187H124.25V519.724L119.281 528.704C118.408 530.678 119.678 533.002 121.629 533.002H137.372C139.323 533.002 140.593 530.678 139.72 528.704L134.75 519.724V515.187H157.204C158.682 515.187 160.036 514.222 160.651 512.729C161.274 511.213 161.051 509.487 160.067 508.227Z" fill="black"/>
</g>
<g clip-path="url(#clip5_62_2627)">
<path d="M1261.77 535.665L1244.5 513.75H1251.12C1253.07 513.75 1254.79 512.539 1255.61 510.587C1256.44 508.64 1256.17 506.407 1254.91 504.762L1238.02 482.75H1244.26C1246.23 482.75 1248 481.454 1248.77 479.454C1249.53 477.485 1249.17 475.194 1247.85 473.622L1224.02 445.17C1222.72 443.608 1220.29 443.608 1218.98 445.17L1195.14 473.622C1193.82 475.194 1193.47 477.485 1194.23 479.454C1195 481.454 1196.77 482.75 1198.74 482.75H1204.98L1188.09 504.767C1186.84 506.409 1186.57 508.64 1187.39 510.589C1188.21 512.539 1189.93 513.75 1191.88 513.75H1198.5L1181.23 535.665C1179.93 537.31 1179.64 539.562 1180.46 541.541C1181.27 543.49 1183.05 544.75 1185 544.75H1214.58V550.671L1208.04 562.393C1206.89 564.97 1208.56 568.002 1211.13 568.002H1231.87C1234.44 568.002 1236.11 564.97 1234.96 562.393L1228.42 550.671V544.75H1258C1259.95 544.75 1261.73 543.49 1262.54 541.541C1263.36 539.562 1263.07 537.31 1261.77 535.665Z" fill="black"/>
</g>
<g clip-path="url(#clip6_62_2627)">
<path d="M1202.45 562.919L1194.75 553.375H1197.71C1198.57 553.375 1199.34 552.847 1199.71 551.997C1200.07 551.149 1199.95 550.177 1199.39 549.461L1191.86 539.875H1194.65C1195.52 539.875 1196.31 539.311 1196.66 538.439C1197 537.582 1196.84 536.584 1196.25 535.9L1185.62 523.509C1185.04 522.829 1183.96 522.829 1183.38 523.509L1172.75 535.9C1172.16 536.584 1172 537.582 1172.34 538.439C1172.69 539.311 1173.48 539.875 1174.35 539.875H1177.14L1169.61 549.463C1169.05 550.178 1168.93 551.149 1169.29 551.998C1169.66 552.847 1170.43 553.375 1171.3 553.375H1174.25L1166.55 562.919C1165.97 563.635 1165.84 564.616 1166.21 565.477C1166.57 566.326 1167.36 566.875 1168.23 566.875H1181.42V569.454L1178.5 574.558C1177.99 575.68 1178.73 577.001 1179.88 577.001H1189.12C1190.27 577.001 1191.02 575.68 1190.5 574.558L1187.58 569.454V566.875H1200.77C1201.64 566.875 1202.43 566.326 1202.8 565.477C1203.16 564.616 1203.03 563.635 1202.45 562.919Z" fill="black"/>
</g>
<g clip-path="url(#clip7_62_2627)">
<path d="M1171.19 573.357L1159.74 558.687H1164.13C1165.42 558.687 1166.56 557.877 1167.11 556.57C1167.65 555.267 1167.47 553.772 1166.64 552.672L1155.45 537.937H1159.58C1160.89 537.937 1162.06 537.07 1162.57 535.731C1163.08 534.413 1162.84 532.88 1161.96 531.828L1146.17 512.783C1145.31 511.737 1143.7 511.737 1142.83 512.783L1127.03 531.828C1126.16 532.88 1125.92 534.413 1126.43 535.731C1126.94 537.07 1128.11 537.937 1129.42 537.937H1133.55L1122.36 552.675C1121.53 553.774 1121.35 555.267 1121.89 556.572C1122.44 557.877 1123.58 558.687 1124.87 558.687H1129.26L1117.82 573.357C1116.96 574.457 1116.76 575.965 1117.31 577.29C1117.84 578.595 1119.02 579.437 1120.31 579.437H1139.92V583.401L1135.58 591.247C1134.82 592.972 1135.93 595.002 1137.63 595.002H1151.37C1153.08 595.002 1154.18 592.972 1153.42 591.247L1149.08 583.401V579.437H1168.69C1169.98 579.437 1171.16 578.595 1171.7 577.29C1172.24 575.965 1172.04 574.457 1171.19 573.357Z" fill="black"/>
</g>
<path d="M-17 542.492C492.778 432.746 756.333 772.583 1263 542.492V706H-17V542.492Z" fill="#231C3B"/>
<path d="M161.257 496.068L160.534 496.305C160.956 498.072 161.536 499 162.196 499.485C162.865 499.981 163.638 500.023 164.483 499.933C165.606 499.812 166.872 499.427 168.166 499.991C168.517 500.176 168.885 500.411 169.276 500.722C169.482 500.648 169.662 500.553 169.842 500.484C169.842 500.484 169.986 499.944 169.752 499.253C169.55 498.647 169.047 497.882 167.775 497.344L167.524 498.167C168.305 498.504 168.728 498.921 168.943 499.316C168.975 499.374 168.997 499.427 169.02 499.48C168.849 499.374 168.674 499.279 168.503 499.206C167.241 498.52 166.23 498.478 165.421 498.372C164.99 498.32 164.626 498.256 164.325 498.003C164.024 497.745 163.8 497.297 163.607 496.516L162.888 496.764C163.144 497.798 163.485 498.367 163.885 498.71C164.065 498.863 164.258 498.974 164.465 499.053C163.755 499.097 163.086 499.088 162.591 498.742C162.043 498.335 161.608 497.534 161.257 496.068ZM165.278 496.258C165.237 496.848 165.327 497.328 165.475 497.718C165.821 497.769 166.122 497.776 166.437 497.84C166.194 497.523 165.978 497.038 166.023 496.321L165.278 496.258ZM170.682 496.97L170.192 497.629C170.561 498.008 170.664 498.462 170.664 498.847C170.466 498.64 170.286 498.503 170.075 498.378C170.399 498.822 170.444 499.61 170.466 500.033L171.162 500.123C171.162 500.123 171.953 498.267 170.682 496.97ZM167.057 500.627C166.27 500.732 165.853 500.49 165.601 501.354C165.601 501.354 166.446 502.826 168.696 502.789C168.57 503.39 168.629 503.833 168.629 504.366C168.629 506.138 167.416 507.683 164.743 507.683C163.386 507.683 161.738 507.967 160.48 508.764C159.586 509.328 158.887 510.145 158.577 511.279L158.928 511.854L159.6 511.864V515.118L158.78 516.611L159.016 520.935H159.793L159.86 517.454C160.246 517.191 161.131 516.505 161.886 515.45C162.91 514.032 163.696 511.97 162.771 509.418L163.463 509.075C164.222 511.168 163.957 512.982 163.292 514.443C164.563 514.396 165.655 514.301 166.58 514.121L166.369 511.153L167.115 511.079L167.825 520.935H168.597L168.728 514.517C169.343 514.211 170.745 513.088 171.401 509.186C171.481 508.711 171.526 508.31 171.549 507.967C171.652 507.097 171.711 506.116 171.728 504.998L170.628 504.592H174.011L174.338 503.722C174.019 503.738 173.638 503.543 173.638 503.543L173.714 503.121H174.424L170.583 500.785C170.156 500.975 169.707 501.223 169.393 501.523C169.141 501.312 168.269 500.653 167.057 500.627ZM171.347 512.576C170.911 513.531 170.444 514.243 170.039 514.749L172.155 515.846L171.216 518.351L171.89 518.72L173.391 515.303L171.401 513.33C171.383 513.209 171.36 512.972 171.347 512.576ZM164.438 515.255C163.93 515.292 163.391 515.319 162.816 515.329C162.425 515.936 161.976 516.521 161.509 516.974L161.9 520.929H162.668V517.502C162.996 517.185 163.786 516.379 164.438 515.255Z" fill="black"/>
<path d="M165.027 126.658L176.834 116.473L161.947 116L157 100.25L152.054 116L137.167 116.473L148.974 126.658L144.727 142.723L157 133.22L169.274 142.723L165.027 126.658Z" fill="#FFC700"/>
<path d="M185.513 159.312L193.167 152.75L183.553 152.487L180.333 142.25L177.113 152.487L167.5 152.75L175.153 159.312L172.4 169.707L180.333 163.565L188.267 169.707L185.513 159.312Z" fill="#FFC700"/>
<path d="M126.667 126.5C126.667 158.42 149.627 184.25 178 184.25C180.473 184.25 182.9 184.04 185.28 183.673C177.767 196.64 164.793 205.25 150 205.25C126.807 205.25 108 184.093 108 158C108 141.358 115.653 126.763 127.18 118.31C126.853 120.988 126.667 123.718 126.667 126.5Z" fill="#FFC700" stroke="#FFC700" stroke-width="2" stroke-linecap="round" stroke-linejoin="round"/>
<g clip-path="url(#clip8_62_2627)">
<path d="M218.78 195.812C218.252 190.426 216.126 185.403 212.749 181.566C209.372 177.729 204.945 175.307 200.194 174.695C195.443 174.084 190.65 175.32 186.6 178.202C182.55 181.083 179.484 185.438 177.905 190.553C174.286 190.889 170.921 192.798 168.516 195.881C166.111 198.964 164.852 202.982 165.001 207.094C165.151 211.206 166.698 215.093 169.319 217.941C171.94 220.789 175.431 222.378 179.062 222.375H218.906C222.014 222.356 224.988 220.938 227.174 218.434C229.36 215.93 230.578 212.544 230.562 209.022C230.545 205.499 229.294 202.129 227.085 199.652C224.875 197.174 221.888 195.793 218.78 195.812Z" fill="black" fill-opacity="0.77"/>
<path d="M233.174 199.914C232.065 197.701 230.567 195.769 228.773 194.237C226.979 192.706 224.928 191.608 222.745 191.01C221.08 183.868 217.091 177.705 211.581 173.761C206.07 169.817 199.445 168.383 193.04 169.749C194.838 165.998 197.59 162.946 200.939 160.992C204.288 159.038 208.079 158.272 211.818 158.794C215.556 159.315 219.07 161.101 221.901 163.917C224.732 166.733 226.749 170.45 227.69 174.584C230.411 174.426 233.096 175.348 235.282 177.192C237.468 179.035 239.02 181.684 239.669 184.683C240.318 187.682 240.025 190.844 238.84 193.625C237.654 196.406 235.651 198.626 233.174 199.914Z" fill="black" fill-opacity="0.77"/>
</g>
<g clip-path="url(#clip9_62_2627)">
<path d="M122.78 210.812C122.252 205.426 120.126 200.403 116.749 196.566C113.372 192.729 108.945 190.307 104.194 189.695C99.4429 189.084 94.6495 190.32 90.5997 193.202C86.5498 196.083 83.4839 200.438 81.9046 205.553C78.2855 205.889 74.9214 207.798 72.5163 210.881C70.1112 213.964 68.8516 217.982 69.0012 222.094C69.1508 226.206 70.698 230.093 73.3189 232.941C75.9398 235.789 79.4313 237.378 83.0624 237.375H122.906C126.014 237.356 128.988 235.938 131.174 233.434C133.36 230.93 134.578 227.544 134.562 224.022C134.545 220.499 133.294 217.129 131.085 214.652C128.875 212.174 125.888 210.793 122.78 210.812Z" fill="black" fill-opacity="0.74"/>
<path d="M137.174 214.914C136.065 212.701 134.567 210.769 132.773 209.237C130.979 207.706 128.928 206.608 126.745 206.01C125.08 198.868 121.091 192.705 115.581 188.761C110.07 184.817 103.445 183.383 97.04 184.749C98.8376 180.998 101.59 177.946 104.939 175.992C108.288 174.038 112.079 173.272 115.818 173.794C119.556 174.315 123.07 176.101 125.901 178.917C128.732 181.733 130.749 185.45 131.69 189.584C134.411 189.426 137.096 190.348 139.282 192.192C141.468 194.035 143.02 196.684 143.669 199.683C144.318 202.682 144.025 205.844 142.84 208.625C141.654 211.406 139.651 213.626 137.174 214.914Z" fill="black" fill-opacity="0.74"/>
</g>
<g clip-path="url(#clip10_62_2627)">
<path d="M169.497 232.812C168.962 227.426 166.808 222.403 163.386 218.566C159.964 214.729 155.478 212.307 150.663 211.695C145.849 211.084 140.992 212.32 136.888 215.202C132.784 218.083 129.677 222.438 128.077 227.553C124.409 227.889 121 229.798 118.563 232.881C116.126 235.964 114.85 239.982 115.001 244.094C115.153 248.206 116.721 252.093 119.377 254.941C122.032 257.789 125.57 259.378 129.25 259.375H169.625C172.774 259.356 175.788 257.938 178.003 255.434C180.218 252.93 181.453 249.544 181.436 246.022C181.419 242.499 180.151 239.129 177.912 236.652C175.673 234.174 172.646 232.793 169.497 232.812Z" fill="black" fill-opacity="0.77"/>
<path d="M184.084 236.914C182.959 234.701 181.442 232.769 179.624 231.237C177.806 229.706 175.727 228.608 173.515 228.01C171.828 220.868 167.786 214.705 162.202 210.761C156.617 206.817 149.905 205.383 143.414 206.749C145.236 202.998 148.025 199.946 151.419 197.992C154.812 196.038 158.654 195.272 162.442 195.794C166.23 196.315 169.791 198.101 172.66 200.917C175.528 203.733 177.572 207.45 178.526 211.584C181.284 211.426 184.004 212.348 186.219 214.192C188.435 216.035 190.007 218.684 190.665 221.683C191.322 224.682 191.025 227.844 189.824 230.625C188.623 233.406 186.593 235.626 184.084 236.914Z" fill="black" fill-opacity="0.77"/>
</g>
</g>
<defs>
<radialGradient id="paint0_radial_62_2627" cx="0" cy="0" r="1" gradientUnits="userSpaceOnUse" gradientTransform="translate(88.17 -79.7605) rotate(33.5968) scale(1334.48 1738.32)">
<stop offset="0.347346" stop-color="#3919BB"/>
<stop offset="0.453188" stop-color="#510FDD"/>
<stop offset="0.602644" stop-color="#8C4FEC"/>
<stop offset="0.742014" stop-color="#1CA511"/>
<stop offset="0.820874" stop-color="#70B96F"/>
<stop offset="0.884743" stop-color="#E29967"/>
<stop offset="1" stop-color="#590CE8"/>
</radialGradient>
<clipPath id="clip0_62_2627">
<rect width="1263.33" height="658.667" fill="white"/>
</clipPath>
<clipPath id="clip1_62_2627">
<rect width="83" height="124" fill="white" transform="translate(-5 425)"/>
</clipPath>
<clipPath id="clip2_62_2627">
<rect width="41.0538" height="62" fill="white" transform="translate(50.333 474)"/>
</clipPath>
<clipPath id="clip3_62_2627">
<rect width="53" height="80" fill="white" transform="translate(65 453)"/>
</clipPath>
<clipPath id="clip4_62_2627">
<rect width="63" height="95" fill="white" transform="translate(98 438)"/>
</clipPath>
<clipPath id="clip5_62_2627">
<rect width="83" height="124" fill="white" transform="translate(1180 444)"/>
</clipPath>
<clipPath id="clip6_62_2627">
<rect width="37" height="54" fill="white" transform="translate(1166 523)"/>
</clipPath>
<clipPath id="clip7_62_2627">
<rect width="55" height="83" fill="white" transform="translate(1117 512)"/>
</clipPath>
<clipPath id="clip8_62_2627">
<rect width="75" height="85" fill="white" transform="translate(165 148)"/>
</clipPath>
<clipPath id="clip9_62_2627">
<rect width="75" height="85" fill="white" transform="translate(69 163)"/>
</clipPath>
<clipPath id="clip10_62_2627">
<rect width="76" height="85" fill="white" transform="translate(115 185)"/>
</clipPath>
</defs>
</svg>
