<svg width="76" height="77" viewBox="0 0 76 77" fill="none" xmlns="http://www.w3.org/2000/svg">
<g clip-path="url(#clip0_34_50)">
<path d="M1.6217 38.0392C1.61992 44.5087 3.30142 50.8257 6.49876 56.3936L1.31592 75.4173L20.6817 70.3127C26.038 73.2441 32.0393 74.7801 38.1379 74.7804H38.1539C58.2865 74.7804 74.6749 58.3111 74.6835 38.0682C74.6874 28.259 70.891 19.0351 63.9934 12.0956C57.097 5.15662 47.925 1.33318 38.1525 1.3287C18.0175 1.3287 1.63031 17.7972 1.622 38.0392" fill="url(#paint0_linear_34_50)"/>
<path d="M0.317656 38.0273C0.315578 44.7295 2.05734 51.2724 5.36869 57.0397L0 76.7454L20.0601 71.4578C25.5874 74.4873 31.8105 76.0847 38.1428 76.087H38.1591C59.014 76.087 75.9911 59.0253 76 38.0577C76.0036 27.8961 72.0706 18.3406 64.9266 11.1525C57.7817 3.9652 48.2817 0.00417829 38.1591 0C17.3007 0 0.325969 17.0594 0.317656 38.0273ZM12.2639 56.0465L11.5149 54.8512C8.36623 49.8181 6.70433 44.0019 6.7067 38.0296C6.71353 20.6017 20.8222 6.42264 38.171 6.42264C46.5726 6.42622 54.4682 9.71871 60.4069 15.6925C66.3453 21.6668 69.613 29.6086 69.611 38.0553C69.6032 55.4833 55.4942 69.6641 38.1591 69.6641H38.1467C32.5022 69.6611 26.9663 68.1372 22.1386 65.2575L20.9897 64.5726L9.08556 67.7102L12.2639 56.0462V56.0465Z" fill="url(#paint1_linear_34_50)"/>
<path d="M28.7013 22.1295C27.993 20.5468 27.2475 20.5148 26.5739 20.4871C26.0223 20.4632 25.3917 20.465 24.7618 20.465C24.1312 20.465 23.1067 20.7035 22.2407 21.654C21.3738 22.6055 18.9312 24.9047 18.9312 29.5811C18.9312 34.2578 22.3194 38.7773 22.7917 39.4121C23.2646 40.0457 29.3328 49.9494 38.9432 53.7594C46.9303 56.9257 48.5557 56.296 50.2892 56.1372C52.0229 55.979 55.8835 53.8385 56.6711 51.619C57.4593 49.3997 57.4593 47.4974 57.223 47.0998C56.9867 46.7038 56.3561 46.4659 55.4106 45.9908C54.4647 45.5154 49.8162 43.2158 48.9497 42.8986C48.0828 42.5816 47.4525 42.4234 46.822 43.3752C46.1914 44.3254 44.3808 46.4659 43.8289 47.0998C43.2776 47.7352 42.7257 47.8143 41.7804 47.3389C40.8343 46.862 37.7892 45.8595 34.1766 42.6216C31.3658 40.1021 29.4681 36.9907 28.9165 36.039C28.3649 35.0887 28.8575 34.5736 29.3316 34.1C29.7564 33.6741 30.2774 32.99 30.7506 32.4352C31.2221 31.8801 31.3794 31.4841 31.6947 30.8501C32.0103 30.2156 31.8523 29.6605 31.6163 29.1851C31.3794 28.7097 29.5421 24.0088 28.7013 22.1295Z" fill="white"/>
</g>
<defs>
<linearGradient id="paint0_linear_34_50" x1="3669.7" y1="7410.19" x2="3669.7" y2="1.3287" gradientUnits="userSpaceOnUse">
<stop stop-color="#1FAF38"/>
<stop offset="1" stop-color="#60D669"/>
</linearGradient>
<linearGradient id="paint1_linear_34_50" x1="3800" y1="7674.54" x2="3800" y2="0" gradientUnits="userSpaceOnUse">
<stop stop-color="#F9F9F9"/>
<stop offset="1" stop-color="white"/>
</linearGradient>
<clipPath id="clip0_34_50">
<rect width="76" height="77" fill="white"/>
</clipPath>
</defs>
</svg>
